<svg width="41" height="47" viewBox="0 0 41 47" fill="none" xmlns="http://www.w3.org/2000/svg">
<path d="M39.0477 42.2377C38.974 42.2866 38.8981 42.311 38.819 42.311C38.7021 42.311 38.6005 42.2688 38.5152 42.1845C38.4295 42.0999 38.3866 41.9891 38.3866 41.8521C38.3866 41.7239 38.4236 41.6147 38.4974 41.5247C38.5711 41.4346 38.672 41.3896 38.8001 41.3896C38.8819 41.3896 38.9527 41.4065 39.0126 41.4404C39.1105 41.4957 39.1712 41.5921 39.1949 41.7295L38.998 41.7265C38.9862 41.6625 38.9612 41.6199 38.9228 41.5977C38.8906 41.5771 38.8553 41.5671 38.8171 41.5671C38.7591 41.5671 38.7115 41.5913 38.6745 41.6391C38.6377 41.6872 38.6193 41.7599 38.6193 41.8566C38.6193 41.9529 38.6395 42.0228 38.6805 42.0663C38.7213 42.1099 38.7701 42.1315 38.8273 42.1315C38.8797 42.1315 38.9194 42.1172 38.9463 42.0884C38.973 42.0597 38.9905 42.0232 38.998 41.9797H39.1894C39.1686 42.1025 39.1215 42.1886 39.0477 42.2377ZM38.347 41.3992C38.224 41.5259 38.1627 41.6761 38.1627 41.8499C38.1627 42.0301 38.2252 42.1832 38.3502 42.3087C38.4747 42.4352 38.6246 42.498 38.8002 42.498C38.9756 42.498 39.1252 42.4345 39.2491 42.3079C39.3093 42.2482 39.3568 42.1769 39.3888 42.0981C39.4208 42.0194 39.4367 41.9349 39.4354 41.8499C39.4354 41.6769 39.3737 41.5267 39.2501 41.3992C39.1255 41.2697 38.9756 41.2049 38.8001 41.2049C38.6231 41.2049 38.4721 41.2697 38.3469 41.3992H38.347ZM39.3401 42.4082C39.1902 42.5545 39.0102 42.6275 38.8002 42.6275C38.5834 42.6275 38.4004 42.5528 38.2521 42.4029C38.1031 42.2532 38.0288 42.0687 38.0288 41.8499C38.0288 41.6226 38.1094 41.4336 38.2695 41.2833C38.4202 41.1423 38.5973 41.072 38.8002 41.072C39.0131 41.072 39.1949 41.1479 39.3454 41.3002C39.4961 41.4521 39.5717 41.6352 39.5717 41.8499C39.5717 42.0708 39.4945 42.2569 39.3401 42.4082Z" fill="#59473D"/>
<path d="M40.989 34.0579C40.986 33.9799 40.9794 33.9052 40.9706 33.8355C40.965 33.7892 40.9565 33.7433 40.945 33.6982C40.9258 33.5942 40.9021 33.4911 40.8676 33.3932L40.8668 33.3915C40.795 33.185 40.6856 32.9939 40.5443 32.8278C40.4097 32.6711 40.2477 32.5408 40.0662 32.4434L40.0606 32.4402C39.898 32.3551 39.7238 32.2948 39.5437 32.2612C39.4964 32.2526 39.4526 32.2483 39.4087 32.2431C39.6137 31.3575 39.3571 30.6813 39.1913 30.3652C39.2042 30.3526 39.2176 30.3402 39.2298 30.3282C39.4487 30.115 39.6346 29.9112 39.7913 29.7064L39.8207 29.6654C39.9349 29.4999 40.0233 29.3178 40.0827 29.1253C40.1282 28.9782 40.1505 28.8451 40.1636 28.7234L40.1652 28.7236L40.1663 28.7163L40.1671 28.6991L40.1723 28.6616H40.1692L40.1715 28.6196H40.1726L40.1731 28.5944C40.174 28.5695 40.1747 28.5438 40.1747 28.5166C40.1759 28.4665 40.1756 28.4145 40.1731 28.3573C40.1611 28.0831 40.1119 27.7264 39.9333 27.3404C39.8366 27.1315 39.7097 26.9383 39.5567 26.7671C39.3836 26.5745 39.1805 26.4118 38.9553 26.2854L38.9566 26.2861C38.9396 26.2764 38.9261 26.2672 38.9104 26.258C38.4241 25.5357 37.8685 24.9759 37.3759 24.5511C37.1505 24.3576 36.9179 24.1728 36.6786 23.9971C36.4773 23.848 36.3075 23.7301 36.213 23.6596L36.214 23.66C35.9973 23.4998 35.8362 23.4034 35.7592 23.3596C35.5814 23.2508 35.4496 23.1639 35.3699 23.1032C35.3327 23.0761 35.2979 23.0459 35.2659 23.0129L35.26 23.005C35.2589 23.0033 35.252 22.9898 35.2427 22.9415C35.2328 22.8932 35.222 22.8107 35.2174 22.6915C35.2091 22.5041 35.2155 22.2295 35.236 21.8669C35.2683 21.2839 35.3341 20.4796 35.402 19.3893C35.4245 19.0426 35.4277 18.7158 35.4152 18.408C35.3948 17.9144 35.3316 17.4674 35.2292 17.062L35.2289 17.0597C35.2065 16.9676 35.1802 16.8772 35.1528 16.7879L35.1524 16.7871L35.1519 16.7859C35.1312 16.7194 35.1131 16.6692 35.1019 16.6372L35.1027 16.639C35.0819 16.5797 35.0606 16.5211 35.0371 16.4613L35.0363 16.4589C35.0246 16.4298 35.0098 16.3925 34.9903 16.346L34.9898 16.3448L34.9895 16.3442C34.9493 16.2477 34.9051 16.153 34.8569 16.0603L34.8426 16.0331L34.8161 15.985L34.797 15.9527C34.7024 15.7958 34.5983 15.645 34.4852 15.5011C34.4071 15.1464 34.3039 14.7978 34.1763 14.4581C34.0355 14.0871 33.8468 13.6754 33.5786 13.2693C33.4819 13.1251 33.3767 12.9868 33.2637 12.8552L33.3022 12.8148C33.3564 12.7577 34.645 11.3968 35.6541 9.63063C37.5346 6.33869 36.9086 4.32609 36.0527 3.21747L36.0284 3.18646L36.0028 3.15739C35.1773 2.23224 34.055 1.67471 32.6665 1.50092C29.791 1.14026 26.5393 2.56318 25.6867 2.96793L24.1369 1.24137L24.131 1.23491C23.9945 1.08401 23.8429 0.947674 23.6787 0.828059C23.514 0.708626 23.3383 0.605329 23.1541 0.519571C22.7837 0.346107 22.3774 0.237733 21.945 0.183465C21.0774 0.0757363 20.1037 0.180235 19.0445 0.454159C17.4571 0.867145 15.6743 1.66695 13.8108 2.79431C11.9482 3.92198 10.0072 5.37866 8.12275 7.11217C5.81979 9.23024 3.91769 11.4698 2.53175 13.5953C1.83927 14.6582 1.27538 15.6928 0.856425 16.6742C0.438274 17.6562 0.163296 18.5844 0.0572772 19.4433C-0.0195947 20.0675 -0.00726317 20.6574 0.117013 21.2012C0.170358 21.4364 0.24814 21.6653 0.34907 21.8841C0.47719 22.1623 0.642945 22.4203 0.849218 22.6485L0.854343 22.654L2.65763 24.5589L2.64722 24.577C2.62768 24.6114 2.60943 24.6462 2.59021 24.6811C2.5625 24.7328 2.53448 24.7843 2.50773 24.8365C2.48979 24.8724 2.47234 24.9079 2.45536 24.9439C2.42958 24.9972 2.40443 25.05 2.38009 25.1041C2.36344 25.1401 2.34774 25.1765 2.33221 25.2133C2.3085 25.2677 2.28576 25.323 2.26382 25.3787L2.2209 25.4887C2.19992 25.5449 2.1799 25.6026 2.15989 25.6594C2.14739 25.6966 2.13458 25.7337 2.12273 25.7708C2.10383 25.829 2.08654 25.8878 2.06908 25.9469C2.06428 25.9634 2.05883 25.9792 2.05419 25.9957C2.04826 26.0165 2.04282 26.0377 2.03721 26.0585C2.02039 26.1189 2.00566 26.1801 1.99077 26.2413C1.98212 26.2778 1.97267 26.3147 1.96418 26.3518L1.94737 26.4326C1.93952 26.4702 1.93279 26.508 1.92527 26.5463C1.91886 26.5805 1.91133 26.6149 1.90557 26.6495C1.89211 26.7264 1.88106 26.8045 1.87033 26.882C1.86745 26.9051 1.86313 26.9276 1.8604 26.9507L1.8596 26.9572L1.85784 26.9781C1.85176 27.0287 1.84743 27.0799 1.84199 27.1316C1.83462 27.2117 1.82821 27.2923 1.82389 27.3735C1.82133 27.4091 1.81973 27.4452 1.81813 27.4814C1.817 27.5094 1.81492 27.5368 1.81396 27.5649C1.81236 27.6215 1.81316 27.6788 1.81284 27.7364C1.81284 27.7705 1.81252 27.8049 1.81284 27.8398C1.81316 27.8603 1.81252 27.8807 1.81284 27.9012V27.913C1.81396 27.9498 1.8154 27.9868 1.8162 28.0233C1.81813 28.064 1.82181 28.1036 1.82421 28.1436C1.82597 28.1735 1.82677 28.2034 1.82854 28.2328C1.8311 28.2593 1.83238 28.2791 1.83414 28.2962C1.83734 28.3339 1.84103 28.3722 1.84503 28.4095C1.84887 28.4528 1.85352 28.4989 1.85992 28.5516L1.8604 28.5561V28.5553L1.86745 28.6059C1.87322 28.6485 1.87994 28.6915 1.88635 28.7338C1.89147 28.7721 1.8982 28.8147 1.90685 28.8683L1.91742 28.9232C1.92222 28.9491 1.92751 28.9746 1.93231 29L1.93279 29.0019L1.93343 29.0054L1.94032 29.0381C1.94673 29.0733 1.95553 29.1175 1.96899 29.1781L1.9786 29.2188C1.9882 29.2572 1.99525 29.2862 2.00054 29.3065L2.00998 29.3456C2.01319 29.3585 2.01639 29.3701 2.02071 29.3884L2.03 29.4244L2.03801 29.4545L2.04506 29.4817L2.05547 29.5173L2.06524 29.5543C2.07388 29.5832 2.08333 29.6116 2.09198 29.6405C2.10239 29.6741 2.11552 29.7188 2.1349 29.7788L2.1317 29.7691L2.13538 29.7804C2.13987 29.7946 2.14355 29.804 2.14771 29.8159C2.16501 29.8658 2.17878 29.9039 2.18567 29.9236L2.18679 29.9259V29.9262C2.198 29.9589 2.21482 30.0067 2.23852 30.0688L2.23884 30.0698L2.23916 30.0713L2.23884 30.0697L2.24076 30.0755L2.23996 30.0727L2.25037 30.0984C2.26526 30.1367 2.27728 30.1662 2.2872 30.189L2.29874 30.2181L2.30066 30.2229C2.31885 30.2676 2.33753 30.3121 2.35671 30.3563L2.35559 30.3539L2.3684 30.3817C2.38041 30.4083 2.3913 30.4334 2.40139 30.4537C2.411 30.4734 2.41901 30.491 2.42589 30.5054L2.42493 30.5031L2.42621 30.5062L2.42734 30.5086L2.42621 30.5062C2.44143 30.538 2.45969 30.5789 2.48531 30.6299L2.48723 30.6348L2.48883 30.6374L2.49956 30.6587C2.51045 30.6797 2.52086 30.7 2.53031 30.7176C2.54344 30.743 2.55546 30.7645 2.56474 30.7827L2.56667 30.7869C2.5806 30.8123 2.59998 30.8498 2.62624 30.8977L2.628 30.901L2.62993 30.9045L2.64082 30.9229C2.65171 30.9423 2.66212 30.9607 2.67188 30.9773C2.68886 31.0061 2.70456 31.0318 2.71673 31.0533L2.72057 31.0592L2.72137 31.061C2.73418 31.082 2.75372 31.1151 2.78127 31.1597L2.78383 31.1639L2.79184 31.1768C2.80529 31.1983 2.81842 31.2188 2.83043 31.2375C2.85029 31.2669 2.86775 31.2938 2.8828 31.3167L2.88024 31.3128C2.89673 31.3372 2.91916 31.3721 2.9499 31.416L2.95231 31.4197L2.95375 31.4225L2.95103 31.4178L2.95423 31.4226L2.95663 31.4262L2.95583 31.4255L2.95695 31.4272L2.95743 31.4275C2.97185 31.4483 2.98658 31.4687 3.00131 31.4893C3.02149 31.5179 3.04087 31.5443 3.05817 31.5675L3.05704 31.5659C3.07354 31.5885 3.0942 31.6166 3.11902 31.6499L3.12447 31.657C3.14337 31.6817 3.1613 31.7046 3.17892 31.7271C3.20166 31.7558 3.22344 31.7828 3.24362 31.8078L3.25051 31.8166C3.26428 31.8335 3.28045 31.8537 3.30223 31.8794L3.31184 31.891L3.31152 31.8912L3.31473 31.8952L3.32049 31.9014C3.353 31.9398 3.38231 31.9729 3.41162 32.0059L3.44269 32.0419L3.44301 32.0424L3.44429 32.0436L3.44669 32.0461L3.44589 32.0456C3.46046 32.0617 3.47824 32.0823 3.50034 32.1058L3.50739 32.1137V32.1142L3.50867 32.1152L3.51299 32.1196L3.51187 32.1186C3.5471 32.157 3.5817 32.1924 3.61645 32.2281C3.63086 32.2426 3.64496 32.2588 3.65953 32.2728L3.66113 32.2745C3.66866 32.2817 3.68547 32.2995 3.7127 32.3269L3.71798 32.3318L3.73352 32.3481C3.77532 32.3895 3.81904 32.4292 3.86228 32.4694L3.87221 32.4794L3.87509 32.4817L3.87605 32.4826L3.87765 32.4843C3.88886 32.4941 3.90648 32.5107 3.93226 32.5342L3.93499 32.5371C3.9904 32.5865 4.04613 32.6346 4.10154 32.6811L4.10475 32.6839L4.13614 32.71L4.15743 32.7277L4.15679 32.7268L4.18882 32.7525C4.23575 32.7903 4.28171 32.8268 4.32607 32.8611L4.33856 32.8711L4.34433 32.8753C4.36131 32.888 4.3738 32.8972 4.38068 32.9027L4.38933 32.9095L4.39606 32.9142C4.40887 32.9236 4.42168 32.9326 4.43513 32.9421C4.47437 32.9707 4.51361 32.9987 4.55317 33.0263L4.58648 33.0499L4.59032 33.0526L4.63148 33.0809L4.63324 33.0817L4.65422 33.0953C4.69426 33.1226 4.73718 33.1494 4.77946 33.1768C4.80188 33.1912 4.82206 33.2048 4.84528 33.219L4.88131 33.2411L4.90165 33.2531L4.91494 33.2611C4.98109 33.301 5.04306 33.337 5.09992 33.3687L5.10536 33.3714L5.1406 33.3908L5.14316 33.3928C5.22163 33.4349 5.29642 33.4735 5.36705 33.509L5.37922 33.5149L5.41781 33.5336L5.41814 33.5331C5.45641 33.5518 5.49341 33.568 5.53136 33.5851C5.54898 33.5935 5.56707 33.6018 5.58485 33.6097C5.60631 33.6194 5.62873 33.631 5.65019 33.6402L5.66845 33.6481L5.67373 33.6502L5.68238 33.6541C5.71922 33.6698 5.75509 33.6832 5.79128 33.698L5.80986 33.7051C5.85054 33.7216 5.89138 33.739 5.9319 33.7544L5.9415 33.7579L5.97161 33.7689C5.99067 33.7757 6.01021 33.7818 6.02927 33.7888L6.04736 33.7948C6.1055 33.8158 6.16379 33.8371 6.22305 33.8561L6.23698 33.8605L6.24211 33.8621L6.24403 33.8632C6.33515 33.8918 6.42612 33.9182 6.51692 33.9429L6.52045 33.9438L6.53582 33.9477L6.53054 33.9466C6.61077 33.9677 6.68989 33.986 6.76804 34.0038H6.769L6.79799 34.0115L6.82842 34.018C6.90305 34.0344 6.97896 34.0477 7.05567 34.0611L7.07729 34.0671L7.1311 34.0753C7.17722 34.0829 7.22334 34.0889 7.26947 34.0952L7.28933 34.1498L7.29013 34.1524C7.41601 34.4993 7.55261 34.8443 7.69931 35.1865C9.8623 41.2229 15.8413 45.9024 22.664 46.7579C29.4872 47.6134 36.7704 43.0399 39.7376 36.8596C39.8608 36.6318 39.9778 36.4007 40.0887 36.1666C40.3829 35.861 40.6114 35.5441 40.7632 35.2082C40.9448 34.8134 41.006 34.3979 40.989 34.0579Z" fill="#59473D"/>
<path d="M34.9883 16.3424L34.9888 16.3437L34.9891 16.3442L34.9883 16.3424Z" fill="#59473D"/>
<path d="M4.8815 33.2415L4.88082 33.2411H4.88037L4.8815 33.2415Z" fill="#59473D"/>
<path d="M2.94922 31.4158L2.94967 31.4169V31.4162L2.94922 31.416" fill="#59473D"/>
<path d="M2.95041 31.4177L2.95094 31.4179L2.94971 31.4165L2.95041 31.4177Z" fill="#59473D"/>
<path d="M2.04534 29.4837L2.04482 29.4816L2.04443 29.4811L2.04534 29.4837Z" fill="#59473D"/>
<path d="M1.96893 29.1796L1.96871 29.1783L1.96826 29.1776L1.96893 29.1798" fill="#59473D"/>
<path d="M3.12459 31.6576L3.12667 31.6603L3.1237 31.6568L3.12207 31.6545L3.12459 31.6578" fill="#59473D"/>
<path d="M35.1527 3.89034C34.8223 3.51983 34.44 3.24074 34.0249 3.034C33.9484 3.00447 33.8708 2.97775 33.7924 2.95389C33.7539 2.92805 33.7145 2.90383 33.6747 2.88008C33.3074 2.73828 32.9189 2.64573 32.5193 2.59388C30.537 2.33659 28.2802 3.06437 26.9895 3.58121C26.9187 3.61109 26.8475 3.64097 26.7752 3.67165C26.4747 3.80109 26.1762 3.93543 25.88 4.07463C25.8521 4.08755 25.8243 4.10111 25.7966 4.11436L25.2881 3.51854L25.1424 3.34766L25.0794 3.27336L23.749 1.71574L23.6336 1.5804L23.4906 1.41323L23.4651 1.41888L23.0887 1.50481L22.6543 1.60398C22.414 1.49156 22.1287 1.41129 21.7983 1.36978C21.1365 1.2858 20.2964 1.363 19.3393 1.61254C18.3821 1.8603 17.3089 2.277 16.1708 2.84875C13.8942 3.99096 11.3599 5.75193 8.92109 7.99565C8.0951 8.75442 7.30296 9.54984 6.54703 10.3796C5.86612 11.1253 5.2195 11.9022 4.60922 12.7078C3.42843 14.2707 2.52342 15.7909 1.94544 17.1468C1.55948 18.0503 1.3207 18.8804 1.23342 19.5909C1.16904 20.1074 1.18585 20.5592 1.27169 20.9324C1.2994 21.0531 1.33623 21.1629 1.37771 21.2677C1.46403 21.4884 1.57742 21.6785 1.72379 21.8411L3.19926 23.4002L3.35748 23.567L3.36789 23.5557C3.41274 23.5032 3.45902 23.4507 3.50562 23.3995L3.51827 23.386C3.53525 23.3674 3.55287 23.3501 3.57 23.3325C3.6142 23.2857 3.65905 23.2392 3.70469 23.1936C3.73304 23.1653 3.7617 23.1382 3.79069 23.1108C3.81872 23.0841 3.8461 23.0563 3.87461 23.03C3.88742 23.0182 3.90071 23.0074 3.91384 22.9956C3.94379 22.9681 3.97486 22.9412 4.00593 22.914C4.07448 22.854 4.14438 22.7955 4.21557 22.7386L4.2271 22.7296C4.30342 22.6695 4.38084 22.6108 4.45931 22.5535C4.50848 22.5183 4.55861 22.4833 4.60922 22.449C4.63964 22.4285 4.66959 22.408 4.70018 22.388C4.75191 22.3541 4.80476 22.3211 4.85761 22.2887C4.88852 22.2698 4.91846 22.251 4.94905 22.2331C5.00447 22.2003 5.06068 22.1693 5.11657 22.1383C5.14652 22.1221 5.17599 22.1052 5.20593 22.0892L5.23957 22.0714L5.24469 22.0684C5.29225 22.0436 5.34078 22.0209 5.38914 21.9973C5.41637 21.9844 5.44215 21.9706 5.46986 21.958C5.51022 21.9387 5.55154 21.9209 5.5927 21.9028C5.62825 21.8871 5.66364 21.8712 5.69984 21.856L5.73971 21.8382C5.83076 21.8007 5.92266 21.7654 6.01533 21.7323C6.04464 21.7216 6.07507 21.7125 6.10453 21.7022C6.13656 21.6916 6.16827 21.6807 6.20078 21.6704L6.23826 21.6575C6.25748 21.6515 6.2767 21.6449 6.29575 21.6392C6.33531 21.6274 6.37535 21.6169 6.41491 21.6053L6.44437 21.5972C6.49034 21.584 6.53614 21.5711 6.58258 21.5593C6.62582 21.548 6.66906 21.5386 6.71294 21.5286C6.76691 21.516 6.82072 21.5037 6.87486 21.4924C6.8976 21.488 6.92002 21.483 6.94276 21.4785C6.96534 21.4743 6.98888 21.4709 7.01162 21.4667C7.06479 21.457 7.11844 21.448 7.17177 21.4396C7.21918 21.4325 7.26626 21.4262 7.31351 21.4196C7.35178 21.4147 7.38926 21.4094 7.42721 21.405C7.44275 21.4034 7.45812 21.4023 7.47366 21.401C7.49111 21.3989 7.50777 21.3963 7.52522 21.3949L7.55373 21.3932C7.76132 21.3849 7.96921 21.3885 8.17639 21.4041L8.21083 21.4063C8.43952 21.4252 8.68663 21.4617 8.94623 21.5173C9.00821 21.5307 9.07003 21.5436 9.13409 21.5593C9.14722 21.5347 9.16067 21.5095 9.17413 21.485C9.31154 21.2362 9.45055 20.9938 9.59116 20.7556C10.4127 19.3664 11.294 18.152 12.1936 17.0931C12.4928 16.7406 12.8015 16.3964 13.1196 16.0611C14.4097 14.7021 15.7076 13.6439 16.8943 12.8268C17.1486 12.6518 17.4063 12.4819 17.6674 12.3172C17.9908 12.1134 18.3195 11.9181 18.6531 11.7316C18.8947 11.5965 19.139 11.4664 19.3858 11.3412C19.7309 11.1659 20.0812 11.0013 20.4363 10.8476C20.6511 10.755 20.8678 10.6669 21.0862 10.5834C20.9885 10.5731 20.8893 10.5651 20.7877 10.5598C20.6932 10.5548 20.5971 10.5529 20.4999 10.5527L20.4267 10.5529C20.1319 10.5556 19.8377 10.5801 19.5464 10.626C19.4801 10.6365 19.4135 10.6483 19.3459 10.6617C19.8108 10.4192 20.2965 10.2195 20.797 10.0649C21.1095 9.96804 21.4149 9.89213 21.7079 9.83431C22.3023 9.71874 22.9066 9.66291 23.5119 9.66763C23.7191 9.66973 23.9098 9.67877 24.0814 9.69169C24.6805 9.73691 25.0416 9.82946 25.0416 9.82946C24.9566 9.70865 24.8494 9.60334 24.733 9.51144C24.5208 9.34573 24.2766 9.22702 24.0623 9.14287C23.9358 9.09302 23.8067 9.05 23.6757 9.01399C23.7766 8.99654 23.8764 8.98168 23.9747 8.96844C24.0775 8.95438 24.1805 8.94231 24.2838 8.93226C25.0136 8.86398 25.7492 8.89757 26.4698 9.03208C27.154 9.15967 27.5659 9.33313 27.5659 9.33313C27.4684 9.14142 27.3238 8.97781 27.1655 8.83955C27.0547 8.7437 26.9365 8.65686 26.8121 8.57984C27.5138 8.74348 28.1955 8.98467 28.8449 9.29906C28.981 9.36525 29.1154 9.43499 29.248 9.50821C29.583 9.6925 29.7681 9.82494 29.7681 9.82494C29.7121 9.62628 29.5984 9.43844 29.4658 9.26998C29.4324 9.22767 29.3985 9.186 29.3639 9.14643L29.3799 9.15386C29.3922 9.15789 29.4185 9.16613 29.4552 9.17873C29.4818 9.18777 29.514 9.19892 29.5526 9.21297C29.6983 9.26643 29.9212 9.35623 30.1832 9.48754L30.2213 9.50676C30.2569 9.52517 30.2933 9.54391 30.3296 9.56329C30.4196 9.6111 30.5125 9.66423 30.6073 9.72109C30.7476 9.80524 30.8842 9.89534 31.017 9.99113C31.1169 10.0633 31.2162 10.141 31.3148 10.224C31.4174 10.3105 31.5162 10.4013 31.611 10.4963C31.6297 10.5156 31.6491 10.5343 31.668 10.5542C31.7381 10.6268 31.8057 10.7034 31.871 10.7829C31.9978 10.9351 32.112 11.0975 32.2126 11.2684C32.3391 11.4826 32.4413 11.7105 32.5173 11.9477C32.5214 11.9616 32.5253 11.976 32.5289 11.9897C32.5855 11.9285 32.6851 11.8185 32.8148 11.6683C33.8918 10.4198 37.0636 6.36471 35.1527 3.89034Z" fill="#141C26"/>
<path d="M39.8919 34.1855L39.8926 34.1852C39.8926 34.1852 39.9297 33.9045 39.7826 33.6533L39.7794 33.6464C39.7709 33.632 39.7618 33.618 39.7521 33.6044L39.7425 33.5899C39.7253 33.5674 39.7067 33.5459 39.6868 33.5257C39.6486 33.4852 39.6056 33.4496 39.5587 33.4198C39.5315 33.4019 39.5032 33.3858 39.474 33.3715C39.3905 33.3313 39.2904 33.3008 39.1716 33.2832C39.0741 33.2704 38.9756 33.266 38.8774 33.2702C38.8337 33.2715 38.7906 33.2725 38.7434 33.277L38.7221 33.2783L38.7299 33.3072L38.7509 33.3867L38.7616 33.4303C38.777 33.4923 38.7956 33.5713 38.8145 33.6605C38.8088 33.6777 38.8023 33.6946 38.7949 33.7112L38.7877 33.7284C38.7336 33.8554 38.5864 34.1484 38.2586 34.5295C38.2027 34.5942 38.1409 34.662 38.0746 34.7318C37.1601 35.6847 35.1807 37.0417 31.0168 37.8008C29.6038 38.0019 28.3009 38.0129 27.1882 37.8733C25.5428 37.6669 24.31 37.1368 23.7365 36.4239C23.6869 36.3627 23.6412 36.2996 23.5978 36.2361C23.5659 36.1895 23.5355 36.1418 23.5065 36.0933C23.4963 36.0755 23.4868 36.0576 23.4769 36.04C23.2414 35.6184 23.1214 35.1413 23.1291 34.6575C23.1371 34.0941 23.3111 33.5551 23.6061 33.1409C23.8454 32.8049 24.1635 32.551 24.5357 32.4338C24.7239 32.3744 24.9214 32.351 25.1181 32.3646C25.1594 32.3675 25.2142 32.3734 25.2824 32.3819C25.4192 32.3992 25.6103 32.4263 25.8446 32.4567L25.9227 32.4667C26.7042 32.5646 27.9486 32.6831 29.4534 32.5904C32.1913 32.4223 35.7948 31.5535 39.067 28.5777L39.076 28.566V28.5609C39.0869 28.3117 39.0539 27.8615 38.7416 27.5114C38.6841 27.4473 38.6202 27.3894 38.551 27.3385C38.5087 27.3069 38.4645 27.2777 38.4187 27.2513C38.3707 27.2245 38.3266 27.1974 38.2842 27.1701C38.2292 27.1357 38.1755 27.0992 38.1232 27.0606L38.116 27.0501C38.0939 27.0152 38.0704 26.9813 38.0478 26.9464C37.199 25.6499 36.0298 24.8975 35.5634 24.5526C35.3435 24.3895 35.2036 24.3152 35.2036 24.3152C34.1938 23.695 34.0457 23.4892 34.1402 21.8047C34.1738 21.198 34.239 20.4006 34.3061 19.3198C34.3144 19.1848 34.3195 19.0496 34.3216 18.9144C34.3223 18.8829 34.3229 18.8524 34.3229 18.8215C34.3241 18.701 34.3224 18.5804 34.3178 18.4599L34.3166 18.4265L34.3139 18.3908C34.3067 18.2638 34.2967 18.137 34.284 18.0104C34.2745 17.9205 34.2625 17.8308 34.2481 17.7415C34.2411 17.6972 34.2324 17.6546 34.2244 17.6115C34.2155 17.5639 34.2059 17.5165 34.1956 17.4692C34.1861 17.4237 34.1758 17.3785 34.1647 17.3334L34.1642 17.333L34.1647 17.3326V17.333C34.1511 17.2788 34.1354 17.2272 34.1205 17.1759C34.115 17.157 34.1107 17.1374 34.1046 17.1194C34.099 17.1019 34.0929 17.0861 34.0875 17.0686L34.0817 17.0515L34.0646 17.0021L34.0641 16.9989C34.05 16.959 34.0353 16.9202 34.021 16.8826L34.0165 16.87L34.002 16.8341L33.9843 16.79L33.9803 16.7816V16.7805C33.9499 16.7091 33.9184 16.6398 33.8847 16.5749L33.858 16.5269C33.8208 16.4653 33.7816 16.4049 33.7404 16.3459L33.7244 16.3216L33.7044 16.295C33.6756 16.2553 33.6467 16.2165 33.6179 16.1802L33.5784 16.1301C33.5407 16.0848 33.502 16.0405 33.4621 15.9972V15.9968L33.4613 15.9902L33.4602 15.9822L33.4579 15.9708L33.455 15.9547L33.4526 15.9387L33.4475 15.9129L33.4451 15.897L33.4381 15.8607L33.4352 15.8478C33.4174 15.759 33.3978 15.6706 33.3762 15.5827L33.3746 15.575C33.3679 15.5493 33.3612 15.5223 33.3541 15.4945L33.3511 15.484C33.3434 15.4543 33.3354 15.4245 33.3271 15.3949L33.3261 15.393C33.3048 15.3165 33.282 15.2405 33.2579 15.1649C33.25 15.1391 33.2406 15.1119 33.2312 15.0851C33.2126 15.0281 33.1931 14.9715 33.1727 14.9152C33.1605 14.8818 33.1472 14.8487 33.1343 14.8144C33.1134 14.7594 33.0914 14.7049 33.0683 14.6508C33.0534 14.6143 33.0366 14.5783 33.0207 14.5415C32.9788 14.4483 32.9345 14.3563 32.8878 14.2656C32.8582 14.2096 32.8275 14.1542 32.7955 14.0996C32.7747 14.0644 32.7544 14.0288 32.7334 13.9935C32.6966 13.9342 32.6569 13.8762 32.6168 13.8182C32.5966 13.7896 32.5777 13.7597 32.5566 13.731C32.538 13.7061 32.517 13.683 32.4977 13.6588C32.4515 13.5994 32.4061 13.5399 32.3556 13.484L32.3495 13.4779L32.3209 13.4504C32.256 13.38 32.1878 13.3115 32.1144 13.2486L32.1013 13.2373C32.0691 13.2095 32.0353 13.183 32.0017 13.1571L31.9982 13.1542L31.986 13.1454C31.9568 13.1232 31.9267 13.1021 31.8963 13.0814L31.8803 13.0701L31.8867 13.0754C31.8547 13.0515 31.7964 13.0205 31.7198 12.9861C31.6932 12.9745 31.6639 12.9617 31.6325 12.949C31.4749 12.8852 31.2619 12.813 31.0096 12.7453C30.9939 12.7408 30.9772 12.7369 30.9618 12.733C30.6517 12.6518 30.3367 12.5912 30.0187 12.5515C29.9783 12.5463 29.9369 12.5442 29.8962 12.5398C29.8799 12.5382 29.863 12.5369 29.8465 12.5352C29.6506 12.5148 29.4538 12.5048 29.2569 12.5053L29.2452 12.5058C28.9899 12.5082 28.7343 12.5295 28.4906 12.5781C28.5479 12.4823 28.7028 12.3764 28.8581 12.2879C29.0516 12.1776 29.2457 12.0954 29.2457 12.0954C29.135 12.1038 29.0215 12.1196 28.9084 12.138C28.872 12.1441 28.8352 12.1491 28.7985 12.1559C28.7745 12.1603 28.751 12.1651 28.7274 12.1695L28.7066 12.1739C28.6866 12.1779 28.6674 12.1821 28.6477 12.1863C28.0785 12.3086 27.5308 12.5153 27.2262 12.6406C27.1829 12.6584 27.1451 12.6745 27.1118 12.6886L27.0926 12.6967C27.0622 12.7004 27.0313 12.7051 27.0008 12.7088L27.0016 12.7078C27.2262 12.289 27.5575 12.0634 27.8099 11.9442C27.854 11.9234 27.8961 11.9046 27.9342 11.8901C27.9486 11.8844 27.9605 11.8809 27.9731 11.876C28.0096 11.8631 28.0407 11.8529 28.0676 11.845C28.1272 11.8276 28.1659 11.8198 28.1659 11.8198C28.1387 11.8205 28.1136 11.824 28.0871 11.8255C28.0647 11.8271 28.0425 11.829 28.0204 11.8308C27.9875 11.8332 27.9542 11.835 27.9219 11.8381C27.9025 11.84 27.8821 11.8405 27.8626 11.8424C27.2334 11.9112 26.6738 12.1264 26.1942 12.3937C25.8861 12.5657 25.5943 12.7658 25.3225 12.9916C25.2563 13.0055 25.1887 13.0197 25.1202 13.0344C24.4322 13.1825 23.6462 13.3732 22.8198 13.6291C22.5076 13.7256 22.1976 13.8293 21.8901 13.9402C21.4624 14.096 21.0404 14.2671 20.6248 14.4533C19.3559 15.0245 18.1056 15.7828 17.0551 16.8004C17.0173 16.837 16.9775 16.8714 16.9404 16.9087C16.8493 17.0014 16.7601 17.096 16.6729 17.1924C16.6369 17.2314 16.5991 17.2683 16.5637 17.308C16.5194 17.3574 16.4784 17.4107 16.4351 17.4614C16.2367 17.6922 16.0503 17.9332 15.8767 18.1834C15.7458 18.3733 15.6227 18.5686 15.5077 18.7687L15.4934 18.7926C15.2465 19.2254 15.0374 19.679 14.8685 20.1484C14.7558 20.4616 14.6602 20.7809 14.5822 21.1047L14.5729 21.1408C14.5057 21.4285 14.4514 21.7191 14.4103 22.0117C14.4022 22.0707 14.3929 22.129 14.385 22.1889C14.3665 22.3385 14.3519 22.4909 14.3394 22.6455C14.3279 22.7885 14.319 22.9318 14.3128 23.0751L14.3114 23.1087C14.3086 23.1798 14.3046 23.2502 14.3032 23.3224C14.3016 23.4046 14.3022 23.4884 14.3022 23.5722C14.3019 23.5916 14.3019 23.611 14.3018 23.6309C14.302 23.7966 14.3055 23.9623 14.3122 24.1278L14.3139 24.1547C14.3211 24.322 14.3328 24.4927 14.3472 24.665C14.3533 24.7364 14.3593 24.8081 14.3665 24.8807C14.3682 24.8981 14.3693 24.9159 14.3709 24.9338C14.3751 24.974 14.3799 25.0146 14.3844 25.0548C14.4054 25.2452 14.4308 25.439 14.4605 25.6356C14.4683 25.6902 14.4757 25.7446 14.4845 25.7995C14.5117 25.9715 14.5413 26.1448 14.5751 26.3212C14.5751 26.3212 14.5445 26.0951 14.5636 25.7624C14.5684 25.6856 14.5755 25.6039 14.5857 25.5167C14.6092 25.3277 14.6493 25.1194 14.7175 24.9042C14.7343 24.8517 14.7532 24.7988 14.7736 24.7455C14.7819 24.7222 14.7921 24.6994 14.8014 24.676C14.8418 24.5777 14.8871 24.479 14.9419 24.3813C14.9542 24.4507 14.9675 24.52 14.9813 24.5901L14.9858 24.6127L14.9853 24.6444L14.9838 24.7833C14.9818 25.0426 14.9848 25.3019 14.9928 25.5611C15.0117 26.1871 15.0652 26.9427 15.1994 27.5865C15.1994 27.5865 15.2245 26.4158 15.421 26.2834C15.421 26.2834 15.7646 28.4512 16.0834 29.2696C16.1247 29.3755 16.1659 29.4602 16.2056 29.513L16.1975 29.298L16.152 28.0931C16.152 28.0931 16.1541 28.0481 16.1584 27.9693C16.4104 28.4877 16.6833 28.9955 16.9764 29.4915C17.0618 29.6357 17.1487 29.7806 17.2391 29.9271C16.6484 30.4509 16.1023 31.1921 15.7103 32.0784C15.6478 32.2201 15.5889 32.3653 15.5346 32.5139C15.4389 32.7785 15.3585 33.0486 15.2937 33.3226C15.2867 33.352 15.2793 33.3814 15.2731 33.4111C15.2529 33.5014 15.2338 33.592 15.217 33.684L15.2157 33.6926C15.1992 33.7847 15.1847 33.8778 15.1717 33.9715C15.1675 34.0017 15.1637 34.0322 15.1603 34.0623C15.1517 34.1292 15.1443 34.1963 15.1379 34.2637C15.1342 34.2979 15.1315 34.332 15.1285 34.3666C15.1228 34.4344 15.1185 34.5032 15.115 34.5717C15.1076 34.7023 15.104 34.8331 15.1043 34.9639L15.1046 34.9768C15.1046 35.054 15.1068 35.131 15.1097 35.2087C15.1129 35.287 15.1176 35.3654 15.1232 35.4443L15.1252 35.476L15.1264 35.4957C15.1337 35.5915 15.144 35.6873 15.1555 35.784C15.1592 35.8147 15.1645 35.8452 15.1685 35.8761C15.1775 35.942 15.1863 36.0082 15.1976 36.0749C15.2034 36.1116 15.2106 36.1492 15.2169 36.1859C15.2284 36.2469 15.2394 36.3076 15.2524 36.3688C15.2607 36.4081 15.2697 36.4473 15.278 36.4867C15.3147 36.648 15.3567 36.808 15.4039 36.9664C15.4156 37.0058 15.4275 37.0457 15.4399 37.0853C15.4598 37.1477 15.4811 37.2105 15.5024 37.2727C15.5155 37.3101 15.5279 37.3476 15.5415 37.3851C15.5666 37.4542 15.5935 37.5233 15.6212 37.5926C15.6336 37.6236 15.6448 37.6545 15.6577 37.6857C15.7425 37.8908 15.8357 38.0924 15.937 38.2897C15.9527 38.3193 15.9696 38.3495 15.9849 38.3795C16.0224 38.4501 16.0607 38.5208 16.1004 38.5916C16.1215 38.6284 16.1435 38.6652 16.1656 38.7025C16.2031 38.7662 16.2409 38.8303 16.2809 38.8941C16.3052 38.9335 16.3309 38.9732 16.3562 39.0128C16.4229 39.116 16.4916 39.2179 16.5621 39.3185C16.6047 39.3796 16.6489 39.4406 16.6946 39.5014C16.724 39.5414 16.7533 39.5815 16.7838 39.6215C16.8318 39.684 16.8808 39.7464 16.9314 39.8086C16.9615 39.8467 16.9916 39.8848 17.0227 39.9226C17.0791 39.9904 17.1377 40.0586 17.1969 40.1261C17.2248 40.1581 17.2511 40.1901 17.2794 40.2219C17.3683 40.3214 17.4593 40.4205 17.5544 40.5195L17.5541 40.5189C17.5534 40.5181 17.4987 40.4383 17.424 40.2986L17.4213 40.2941C17.4075 40.2681 17.393 40.2392 17.3781 40.2088L17.3733 40.2004C17.3568 40.1667 17.3408 40.1328 17.3252 40.0986L17.3219 40.0925C17.3037 40.0524 17.2862 40.012 17.2693 39.9714C17.1294 39.6319 16.9932 39.1606 17.0109 38.635C17.065 38.7082 17.1202 38.7788 17.175 38.8506C17.2842 39.0741 17.3972 39.2956 17.514 39.5151C17.6651 39.7972 17.8237 40.0751 17.9898 40.3485C18.2011 40.6933 18.4331 41.0386 18.6729 41.3365L18.6724 41.3361C18.6713 41.3342 18.3934 40.7491 18.3004 40.3651C18.2743 40.2572 18.2619 40.1645 18.2754 40.1062L18.3427 40.176C18.3649 40.1994 18.3875 40.2222 18.4099 40.2456C18.4543 40.3051 18.5103 40.38 18.573 40.463L18.6047 40.505C18.6357 40.5462 18.6678 40.589 18.7024 40.6344L18.7043 40.637L18.8292 40.8001C19.2203 41.3071 19.7404 41.9549 20.1115 42.3109C20.2353 42.4296 20.3423 42.516 20.4225 42.5533L19.8871 41.586C21.0988 42.5804 26.0987 43.8572 31.0244 42.432C31.6289 42.2581 32.2214 42.0442 32.7979 41.7916C33.155 41.6363 33.5053 41.4656 33.8479 41.2801L33.8982 41.2518C34.1429 41.1165 34.3835 40.9736 34.6197 40.8233L34.6249 40.8201C35.1139 40.5096 35.5822 40.1671 36.0269 39.795L36.0277 39.7947L36.0288 39.7937C36.0451 39.7792 36.062 39.765 36.0791 39.7504C36.3538 39.5086 36.6173 39.2541 36.8686 38.9878C37.1802 38.6566 37.4728 38.3078 37.745 37.9429L37.7642 37.9177C37.8284 37.831 37.8914 37.7449 37.9524 37.6593L37.9697 37.6343C37.9895 37.6051 38.0071 37.5771 38.0268 37.5482C38.1113 37.4266 38.1938 37.3036 38.2743 37.1793L38.3313 37.0905C38.3721 37.0257 38.4114 36.9608 38.4506 36.8967C38.4802 36.8464 38.5107 36.7962 38.5393 36.7465C38.5713 36.6922 38.6034 36.6379 38.6346 36.584C38.6891 36.4873 38.7425 36.3901 38.7949 36.2923C38.8153 36.254 38.8345 36.2167 38.8542 36.1789C38.8936 36.1036 38.932 36.0293 38.9685 35.9559C38.9855 35.9215 39.0026 35.8872 39.0191 35.8531L39.034 35.8208C39.0798 35.7281 39.1234 35.6359 39.1655 35.5453L39.1735 35.5259C39.3321 35.3768 39.4552 35.235 39.554 35.0994C39.5684 35.08 39.5833 35.0606 39.5965 35.0414C39.816 34.7219 39.8879 34.4391 39.8919 34.1854" fill="#856249"/>
<path d="M10.4675 30.5942C10.463 30.5716 10.4591 30.5492 10.4553 30.5269L10.4591 30.5253C10.401 30.1995 10.3568 29.8714 10.3265 29.5418C10.3246 29.5179 10.3213 29.4948 10.3187 29.4711C10.2639 29.4884 10.2021 29.5615 10.14 29.6615C10.1157 29.7012 10.0927 29.7417 10.0711 29.783C9.90455 30.0984 9.75465 30.5356 9.75465 30.5356C9.76634 30.3896 9.78236 30.2381 9.79997 30.0858C9.80205 30.068 9.80462 30.0508 9.80686 30.0328C9.82528 29.8778 9.84674 29.7214 9.86948 29.5661C9.87204 29.5472 9.87508 29.5286 9.8778 29.5102C9.90439 29.3349 9.93258 29.1608 9.96188 28.9929L9.97309 28.9282L9.97534 28.9171L9.98559 28.8586C10.0134 28.7016 10.0428 28.5448 10.0737 28.3883C10.0953 28.278 10.1164 28.1735 10.1366 28.0753L10.143 28.0436C10.1461 28.0281 10.1494 28.0141 10.1523 27.9994C10.1555 27.985 10.1584 27.9702 10.1613 27.9551L10.1624 27.95C10.1677 27.9254 10.1733 27.9002 10.1781 27.877L10.1797 27.8705C10.1842 27.8474 10.1887 27.8279 10.1931 27.8064C10.2007 27.7725 10.2077 27.7379 10.2148 27.7062L10.2167 27.6975C10.2224 27.6718 10.2277 27.6458 10.233 27.6224C10.2407 27.5888 10.2478 27.5578 10.2538 27.5284L10.2542 27.5276L10.2546 27.5268C10.2582 27.51 10.2617 27.4955 10.2652 27.48L10.2658 27.4772C10.2692 27.4632 10.2723 27.4485 10.2753 27.436L10.2939 27.3554L10.2985 27.3364L10.3003 27.3293L10.3056 27.3067L10.3092 27.291L10.31 27.2887L10.3075 27.2908L10.2739 27.3215C10.2442 27.3482 10.2138 27.3742 10.1861 27.4036L10.1555 27.4375C10.1222 27.4748 10.0907 27.5138 10.0613 27.5543L10.0456 27.5741C10.0088 27.6258 9.9747 27.6801 9.94218 27.7352V27.7353L9.93786 27.7426V27.7429L9.92457 27.7675C9.91704 27.7809 9.90999 27.7948 9.90279 27.8083C9.88405 27.8429 9.86451 27.8765 9.8477 27.9112L9.8469 27.9125L9.84625 27.9136L9.84545 27.9165L9.83889 27.9296L9.8328 27.9429C9.80712 27.9968 9.78283 28.0514 9.75993 28.1066C9.6872 28.2816 9.62568 28.4611 9.57576 28.644C9.5543 28.722 9.53925 28.7831 9.53252 28.8129L9.5322 28.8155L9.5274 28.8355V28.8352V28.8355L9.52932 28.8121C9.53188 28.7658 9.53717 28.7196 9.54085 28.6735C9.5479 28.5766 9.55398 28.4792 9.56455 28.3828C9.57304 28.3017 9.58537 28.2224 9.59674 28.142L9.60795 28.0667C9.61276 28.0296 9.61788 27.9924 9.62397 27.9556C9.62925 27.9212 9.63678 27.8873 9.64319 27.8535L9.64351 27.851V27.8508L9.65071 27.813L9.65279 27.8027C9.66318 27.745 9.67391 27.6874 9.68498 27.6299L9.69075 27.6013L9.69187 27.5959L9.70036 27.5554C9.70356 27.5384 9.70837 27.522 9.71173 27.506C9.72534 27.4452 9.73992 27.3858 9.75401 27.3259L9.75641 27.3159C9.76682 27.2713 9.77643 27.2264 9.7878 27.1825L9.78812 27.1805L9.78924 27.1776L9.79277 27.1647C9.81599 27.0743 9.84177 26.9859 9.86756 26.8969L9.88101 26.8478C9.88597 26.8315 9.89014 26.8141 9.89542 26.7976C9.93786 26.6532 9.9835 26.5106 10.0319 26.3712L10.0381 26.3537C10.0798 26.2354 10.1217 26.1187 10.1658 26.0039L10.1706 25.9908C10.1906 25.9403 10.2111 25.8918 10.2306 25.8418L10.2338 25.8345C10.2639 25.76 10.2936 25.6851 10.3243 25.6131V25.6119L10.3249 25.611L10.3285 25.6019C10.3366 25.5838 10.3557 25.5401 10.3853 25.4754L10.3858 25.4743L10.3898 25.4656C10.4013 25.4401 10.4122 25.4154 10.4234 25.3895L10.4779 25.2674L10.4941 25.232L10.4945 25.2304L10.8065 24.6648C10.8195 24.6409 10.8323 24.6173 10.8448 24.5934L10.8514 24.5821L10.8674 24.5531C10.9013 24.4902 10.9354 24.4271 10.9687 24.366L11.1118 24.1061C11.2034 23.9398 11.2818 23.7988 11.3296 23.7137C11.3459 23.6845 11.3622 23.6552 11.3782 23.6258L11.3805 23.6216H11.3802L11.379 23.6206L11.3762 23.6184C11.364 23.6101 11.2693 23.5442 11.1134 23.449C10.771 23.2416 10.4138 23.0605 10.0445 22.9071C9.90689 22.8498 9.76743 22.7971 9.62637 22.7491C9.58889 22.7367 9.5495 22.7265 9.5117 22.7146C9.38999 22.6758 9.26507 22.6411 9.13727 22.6104L9.1299 22.6088C9.04214 22.5874 8.95502 22.5653 8.86502 22.5485C8.79455 22.5351 8.72376 22.5219 8.65186 22.5119C8.61759 22.507 8.58219 22.5043 8.54776 22.5012L8.4451 22.4907C8.3483 22.4824 8.25125 22.4772 8.15411 22.4752C8.10703 22.4741 8.05978 22.4726 8.0127 22.4736C7.8013 22.4784 7.59375 22.4973 7.38988 22.5266L7.35272 22.5324C6.99079 22.5867 6.63561 22.6796 6.29317 22.8097C6.17866 22.8533 6.0656 22.9001 5.95461 22.9515C5.92312 22.9664 5.89178 22.9816 5.86061 22.9972C5.82265 23.0158 5.78405 23.034 5.74658 23.0534C5.41349 23.2269 5.09997 23.4361 4.81146 23.6775L4.80121 23.6861C4.48259 23.9524 4.19672 24.2563 3.9497 24.5912C3.88443 24.6789 3.82183 24.7686 3.762 24.8602C3.64914 25.0344 3.54657 25.2151 3.45483 25.4015C3.42248 25.4672 3.39077 25.5333 3.36115 25.6005C3.35554 25.6131 3.35058 25.6263 3.34529 25.6391C3.1525 26.0836 3.02191 26.5529 2.95725 27.0337C2.94411 27.1301 2.93358 27.2269 2.9257 27.3239L2.92298 27.3605C2.9104 27.5339 2.90612 27.7078 2.91016 27.8817C2.91032 27.8973 2.91177 27.912 2.91225 27.9274C2.91465 28.0023 2.91753 28.0769 2.92298 28.1512L2.92714 28.1903L2.93178 28.2417C2.93659 28.3005 2.94219 28.3588 2.94892 28.4161L2.95132 28.4293V28.4331L2.95164 28.4337C2.95565 28.4626 2.96061 28.4918 2.96462 28.5209C2.97214 28.5731 2.97935 28.6256 2.98784 28.6773C2.99472 28.7149 3.00289 28.7517 3.0101 28.789C3.01971 28.8372 3.02819 28.8859 3.03925 28.9337C3.04805 28.9732 3.05846 29.0118 3.06807 29.05L3.07448 29.0772L3.08505 29.1175L3.0929 29.1482L3.1025 29.1855C3.11355 29.2256 3.12653 29.2656 3.13822 29.3054C3.15103 29.3474 3.16336 29.3903 3.17713 29.4315C3.19027 29.4725 3.20532 29.5128 3.21989 29.5533L3.23175 29.5856C3.24167 29.6147 3.25176 29.6441 3.26329 29.6728C3.27899 29.7138 3.29629 29.7547 3.3131 29.7957C3.32864 29.8329 3.34385 29.8707 3.36003 29.9077C3.36931 29.9288 3.37924 29.9497 3.38885 29.9698C3.39894 29.9904 3.40791 30.0112 3.41736 30.0315C3.45345 30.1095 3.49207 30.1863 3.53315 30.2617C3.55076 30.2943 3.56742 30.3269 3.5852 30.3592C3.6089 30.4017 3.6342 30.4436 3.65935 30.4857C3.67696 30.5151 3.69426 30.545 3.71251 30.5749C3.73926 30.6177 3.76697 30.659 3.79515 30.7008C3.81325 30.7288 3.83135 30.7562 3.84976 30.7832C3.87939 30.8257 3.91014 30.8678 3.94105 30.91C3.99079 30.9788 4.04271 31.046 4.09671 31.1114C4.11433 31.1337 4.13195 31.1561 4.15101 31.1779C4.18656 31.2207 4.22355 31.2626 4.26103 31.3044C4.27832 31.3241 4.29594 31.3437 4.3142 31.3635C4.35295 31.4062 4.39299 31.4482 4.43383 31.4887C4.45145 31.506 4.46794 31.5237 4.48556 31.541C4.54418 31.5984 4.60382 31.6547 4.66445 31.71C4.71025 31.7508 4.75685 31.7912 4.80442 31.8309C4.82011 31.8439 4.83517 31.8573 4.85086 31.87C4.90019 31.9107 4.95047 31.9497 5.00108 31.9886C5.01549 31.9991 5.03055 32.0107 5.04464 32.0215C5.09765 32.0605 5.15082 32.0984 5.20495 32.1357L5.24515 32.1633C5.3012 32.2011 5.35805 32.2383 5.41539 32.2736L5.45206 32.2959C5.51132 32.3326 5.57218 32.3667 5.63319 32.4009L5.66458 32.4187C5.72784 32.4532 5.7919 32.4859 5.85612 32.5179L5.88367 32.5311C5.94997 32.5634 6.01675 32.5941 6.08465 32.6238L6.10868 32.6343C6.17802 32.6635 6.24801 32.6915 6.31847 32.7186L6.33817 32.7257C6.41104 32.7525 6.48359 32.778 6.55774 32.8021L6.57279 32.807C6.60883 32.8183 6.64582 32.828 6.68217 32.8388C6.72173 32.8504 6.76129 32.863 6.80133 32.8738L6.81254 32.8771C6.89101 32.8976 6.96996 32.9165 7.04956 32.9336L7.05644 32.9355C7.05676 32.9357 7.05757 32.9357 7.05773 32.936C7.13812 32.9531 7.21948 32.9686 7.30147 32.9816L7.30516 32.9828C7.56017 33.0242 7.81785 33.0465 8.07612 33.0496C8.13842 33.0507 8.20072 33.0513 8.26333 33.0507C8.46909 33.0439 8.67427 33.0249 8.87783 32.9938C9.14853 32.9524 9.41623 32.893 9.67922 32.8162C10.1493 32.6786 10.5645 32.4948 10.8128 32.3081C10.8128 32.3081 10.6494 31.5787 10.5114 30.8376C10.4964 30.7566 10.4818 30.6754 10.4675 30.5942Z" fill="#856249"/>
<path d="M31.8804 13.0697L31.8813 13.0701L31.8789 13.0684L31.8804 13.0697Z" fill="#856249"/>
<path d="M22.2023 3.19439L22.1426 2.45563L22.5093 1.63676L22.6543 1.60398C22.414 1.49156 22.1287 1.41129 21.7983 1.36978C21.1365 1.2858 20.2964 1.363 19.3393 1.61254C18.3821 1.8603 17.3089 2.277 16.1708 2.84875C13.8942 3.99096 11.3599 5.75193 8.92109 7.99565C8.0951 8.75442 7.30296 9.54984 6.54703 10.3796C5.86612 11.1253 5.2195 11.9022 4.60922 12.7078C3.42843 14.2707 2.52342 15.7909 1.94544 17.1468C1.55948 18.0503 1.3207 18.8804 1.23342 19.5909C1.16904 20.1074 1.18585 20.5592 1.27169 20.9324C1.2994 21.0531 1.33623 21.1629 1.37771 21.2677C1.46403 21.4884 1.57742 21.6785 1.72379 21.8411L3.19926 23.4002L3.35748 23.567L3.36789 23.5557C3.41274 23.5032 3.45902 23.4507 3.50562 23.3995L3.51827 23.386C3.53525 23.3674 3.55287 23.3501 3.57 23.3325C3.6142 23.2857 3.65905 23.2392 3.70469 23.1936C3.73304 23.1653 3.7617 23.1382 3.79069 23.1108C3.81872 23.0841 3.8461 23.0563 3.87461 23.03C3.88742 23.0182 3.90071 23.0074 3.91384 22.9956C3.94379 22.9681 3.97486 22.9412 4.00593 22.914C4.07448 22.854 4.14438 22.7955 4.21557 22.7386L4.2271 22.7296C4.30342 22.6695 4.38084 22.6108 4.45931 22.5535C4.50848 22.5183 4.55861 22.4833 4.60922 22.449C4.63964 22.4285 4.66959 22.408 4.70018 22.388C4.75191 22.3541 4.80476 22.3211 4.85761 22.2887C4.88852 22.2698 4.91846 22.251 4.94905 22.2331C5.00447 22.2003 5.06068 22.1693 5.11657 22.1383C5.14652 22.1221 5.17599 22.1052 5.20593 22.0892L5.23957 22.0714L5.24165 22.0653C5.59494 21.0789 6.12407 20.0083 6.81 18.8927C7.6527 17.5224 8.72939 16.0853 10.0079 14.654C10.844 13.7193 11.7249 12.8265 12.6476 11.9787C13.8808 10.8452 15.1376 9.83382 16.3775 8.95762C17.1749 8.39251 17.9986 7.86613 18.8457 7.38029C18.9223 7.33668 18.999 7.2913 19.0751 7.24898C19.2866 7.13111 19.4998 7.01648 19.7147 6.90512C20.1588 6.6726 20.6107 6.45556 21.0696 6.25439L20.8532 5.99242L20.8173 5.9493L19.0256 3.77615L19.0394 2.45224L19.0225 2.43302L20.0994 2.10919L22.2023 3.19455" fill="#3478AD"/>
<path d="M39.8921 34.1855L39.8928 34.1852C39.8928 34.1852 39.9299 33.9045 39.7828 33.6533L39.7796 33.6464C39.7711 33.632 39.762 33.6179 39.7523 33.6044L39.7427 33.5898C39.7255 33.5673 39.7069 33.5459 39.687 33.5257C39.6488 33.4852 39.6058 33.4496 39.5589 33.4198C39.5317 33.4019 39.5034 33.3858 39.4742 33.3715C39.3907 33.3313 39.2906 33.3007 39.1718 33.2831C39.0743 33.2703 38.9758 33.266 38.8776 33.2702C38.8339 33.2715 38.7908 33.2725 38.7435 33.277L38.7222 33.2783L38.7301 33.3072L38.7511 33.3867L38.7618 33.4303C38.7772 33.4923 38.7958 33.5713 38.8147 33.6604C38.809 33.6777 38.8025 33.6946 38.7951 33.7111L38.7879 33.7284C38.7338 33.8554 38.5866 34.1483 38.2588 34.5295C38.2029 34.5941 38.1411 34.662 38.0748 34.7317C37.1603 35.6846 35.1809 37.0417 31.017 37.8008C29.604 38.0019 28.3011 38.0128 27.1884 37.8733C25.543 37.6669 24.3102 37.1368 23.7367 36.4239C23.6871 36.3627 23.6414 36.2995 23.598 36.236C23.5661 36.1894 23.5357 36.1418 23.5067 36.0933C23.4965 36.0755 23.487 36.0576 23.4771 36.04C23.2416 35.6184 23.1216 35.1412 23.1293 34.6574C23.1373 34.0941 23.3113 33.5551 23.6063 33.1408C23.8456 32.8049 24.1637 32.551 24.5359 32.4337C24.7241 32.3744 24.9216 32.3509 25.1183 32.3646C25.1596 32.3675 25.2144 32.3733 25.2826 32.3819C25.4194 32.3992 25.6105 32.4263 25.8448 32.4567L25.9229 32.4667C26.7044 32.5646 27.9488 32.6831 29.4536 32.5904C32.1915 32.4223 35.795 31.5535 39.0672 28.5776L39.0762 28.566V28.5608C39.0871 28.3116 39.0541 27.8615 38.7418 27.5113C38.6843 27.4473 38.6204 27.3894 38.5512 27.3385C38.5089 27.3068 38.4647 27.2777 38.4189 27.2513C38.3709 27.2245 38.3268 27.1974 38.2844 27.1701C38.2294 27.1357 38.1757 27.0991 38.1235 27.0606L38.1162 27.0501C38.0941 27.0152 38.0706 26.9813 38.048 26.9464C37.1992 25.6499 36.03 24.8974 35.5636 24.5526C35.3437 24.3895 35.2038 24.3152 35.2038 24.3152C34.194 23.695 34.0459 23.4892 34.1404 21.8046C34.174 21.198 34.2392 20.4006 34.3063 19.3198C34.3146 19.1848 34.3197 19.0496 34.3218 18.9144C34.3225 18.8829 34.3231 18.8524 34.3231 18.8215C34.3243 18.7009 34.3226 18.5804 34.318 18.4599L34.3168 18.4264L34.3141 18.3907C34.3069 18.2638 34.2969 18.1369 34.2842 18.0104C34.2747 17.9204 34.2627 17.8308 34.2483 17.7415C34.2413 17.6972 34.2326 17.6546 34.2246 17.6115C34.2157 17.5639 34.2061 17.5164 34.1958 17.4692C34.1863 17.4237 34.176 17.3784 34.1649 17.3333L34.1644 17.333L34.1649 17.3325V17.333C34.1513 17.2787 34.1356 17.2272 34.1207 17.1759C34.1152 17.157 34.1109 17.1374 34.1048 17.1193C34.0992 17.1019 34.0931 17.0861 34.0877 17.0686L34.0819 17.0515L34.0648 17.0021L34.0643 16.9988C34.0502 16.9589 34.0355 16.9202 34.0212 16.8826L34.0167 16.87L34.0022 16.8341L33.9845 16.79L33.9805 16.7816V16.7805C33.9501 16.7091 33.9186 16.6398 33.8849 16.5749L33.8582 16.5269C33.821 16.4653 33.7818 16.4049 33.7406 16.3458L33.7246 16.3216L33.7046 16.295C33.6758 16.2552 33.6469 16.2165 33.6181 16.1801L33.5786 16.1301C33.5409 16.0848 33.5022 16.0404 33.4623 15.9971V15.9968C33.4144 15.9461 33.3667 15.8981 33.3182 15.8539C33.2624 15.819 33.2078 15.7877 33.1527 15.76C33.1349 15.7507 33.1168 15.7436 33.0984 15.7355C33.0627 15.7183 33.0263 15.7026 32.9894 15.6883C32.9681 15.6803 32.9474 15.6738 32.9264 15.6665C32.8939 15.6557 32.861 15.6457 32.8279 15.6366C32.8063 15.6314 32.7846 15.6266 32.7628 15.6223C32.7099 15.6107 32.6563 15.6025 32.6024 15.5977C32.5711 15.5945 32.5393 15.5932 32.508 15.5919C32.4865 15.5913 32.4654 15.5908 32.4447 15.5913C32.4124 15.5919 32.3801 15.5935 32.348 15.5961C32.3283 15.5977 32.3082 15.5993 32.2887 15.6014L32.2455 15.6079C32.2258 15.6115 32.2061 15.6136 32.1857 15.6176C32.1686 15.6205 32.1511 15.6234 32.134 15.627C32.094 15.6354 32.0542 15.6457 32.0149 15.6572L31.9801 15.6662C31.876 15.6975 31.7719 15.7378 31.6691 15.7849L31.6347 15.8014C31.5946 15.82 31.5546 15.8395 31.5144 15.8602L31.4683 15.8852C31.4319 15.9043 31.3956 15.9245 31.3595 15.945L31.3102 15.974C31.2745 15.995 31.2386 16.0164 31.2029 16.0387L31.1544 16.0689C31.1172 16.0923 31.0797 16.1165 31.0423 16.141L31.0009 16.1683C30.9588 16.1961 30.9164 16.2246 30.8741 16.2535L30.8488 16.2706C30.8014 16.3032 30.753 16.3368 30.7047 16.3704L30.7031 16.3718L30.6957 16.3764H30.6962C30.6062 16.4387 30.5165 16.5025 30.4255 16.5661C30.3496 16.6196 30.2719 16.6731 30.1941 16.7262L30.1566 16.7522C30.0782 16.8053 29.9989 16.8572 29.9193 16.9089L29.8793 16.9341C29.7992 16.9841 29.7189 17.0331 29.6379 17.0794L29.5953 17.1033C29.514 17.1493 29.4314 17.193 29.3476 17.2342L29.3059 17.2539C29.2214 17.2942 29.1352 17.3322 29.0479 17.3653L29.0119 17.3792C28.9219 17.4129 28.8304 17.4424 28.7377 17.4675L28.7134 17.4732C28.6152 17.4987 28.517 17.5191 28.416 17.533C28.2472 17.5545 28.0772 17.565 27.907 17.5643C27.6276 17.5646 27.3485 17.5434 27.0723 17.501C26.9785 17.4865 26.885 17.4705 26.7917 17.453C26.7584 17.4465 26.7253 17.4415 26.6924 17.4351C26.449 17.3873 26.204 17.3303 25.9573 17.2703C25.8536 17.2455 25.7501 17.2203 25.646 17.1948C25.479 17.1537 25.3102 17.114 25.1412 17.0752C25.1077 17.0673 25.0756 17.0589 25.0416 17.0515L25.0432 17.0513L24.9716 17.0361C24.9341 17.0279 24.8967 17.0198 24.8595 17.0113L24.7521 16.9898L24.7333 16.9859L24.7208 16.9835L24.6222 16.9638C24.5456 16.9493 24.4684 16.9354 24.3912 16.9224C24.3683 16.9184 24.3453 16.9155 24.3227 16.9119C24.2656 16.9028 24.2083 16.8942 24.151 16.8863C24.1222 16.8821 24.0927 16.8793 24.0642 16.8758L24.0578 16.8751C24.0079 16.8686 23.9578 16.8628 23.9077 16.8577C23.8746 16.8544 23.841 16.8517 23.8081 16.8485C23.7932 16.8473 23.7782 16.8465 23.7628 16.8452C23.7289 16.8427 23.6943 16.8397 23.6598 16.8378C23.5748 16.8319 23.4895 16.8286 23.4042 16.8278C23.3885 16.8278 23.3728 16.8275 23.3572 16.8272C23.3427 16.827 23.3278 16.8263 23.3133 16.8263C23.2479 16.8265 23.1824 16.828 23.1171 16.8309C23.1001 16.8314 23.0822 16.8312 23.0647 16.8325C22.9808 16.8362 22.8971 16.8425 22.8136 16.8514C22.7918 16.8536 22.77 16.857 22.7479 16.8591C22.6935 16.8656 22.639 16.873 22.5846 16.8814L22.5601 16.885C22.5303 16.8895 22.5 16.8951 22.4704 16.9005C22.4143 16.9108 22.3589 16.9216 22.3029 16.9339C22.2705 16.9412 22.2383 16.9483 22.2062 16.9565C22.1509 16.9698 22.0952 16.9848 22.0394 17.0006C21.9463 17.0261 21.8543 17.0556 21.7637 17.089C21.7363 17.0987 21.709 17.1072 21.6817 17.118C21.5923 17.1511 21.5041 17.1872 21.4171 17.2262C20.7232 17.6292 20.1271 18.1792 19.6532 18.8205C19.4953 19.0343 19.351 19.258 19.2211 19.4902C19.0843 19.7358 18.964 19.9903 18.8608 20.252C18.7794 20.4565 18.7086 20.6651 18.6487 20.8771C18.6449 20.8911 18.6417 20.9057 18.6379 20.92C18.5546 21.2263 18.4957 21.5387 18.4617 21.8544C18.4521 21.9414 18.4434 22.0283 18.4377 22.1155C18.4234 22.3502 18.4237 22.5855 18.4385 22.8201C18.4393 22.8412 18.4412 22.8629 18.4426 22.8839C18.4466 22.9439 18.4487 23.0034 18.4551 23.0636C18.4723 23.2306 18.4958 23.3978 18.5291 23.5635C18.5408 23.6249 18.5573 23.6824 18.5719 23.7415C18.5856 23.798 18.598 23.8562 18.613 23.9112V23.9109C18.7241 24.3138 18.886 24.7006 19.0946 25.062C19.8507 26.3793 21.0938 27.1672 21.9944 27.5898C22.3521 27.7485 22.7179 27.8878 23.0903 28.0072C23.0903 28.0072 23.0724 28.0185 23.0447 28.0374C22.8141 28.0967 22.5857 28.1647 22.3602 28.2414C22.1524 28.3119 21.947 28.3895 21.7444 28.4739C21.1599 28.7182 20.4962 29.0656 19.9083 29.5454C19.8347 29.6052 19.7624 29.6672 19.6915 29.7312C19.5707 29.8408 19.4557 29.9574 19.3451 30.0797C19.3324 30.0936 19.319 30.1068 19.307 30.1209C19.2901 30.1396 19.2736 30.1592 19.2573 30.1782C19.2155 30.2275 19.174 30.2777 19.134 30.3291L19.086 30.3908C19.0331 30.4612 18.9814 30.5326 18.9327 30.6067C18.8846 30.6794 18.8387 30.7545 18.7951 30.8306C18.4466 31.444 18.249 32.1785 18.3097 33.0544L18.3115 33.0454L18.3126 33.0389L18.319 33.0063L18.3209 32.999C18.3235 32.9858 18.3273 32.97 18.3313 32.9528L18.3337 32.9419C18.3385 32.922 18.3441 32.899 18.3505 32.8742L18.3549 32.858L18.3786 32.7715H18.3791C18.3875 32.7408 18.3983 32.7077 18.409 32.6736L18.4159 32.6527C18.4273 32.618 18.4397 32.5817 18.4534 32.5444L18.4606 32.5264C18.4732 32.4909 18.4873 32.4547 18.5025 32.4173L18.5097 32.4C18.5262 32.3596 18.5445 32.3179 18.5634 32.2756L18.5756 32.2491C18.5959 32.2058 18.6166 32.1619 18.6396 32.1175V32.1173L18.6427 32.1122C18.6771 32.0458 18.7158 31.9781 18.7572 31.91C18.7727 31.8841 18.7876 31.8586 18.8049 31.8327L18.818 31.8111L18.8183 31.8106C18.8843 31.7104 18.9562 31.6143 19.0336 31.5228C19.0448 31.5096 19.0568 31.4963 19.0688 31.4829C19.0972 31.4506 19.1268 31.4183 19.1575 31.3867C19.1702 31.3741 19.1825 31.3608 19.1952 31.3484C19.2373 31.3069 19.2804 31.2663 19.3262 31.2271L19.33 31.2234V31.2235V31.2234C19.33 31.2234 18.5389 33.0281 18.8829 34.4593C18.8829 34.4593 18.8826 34.4549 18.8826 34.4473V34.4384C18.8822 34.4303 18.8822 34.4213 18.8822 34.409C18.8822 34.4068 18.8822 34.4039 18.8819 34.4013C18.8822 34.3867 18.8822 34.3696 18.8829 34.3493C18.8829 34.3467 18.8829 34.3444 18.8832 34.3414C18.8832 34.3204 18.8848 34.2966 18.8858 34.2703L18.8862 34.2627C18.8898 34.1964 18.8949 34.1302 18.9016 34.0642L18.9026 34.0555C18.9061 34.0195 18.9112 33.9822 18.9165 33.9429C18.9168 33.9395 18.9176 33.936 18.9181 33.9324C18.924 33.8909 18.9309 33.8478 18.9389 33.8034L18.9409 33.7929L18.945 33.7706V33.7696C18.9546 33.7195 18.9663 33.6685 18.9795 33.6168C18.9804 33.6136 18.9811 33.6099 18.9819 33.6065C18.9953 33.5559 19.0097 33.5047 19.0259 33.4534L19.041 33.4062L19.0518 33.3734V33.3728C19.0669 33.3306 19.0832 33.2883 19.101 33.2463L19.1037 33.2395L19.1039 33.2392C19.1358 33.1646 19.1724 33.0922 19.2134 33.0223C19.2463 32.9664 19.2807 32.9116 19.3198 32.8598L19.3214 32.8572V32.8575V32.8572H19.3215C19.3215 32.8572 19.2762 33.3017 19.2879 33.8305C19.2901 33.9137 19.294 33.9991 19.2991 34.0854C19.3025 34.1427 19.3062 34.2004 19.3114 34.2579C19.3115 34.2581 19.3116 34.2583 19.3116 34.2585C19.2884 34.6348 19.2949 35.0124 19.331 35.3876C19.3939 36.0379 19.5472 36.7258 19.817 37.45C19.817 37.45 19.5696 36.6172 19.9259 35.7843C19.9581 35.8602 19.9926 35.9364 20.0284 36.0133C20.0577 36.2604 20.1072 36.6112 20.1793 36.9976C20.2482 37.6414 20.5536 39.5724 21.8545 40.9307C21.8545 40.9307 21.3628 40.2873 21.4392 39.4497C21.4904 39.5596 21.5414 39.659 21.5897 39.7444C21.8123 40.1645 22.255 40.9469 22.7375 41.4892C22.7375 41.4892 22.346 40.7245 22.4372 40.5597C22.4372 40.5597 23.7138 42.1606 24.1199 42.3168L23.586 41.424L23.574 41.3978C25.429 42.7544 27.9741 43.2579 31.122 42.3738C31.6913 42.2124 32.251 42.018 32.7981 41.7916C33.1552 41.6362 33.5055 41.4656 33.8481 41.2801L33.8984 41.2518C34.1431 41.1164 34.3837 40.9735 34.6199 40.8233L34.6251 40.8201C35.1141 40.5095 35.5824 40.1671 36.0271 39.795L36.0279 39.7946L36.029 39.7937C36.0453 39.7791 36.0622 39.7649 36.0793 39.7504C36.354 39.5086 36.6175 39.2541 36.8688 38.9877C37.1804 38.6566 37.473 38.3077 37.7452 37.9429L37.7644 37.9177C37.8286 37.831 37.8916 37.7449 37.9526 37.6593L37.9699 37.6343C37.9897 37.605 38.0073 37.5771 38.027 37.5482C38.1115 37.4266 38.194 37.3036 38.2745 37.1793L38.3315 37.0904C38.3723 37.0257 38.4116 36.9608 38.4508 36.8966C38.4804 36.8464 38.5109 36.7962 38.5395 36.7464C38.5715 36.6922 38.6036 36.6379 38.6348 36.5839C38.6893 36.4873 38.7427 36.3901 38.7951 36.2923C38.8155 36.254 38.8347 36.2167 38.8544 36.1789C38.8938 36.1036 38.9322 36.0293 38.9687 35.9558C38.9857 35.9214 39.0028 35.8872 39.0193 35.8531L39.0342 35.8208C39.08 35.7281 39.1236 35.6359 39.1657 35.5453L39.1737 35.5259C39.3323 35.3768 39.4554 35.235 39.5542 35.0993C39.5686 35.0799 39.5835 35.0606 39.5967 35.0413C39.8162 34.7219 39.8881 34.4391 39.8921 34.1853" fill="#FCE9C9"/>
<path d="M10.3188 29.471C10.2641 29.4883 10.2023 29.5615 10.1401 29.6615C10.1158 29.7011 10.0928 29.7417 10.0713 29.7829C9.9047 30.0983 9.7548 30.5356 9.7548 30.5356C9.76649 30.3896 9.7825 30.2381 9.80012 30.0857C9.8022 30.068 9.80476 30.0507 9.80701 30.0328C9.82542 29.8777 9.84688 29.7214 9.86962 29.566C9.87219 29.5471 9.87523 29.5285 9.87795 29.5101C9.90454 29.3349 9.93272 29.1608 9.96203 28.9928L9.97324 28.9282L9.97548 28.917L9.98573 28.8586C10.0136 28.7015 10.0429 28.5447 10.0738 28.3883C10.0954 28.2779 10.1166 28.1734 10.1368 28.0752L10.1432 28.0436C10.1462 28.0281 10.1496 28.014 10.1524 27.9993C10.1557 27.985 10.1585 27.9701 10.1614 27.9551L10.1625 27.9499C10.1678 27.9254 10.1734 27.9002 10.1782 27.8769L10.1798 27.8704C10.1843 27.8474 10.1888 27.8278 10.1933 27.8063C10.2008 27.7724 10.2079 27.7378 10.2149 27.7062L10.2168 27.6975C10.2226 27.6718 10.2279 27.6458 10.2332 27.6224C10.2409 27.5888 10.2479 27.5578 10.254 27.5284L10.2543 27.5276L10.2548 27.5268C10.2583 27.51 10.2618 27.4954 10.2654 27.4799L10.266 27.4772C10.2694 27.4631 10.2724 27.4484 10.2754 27.436L10.294 27.3554L10.2987 27.3363L10.3004 27.3292L10.3057 27.3066L10.3094 27.2909L10.3102 27.2887L10.3076 27.2908L10.274 27.3215C10.2444 27.3481 10.2139 27.3741 10.1862 27.4035L10.1557 27.4374C10.1223 27.4747 10.0909 27.5137 10.0615 27.5542L10.0458 27.5741C10.009 27.6258 9.97484 27.68 9.94233 27.7351V27.7353L9.93801 27.7425V27.7429L9.92472 27.7674C9.91719 27.7808 9.91014 27.7947 9.90294 27.8083C9.8842 27.8428 9.86466 27.8764 9.84784 27.9111L9.84704 27.9124L9.8464 27.9136L9.8456 27.9165L9.83904 27.9296L9.83295 27.9428C9.80727 27.9968 9.78297 28.0514 9.76008 28.1066C9.68735 28.2815 9.62583 28.461 9.57591 28.6439C9.55445 28.7219 9.5394 28.783 9.53267 28.8129L9.53235 28.8155L9.52754 28.8355V28.8352V28.8355L9.52947 28.8121C9.53203 28.7657 9.53731 28.7195 9.541 28.6735C9.54804 28.5766 9.55413 28.4792 9.5647 28.3828C9.57319 28.3017 9.58552 28.2224 9.59689 28.1419L9.6081 28.0667C9.6129 28.0295 9.61803 27.9924 9.62412 27.9556C9.6294 27.9212 9.63693 27.8872 9.64333 27.8535L9.64365 27.8509V27.8507L9.65086 27.8129L9.65294 27.8026C9.66333 27.7449 9.67406 27.6873 9.68513 27.6298L9.6909 27.6012L9.69202 27.5959L9.70051 27.5553C9.70371 27.5384 9.70851 27.5219 9.71188 27.5059C9.72549 27.4452 9.74006 27.3858 9.75416 27.3258L9.75656 27.3158C9.76697 27.2712 9.77658 27.2263 9.78795 27.1824L9.78827 27.1805L9.78939 27.1776L9.79291 27.1646C9.81613 27.0742 9.84192 26.9858 9.8677 26.8969L9.88116 26.8478C9.88612 26.8314 9.89028 26.814 9.89557 26.7975C9.93801 26.6531 9.98365 26.5105 10.032 26.3711L10.0383 26.3537C10.0799 26.2353 10.1219 26.1187 10.1659 26.0039L10.1707 25.9908C10.1907 25.9402 10.2112 25.8918 10.2308 25.8417L10.234 25.8344C10.2641 25.76 10.2937 25.685 10.3245 25.613V25.6119L10.3251 25.6109L10.3286 25.6019C10.3368 25.5838 10.3558 25.54 10.3855 25.4754L10.3859 25.4743L10.39 25.4655C10.4015 25.44 10.4124 25.4153 10.4236 25.3895L10.478 25.2674L10.4942 25.232C10.4686 25.2179 10.4418 25.2055 10.4154 25.1921L10.4005 25.1847L10.3725 25.1705C10.2001 25.0873 10.0202 25.0211 9.83519 24.9729L9.80556 24.9655C9.61403 24.9174 9.41821 24.8887 9.22102 24.8799C9.15972 24.8773 9.09835 24.8766 9.03701 24.8778C8.94412 24.8797 8.85283 24.8876 8.76283 24.8977C8.734 24.9014 8.7063 24.9064 8.67843 24.9101C8.63391 24.9169 8.58987 24.9256 8.54551 24.9337C8.52837 24.9374 8.51027 24.9395 8.49314 24.9434C8.40197 24.9627 8.3118 24.9866 8.22296 25.0149C8.19574 25.0236 8.16851 25.0306 8.14209 25.04C8.06281 25.0681 7.98514 25.0987 7.90891 25.1328C7.87848 25.1464 7.85045 25.1621 7.82083 25.1761C7.78607 25.1934 7.75164 25.212 7.71753 25.2296L7.6823 25.2478C7.61009 25.2888 7.53951 25.3327 7.47074 25.3793C7.43038 25.4061 7.39114 25.4332 7.35287 25.4617C7.32933 25.4797 7.30691 25.4985 7.2832 25.5169C7.18956 25.5926 7.10046 25.6739 7.01639 25.7603C6.96547 25.8112 6.91582 25.863 6.86938 25.9174L6.84567 25.9446C6.82117 25.9741 6.79843 26.0053 6.77553 26.0362L6.77184 26.0405L6.76896 26.0446C6.75343 26.0652 6.73661 26.0851 6.7214 26.1063L6.71531 26.1145L6.70939 26.1227L6.70891 26.1235L6.70859 26.124C6.61474 26.2565 6.53242 26.3973 6.46115 26.5439C6.45074 26.5649 6.44146 26.5866 6.43153 26.6079C6.3987 26.6796 6.36827 26.7531 6.34088 26.8279C6.33015 26.8576 6.31814 26.8864 6.30805 26.9164L6.30757 26.9167V26.9169L6.30725 26.9175C6.28227 26.9936 6.26017 27.0708 6.24127 27.1504L6.23406 27.1798L6.22717 27.2173L6.22621 27.2205C6.2134 27.2782 6.20091 27.3357 6.19194 27.3941C6.1873 27.4229 6.18441 27.4523 6.18073 27.4814L6.17945 27.4896C6.17577 27.5206 6.17272 27.5519 6.16952 27.5833C6.1668 27.6067 6.16343 27.6306 6.16151 27.6545C6.15479 27.7467 6.1519 27.8396 6.15399 27.9339C6.15591 28.0066 6.16231 28.0783 6.16904 28.15L6.16952 28.1541L6.17192 28.1875C6.17577 28.2271 6.18265 28.2662 6.18842 28.3054C6.25055 28.746 6.41267 29.1663 6.66214 29.5334C6.88671 29.8698 7.17661 30.1569 7.5143 30.3771C7.70767 30.5022 7.91493 30.604 8.13184 30.6803C8.34163 30.7551 8.56072 30.8095 8.78909 30.8347C8.84034 30.84 8.89239 30.8439 8.94444 30.8476C9.02243 30.8528 9.1001 30.8562 9.17954 30.8545C9.25257 30.8529 9.32367 30.8437 9.39558 30.8368C9.43658 30.8329 9.47886 30.8326 9.51938 30.8268C9.62267 30.8122 9.72389 30.7911 9.82366 30.766L9.84608 30.761C9.88772 30.75 9.92616 30.7349 9.96636 30.7223C10.091 30.6841 10.2129 30.6374 10.3312 30.5826L10.3568 30.5711C10.3896 30.5569 10.4237 30.5431 10.4555 30.5268L10.4593 30.5252C10.4012 30.1995 10.3569 29.8714 10.3267 29.5418C10.3248 29.5179 10.3214 29.4948 10.3188 29.471Z" fill="#FCE9C9"/>
<path d="M22.6616 3.43127L22.7162 3.45938L22.7153 3.45195L22.6616 3.43127Z" fill="#4D94C3"/>
<path d="M38.7623 33.4301C38.7587 33.4156 38.7551 33.4011 38.7516 33.3865L38.7306 33.3072C38.641 33.0137 38.5274 32.7845 38.4264 32.6212C38.2971 32.4103 38.19 32.3061 38.19 32.3061C38.236 32.1451 38.2692 31.9807 38.2893 31.8143C38.3671 31.1457 38.1896 30.6251 38.0474 30.3315C38.0274 30.29 38.0062 30.249 37.9839 30.2087C37.8814 30.2822 37.7779 30.3546 37.6743 30.4252C35.7084 31.7677 33.4958 32.629 31.1001 32.9992C29.449 33.2544 27.7122 33.2783 25.9062 33.0565L25.9377 33.0657C25.9377 33.0657 24.8492 33.2159 24.554 34.269L24.5724 34.2798L24.4824 34.9861C24.5143 35.9424 24.9478 36.541 25.4412 36.8559C25.9542 37.0533 26.5735 37.2037 27.2612 37.2899C28.4581 37.44 29.8319 37.4002 31.2343 37.1757L31.2414 37.1746L31.2486 37.1736C33.1137 36.9215 35.7464 35.9171 37.6283 34.6206C38.057 34.325 38.447 34.0153 38.78 33.6948L38.7925 33.6825L38.815 33.6604C38.7988 33.5833 38.7812 33.5066 38.7623 33.4301Z" fill="white"/>
<path d="M35.2037 24.3153C34.1939 23.6951 34.0458 23.4892 34.1403 21.8046C34.1739 21.198 34.2391 20.4006 34.3062 19.3197C34.3145 19.1848 34.3197 19.0496 34.3217 18.9144C34.3224 18.8829 34.323 18.8523 34.323 18.8215C34.3242 18.7009 34.3225 18.5803 34.3179 18.4599L34.3168 18.4264L34.314 18.3907C34.3068 18.2637 34.2968 18.1369 34.2841 18.0104C34.2746 17.9204 34.2626 17.8307 34.2482 17.7415C34.2412 17.6972 34.2325 17.6546 34.2245 17.6114C34.2156 17.5639 34.206 17.5164 34.1957 17.4691C34.1862 17.4237 34.1759 17.3784 34.1648 17.3333L34.1643 17.333L34.1648 17.3325C34.0222 17.1168 33.8485 16.9238 33.6494 16.7599L33.6102 16.7304L33.6022 16.7244L33.5727 16.7021L33.5626 16.6945C33.5338 16.6719 33.5034 16.6501 33.4734 16.6299C33.4414 16.6083 33.4088 16.5874 33.3759 16.5673C33.0774 16.3841 32.7446 16.2691 32.3884 16.2158C32.1866 16.1865 31.9826 16.176 31.7789 16.1845C31.6818 16.188 31.5835 16.1966 31.4847 16.2084C31.2174 16.2406 30.9535 16.2968 30.6961 16.3764C30.6061 16.4387 30.5164 16.5025 30.4254 16.5661C30.3495 16.6196 30.2719 16.6731 30.194 16.7262L30.1566 16.7522C30.0781 16.8053 29.9988 16.8572 29.9192 16.9089L29.8792 16.9341C29.7991 16.9841 29.7189 17.0331 29.6378 17.0794L29.5952 17.1033C29.5139 17.1493 29.4313 17.193 29.3475 17.2341L29.3058 17.2538C29.2213 17.2942 29.1351 17.3322 29.0478 17.3653L29.0118 17.3792C28.9218 17.4129 28.8303 17.4424 28.7376 17.4675L28.7133 17.4732C28.6151 17.4987 28.5169 17.5191 28.4159 17.5329C28.2471 17.5545 28.0771 17.565 27.9069 17.5643C27.6275 17.5646 27.3485 17.5434 27.0722 17.501C26.9785 17.4865 26.8849 17.4705 26.7916 17.453C26.7583 17.4465 26.7252 17.4415 26.6924 17.4351C26.4489 17.3873 26.2039 17.3302 25.9573 17.2703C25.8535 17.2455 25.75 17.2203 25.6459 17.1947C25.4789 17.1537 25.3101 17.114 25.1411 17.0752C25.1077 17.0673 25.0755 17.0589 25.0415 17.0515C24.8998 17.0592 24.7576 17.0733 24.6147 17.0914L24.5837 17.0952C24.1694 17.15 23.7526 17.2495 23.3409 17.3932C23.3182 17.4011 23.2953 17.4078 23.2727 17.4162C23.2085 17.4393 23.1446 17.4646 23.0805 17.49C22.9948 17.5242 22.9091 17.5599 22.8243 17.5979C22.2279 17.8634 21.6488 18.2245 21.1102 18.6837C20.8949 18.8678 20.6901 19.064 20.4968 19.2715C20.209 19.5806 19.9483 19.9143 19.7175 20.2688C19.7049 20.2882 19.6924 20.3076 19.6804 20.3273C19.5602 20.5146 19.4492 20.7077 19.3477 20.906C19.3115 20.9761 19.275 21.0465 19.2417 21.1172L19.235 21.1309C19.128 21.36 19.0336 21.5948 18.9521 21.8343C18.9475 21.8484 18.9435 21.8626 18.9395 21.8766C18.928 21.9112 18.9192 21.9458 18.9084 21.98C18.8382 22.2024 18.7797 22.4283 18.7332 22.6569C18.7287 22.6818 18.7231 22.7067 18.719 22.7315C18.7058 22.8019 18.6933 22.8724 18.6821 22.9428C18.6438 23.1992 18.6218 23.4579 18.6165 23.7172C18.6146 23.7818 18.6122 23.8469 18.613 23.9109C18.7241 24.3138 18.8859 24.7006 19.0945 25.062C19.8506 26.3793 21.0937 27.1671 21.9944 27.5898C22.3521 27.7485 22.7179 27.8878 23.0903 28.0072L23.0999 28.0238H23.1004L23.102 28.0231L23.1265 28.0042C23.175 27.9671 23.2233 27.9296 23.2735 27.8928C23.2911 27.8791 23.3092 27.8662 23.3271 27.8527C23.3969 27.8011 23.4675 27.7506 23.5388 27.7013C23.5925 27.6635 23.6477 27.625 23.7041 27.5877C23.7227 27.5748 23.7416 27.5628 23.7605 27.5502C23.8173 27.5123 23.8752 27.4743 23.9344 27.4369L23.9929 27.3999L24.1745 27.2881C24.1955 27.2755 24.2169 27.2627 24.2379 27.2498C24.2994 27.214 24.3615 27.1771 24.4253 27.1406C24.4483 27.1282 24.4712 27.1151 24.4941 27.1019C24.5568 27.0663 24.6207 27.0311 24.6858 26.9961C24.7115 26.9824 24.7372 26.9683 24.7637 26.9546C24.8277 26.9203 24.8924 26.8864 24.9583 26.8528L25.0431 26.8099C25.1086 26.7769 25.1749 26.7443 25.2416 26.7118C25.2731 26.6965 25.3053 26.6816 25.3372 26.6663C25.4027 26.6351 25.469 26.6041 25.5364 26.5733C25.5713 26.5569 25.608 26.5413 25.644 26.525C25.7101 26.4952 25.7765 26.4661 25.8432 26.4377C25.8828 26.42 25.9235 26.4032 25.9635 26.3864C26.0289 26.3589 26.095 26.3315 26.1621 26.304C26.2068 26.2862 26.2523 26.2685 26.2974 26.2502C26.3623 26.2249 26.4275 26.1992 26.4938 26.174C26.5434 26.1546 26.5942 26.1357 26.6441 26.1175C26.7084 26.0937 26.7721 26.07 26.8378 26.0464L27.0056 25.9879C27.0684 25.966 27.1315 25.9437 27.1955 25.9228C27.2569 25.9018 27.3192 25.882 27.3813 25.862C27.4427 25.8418 27.5038 25.8219 27.5661 25.8024C27.6344 25.7809 27.7037 25.76 27.7737 25.7387C27.832 25.7216 27.8906 25.7033 27.95 25.6862C28.0253 25.6639 28.1026 25.6426 28.179 25.621C28.2175 25.6105 28.2546 25.5987 28.2932 25.5887C28.5922 24.8296 29.4794 22.9476 30.9994 22.7417C31.1628 22.7178 31.3104 22.7092 31.4501 22.7078C31.485 22.7073 31.5225 22.7047 31.5558 22.7055C31.5382 22.5963 31.5244 22.4826 31.5174 22.3644C31.4696 21.5535 31.7169 20.8793 32.0692 20.8578C32.3421 20.8355 32.5593 21.2375 32.5963 21.3782C32.7001 21.6248 32.7728 21.9398 32.7937 22.2891C32.8125 22.6083 32.7832 22.9029 32.7228 23.1486C32.7535 23.1805 32.7788 23.2159 32.8064 23.2498C33.1546 23.6856 33.2135 24.29 33.1991 24.7181C33.3344 24.7044 33.4734 24.6923 33.6123 24.6803L33.7185 24.6703L33.7404 24.6684C33.7604 24.6663 33.7804 24.6651 33.8004 24.6635C33.9724 24.6492 34.1464 24.6358 34.3227 24.6232L34.3307 24.6227C34.7301 24.5946 35.1403 24.5708 35.5635 24.5526C35.3437 24.3894 35.2037 24.3152 35.2037 24.3152" fill="#EFCFA5"/>
<path d="M39.028 35.6681C38.4001 36.2307 37.7119 36.7209 36.976 37.1294C36.6424 37.3141 36.3004 37.4829 35.9511 37.6353C35.2715 37.9335 34.5678 38.1724 33.8478 38.3497C32.4489 38.6934 31.4624 38.694 31.4624 38.694C32.2274 39.1207 33.1957 39.1248 33.8598 39.0571C34.3171 39.0112 34.6313 38.9319 34.6313 38.9319C34.6184 39.1964 34.5852 39.4596 34.532 39.719C34.4804 39.9711 34.4059 40.2179 34.3092 40.4563L34.302 40.4756L34.3014 40.4768C34.1953 40.7361 34.0598 40.9822 33.8975 41.21C33.8808 41.233 33.8647 41.2577 33.8478 41.28L33.8981 41.2517C34.1429 41.1163 34.3835 40.9734 34.6196 40.8232L34.6249 40.82C35.1138 40.5094 35.5821 40.167 36.0268 39.7949L36.0276 39.7945L36.0288 39.7936C36.0451 39.779 36.0619 39.7648 36.079 39.7503C36.3538 39.5085 36.6172 39.254 36.8686 38.9876C37.1802 38.6565 37.4728 38.3076 37.7449 37.9428L37.7641 37.9176C37.8284 37.8309 37.8913 37.7448 37.9523 37.6592L37.9696 37.6342C37.9895 37.6049 38.0071 37.577 38.0268 37.5481C38.1112 37.4265 38.1937 37.3035 38.2742 37.1792L38.3312 37.0904C38.3721 37.0256 38.4113 36.9607 38.4505 36.8965C38.4802 36.8463 38.5106 36.7961 38.5393 36.7463C38.5713 36.6921 38.6033 36.6378 38.6346 36.5838C38.689 36.4872 38.7425 36.39 38.7949 36.2922C38.8152 36.2539 38.8344 36.2166 38.8541 36.1788C38.8935 36.1035 38.9319 36.0292 38.9685 35.9557C38.9854 35.9213 39.0026 35.8871 39.0191 35.853L39.034 35.8207C39.0798 35.728 39.1233 35.6358 39.1654 35.5452C39.1195 35.5875 39.0737 35.6275 39.028 35.6679" fill="#EFCFA5"/>
<path d="M22.3601 28.2413C22.1523 28.3118 21.947 28.3894 21.7444 28.4739C21.1599 28.7181 20.4962 29.0655 19.9083 29.5454C19.8347 29.6051 19.7624 29.6671 19.6915 29.7311C19.5707 29.8408 19.4557 29.9574 19.3451 30.0796C19.3324 30.0935 19.319 30.1068 19.307 30.1208C19.2901 30.1396 19.2736 30.1591 19.2573 30.1782C19.2155 30.2274 19.174 30.2776 19.134 30.329L19.086 30.3907C19.0331 30.4611 18.9814 30.5325 18.9327 30.6066C18.8846 30.6793 18.8387 30.7544 18.7951 30.8305C18.4466 31.4439 18.249 32.1785 18.3097 33.0544L18.3115 33.0453L18.3126 33.0389L18.319 33.0062L18.3209 32.999C18.3235 32.9857 18.3273 32.9699 18.3313 32.9528L18.3337 32.9418C18.3385 32.9219 18.3441 32.899 18.3505 32.8741L18.3549 32.858L18.3786 32.7714H18.3791C18.3875 32.7407 18.3983 32.7076 18.409 32.6735L18.4159 32.6527C18.4273 32.618 18.4397 32.5816 18.4534 32.5443L18.4606 32.5264C18.4732 32.4908 18.4873 32.4547 18.5025 32.4172L18.5097 32.3999C18.5262 32.3595 18.5445 32.3179 18.5634 32.2755L18.5756 32.2491C18.5959 32.2058 18.6166 32.1618 18.6396 32.1174V32.1173L18.6427 32.1121C18.6771 32.0457 18.7158 31.978 18.7572 31.9099C18.7727 31.884 18.7876 31.8585 18.8049 31.8327L18.818 31.811L18.8183 31.8106C18.8843 31.7104 18.9562 31.6143 19.0336 31.5227C19.0448 31.5095 19.0568 31.4963 19.0688 31.4828C19.0972 31.4505 19.1268 31.4182 19.1575 31.3866C19.1702 31.374 19.1825 31.3607 19.1952 31.3483C19.2373 31.3068 19.2804 31.2663 19.3262 31.227L19.33 31.2233V31.2235V31.2233C19.33 31.2233 18.5389 33.028 18.8829 34.4592C18.8829 34.4592 18.8826 34.4548 18.8826 34.4472V34.4384C18.8822 34.4303 18.8822 34.4212 18.8822 34.409C18.8822 34.4067 18.8822 34.4038 18.8819 34.4012C18.8822 34.3867 18.8822 34.3696 18.8829 34.3492C18.8829 34.3466 18.8829 34.3444 18.8832 34.3413C18.8832 34.3203 18.8848 34.2965 18.8858 34.2702L18.8862 34.2626C18.8898 34.1963 18.8949 34.1302 18.9016 34.0641L18.9026 34.0554C18.9061 34.0194 18.9112 33.9821 18.9165 33.9428C18.9168 33.9394 18.9176 33.9359 18.9181 33.9323C18.924 33.8908 18.9309 33.8477 18.9389 33.8033L18.9409 33.7928L18.945 33.7705V33.7695C18.9546 33.7195 18.9663 33.6684 18.9795 33.6167C18.9804 33.6135 18.9811 33.6098 18.9819 33.6064C18.9953 33.5559 19.0097 33.5047 19.0259 33.4533L19.0409 33.4061L19.0518 33.3733V33.3727C19.0669 33.3305 19.0832 33.2882 19.101 33.2462L19.1037 33.2395L19.1039 33.2391C19.1358 33.1646 19.1724 33.0921 19.2134 33.0222C19.2463 32.9663 19.2807 32.9116 19.3198 32.8597L19.3214 32.8572V32.8575V32.8572H19.3215C19.3215 32.8572 19.2762 33.3016 19.2879 33.8304C19.2901 33.9136 19.294 33.999 19.2991 34.0853C19.3025 34.1426 19.3062 34.2003 19.3114 34.2578C19.3464 33.6896 19.4493 33.1556 19.5992 32.6578C19.6412 32.5206 19.6868 32.387 19.7354 32.2552C19.7421 32.2361 19.7487 32.2171 19.7557 32.1982C19.8559 31.9324 19.9703 31.6723 20.0983 31.4189C20.1075 31.4014 20.1164 31.3843 20.1253 31.3669C20.244 31.1369 20.3732 30.9125 20.5124 30.6945L20.542 30.6477C20.5936 30.5684 20.6463 30.4918 20.6991 30.4159C20.7129 30.3957 20.7264 30.3744 20.7401 30.3545C20.7531 30.3368 20.7653 30.319 20.7779 30.3012C20.8452 30.2076 20.9128 30.1163 20.981 30.0281L21.0135 29.9866C21.0845 29.8958 21.1552 29.8073 21.2264 29.7229L21.2302 29.7183C21.3173 29.6146 21.4065 29.5126 21.4976 29.4124C21.5627 29.3412 21.627 29.2727 21.6909 29.2068C21.715 29.1821 21.7398 29.1576 21.7645 29.1325C21.9058 28.9886 22.0514 28.8491 22.2012 28.7142C22.6126 28.3429 22.9331 28.1134 23.0447 28.0375C22.8141 28.0968 22.5857 28.1648 22.3602 28.2415" fill="#EFCFA5"/>
<path d="M32.8807 24.2449C32.8807 24.2449 32.8763 24.1987 32.8599 24.1293C32.7957 23.8653 32.5371 23.2429 31.519 23.3416C30.4545 23.4449 30.0969 24.3113 30.0053 24.6064C29.9864 24.6677 29.978 24.7062 29.978 24.7062L30.007 24.731C30.142 24.6154 30.3995 24.6291 30.6332 24.7787C30.7329 24.8415 30.8181 24.9253 30.883 25.0242V25.0247C30.973 25.1644 30.998 25.3151 30.9343 25.4268C30.9208 25.4511 30.9039 25.4713 30.8843 25.489C30.8843 25.489 30.9253 25.505 30.9943 25.5252C31.2901 25.6132 32.1104 25.7869 32.5542 25.2086C32.5757 25.1809 32.5974 25.155 32.617 25.124C32.5297 25.0789 32.4809 24.9497 32.4807 24.7965C32.48 24.7181 32.4911 24.6402 32.5135 24.5652C32.5864 24.3223 32.751 24.1788 32.8807 24.2449Z" fill="#EFCFA5"/>
<path d="M27.6035 32.1307C27.0196 32.2522 26.4332 32.3608 25.8447 32.4567L25.9229 32.4667C26.7044 32.5646 27.9488 32.6831 29.4535 32.5904C32.1915 32.4223 35.795 31.5535 39.0672 28.5776L39.0762 28.566V28.5608C39.087 28.3116 39.0541 27.8615 38.7418 27.5113C38.6843 27.4473 38.6204 27.3894 38.5512 27.3385C38.539 27.3314 38.5276 27.3233 38.515 27.3161C38.4291 27.2676 38.354 27.2185 38.2844 27.1701C38.2293 27.1357 38.1757 27.0991 38.1234 27.0605L38.1162 27.05C37.9091 27.3479 37.6765 27.6268 37.4208 27.8835C37.3267 27.977 37.2301 28.0681 37.1313 28.1567C36.2285 28.9769 35.062 29.6599 33.8027 30.2225C31.7102 31.1571 29.3714 31.7636 27.6033 32.1307" fill="#EFCFA5"/>
<path d="M10.2736 27.3215C10.2439 27.3481 10.2135 27.3741 10.1858 27.4035L10.1552 27.4374C10.1219 27.4747 10.0904 27.5137 10.061 27.5542L10.0453 27.5741C10.0085 27.6258 9.9744 27.68 9.94189 27.7351V27.7353L9.93757 27.7425V27.7429L9.92427 27.7674C9.91675 27.7808 9.9097 27.7947 9.90249 27.8083C9.88376 27.8428 9.86422 27.8764 9.8474 27.9111L9.8466 27.9124L9.84596 27.9136L9.84516 27.9165L9.83859 27.9296L9.83251 27.9428C9.80683 27.9968 9.78253 28.0514 9.75964 28.1066C9.68691 28.2815 9.62539 28.461 9.57547 28.6439C9.55401 28.7219 9.53895 28.783 9.53223 28.8129L9.53191 28.8155L9.5271 28.8355V28.8352V28.8355L9.52902 28.8121C9.53159 28.7657 9.53687 28.7195 9.54056 28.6735C9.5476 28.5766 9.55369 28.4792 9.56426 28.3828C9.57274 28.3017 9.58508 28.2224 9.59645 28.142L9.60766 28.0667C9.61246 28.0295 9.61759 27.9924 9.62367 27.9556C9.62896 27.9212 9.63648 27.8872 9.64289 27.8535L9.64321 27.8509V27.8507L9.65042 27.8129L9.6525 27.8026C9.66289 27.7449 9.67362 27.6873 9.68469 27.6298L9.69046 27.6012L9.69158 27.5959L9.70006 27.5553C9.70327 27.5384 9.70807 27.5219 9.71143 27.5059C9.72505 27.4452 9.73962 27.3858 9.75371 27.3258L9.75612 27.3158C9.76653 27.2712 9.77614 27.2263 9.78751 27.1824L9.78783 27.1805L9.78895 27.1776L9.79247 27.1646C9.81569 27.0742 9.84148 26.9858 9.86726 26.8969L9.88071 26.8478C9.88568 26.8314 9.88984 26.814 9.89513 26.7975C9.93757 26.6531 9.98321 26.5105 10.0316 26.3711L10.0378 26.3537C10.0795 26.2353 10.1214 26.1187 10.1655 26.0039L10.1703 25.9908C10.1903 25.9402 10.2108 25.8918 10.2303 25.8417L10.2335 25.8344C10.2636 25.76 10.2933 25.685 10.324 25.613V25.6119L10.3246 25.6109L10.3282 25.6019C10.3363 25.5838 10.3554 25.54 10.385 25.4754L10.3855 25.4743L10.3895 25.4655C10.401 25.44 10.4119 25.4153 10.4231 25.3895L10.4776 25.2674L10.4938 25.232C10.4681 25.2179 10.4414 25.2055 10.415 25.1921L10.4001 25.1847L10.3721 25.1705C10.1997 25.0873 10.0198 25.0211 9.83475 24.9729L9.80512 24.9655C9.61359 24.9174 9.41776 24.8887 9.22058 24.8799C9.15927 24.8773 9.09791 24.8766 9.03656 24.8778C8.94368 24.8797 8.85239 24.8876 8.76239 24.8977C8.73356 24.9012 8.70585 24.9064 8.67799 24.9101C8.63347 24.9169 8.58943 24.9256 8.54506 24.9337C8.52793 24.9374 8.50983 24.9395 8.49269 24.9434C8.40152 24.9627 8.31136 24.9866 8.22252 25.0149C8.1953 25.0236 8.16807 25.0306 8.14165 25.04C8.06237 25.0681 7.9847 25.0987 7.90847 25.1328C7.87804 25.1464 7.85001 25.1621 7.82039 25.1764C7.78563 25.1934 7.7512 25.212 7.71709 25.2297L7.68186 25.2478C7.60965 25.2888 7.53907 25.3327 7.4703 25.3793C7.42994 25.4061 7.3907 25.4332 7.35243 25.4617C7.32889 25.4797 7.30646 25.4985 7.28276 25.5169C7.18912 25.5926 7.10002 25.6739 7.01595 25.7603C6.96503 25.8108 6.91599 25.8632 6.86894 25.9174L6.84523 25.9446C6.82073 25.9741 6.79799 26.0053 6.77509 26.0362L6.7714 26.0405L6.76852 26.0446C6.75299 26.0652 6.73617 26.0851 6.72096 26.1064L6.71487 26.1145L6.70895 26.1227L6.70846 26.1235L6.70814 26.124C6.6143 26.2569 6.53198 26.3978 6.46071 26.5446C6.4503 26.5656 6.44101 26.5866 6.43157 26.6079C6.39825 26.6796 6.36831 26.7531 6.34044 26.8279C6.32971 26.8576 6.3177 26.8864 6.30761 26.9164L6.30713 26.9167V26.9169C6.31289 26.9363 6.3193 26.9545 6.32507 26.9736C6.34541 27.0401 6.36606 27.1047 6.38784 27.1674L6.39537 27.1889L6.40354 27.2107C6.48696 27.445 6.5871 27.673 6.70318 27.8927C6.71487 27.9142 6.7264 27.9367 6.73777 27.9572L6.74594 27.9724L6.75683 27.9906C6.80947 28.0849 6.86545 28.1772 6.92467 28.2674C6.99025 28.3677 7.06042 28.4648 7.13494 28.5585L7.16537 28.5956C7.17306 28.605 7.18027 28.6134 7.18699 28.621C7.20701 28.6441 7.21934 28.6575 7.21934 28.6577C7.21166 28.6249 7.20781 28.5926 7.20109 28.5593C7.15497 28.3302 7.12877 28.0974 7.12277 27.8637V27.8501L7.12213 27.8238C7.11876 27.68 7.1225 27.5362 7.13334 27.3929C7.1698 27.5223 7.21056 27.6505 7.25554 27.7773L7.2645 27.8033L7.26819 27.8128C7.36726 28.0836 7.48938 28.3454 7.63317 28.595C7.77827 28.847 7.91119 29.0254 7.99062 29.1236C8.00664 29.1433 8.02025 29.16 8.03178 29.173C8.0542 29.1994 8.0667 29.2128 8.0667 29.2128C8.0092 28.9626 7.98021 28.7153 7.97109 28.4731C7.96713 28.392 7.96552 28.3109 7.96628 28.2298C7.96772 28.1274 7.97301 28.0266 7.98134 27.9273V27.9276V27.9273C8.02554 28.0972 8.0763 28.2545 8.1306 28.4028L8.13444 28.4141C8.3295 28.9472 8.57037 29.3394 8.7366 29.5717L8.7555 29.5973C8.78481 29.6367 8.80995 29.67 8.83285 29.6997C8.84871 29.7198 8.8636 29.7391 8.87609 29.7535C8.89227 29.7732 8.90444 29.7878 8.91421 29.7987C8.92654 29.8126 8.93407 29.8215 8.93407 29.8215L8.92718 29.7866C8.91977 29.7519 8.91267 29.7171 8.90588 29.6823C8.88295 29.5591 8.86585 29.435 8.85463 29.3102C8.84609 29.2288 8.83995 29.1471 8.83622 29.0653C8.83367 28.9891 8.83314 28.9127 8.83461 28.8365L8.8359 28.7956C8.83718 28.7563 8.83798 28.7169 8.84006 28.6782L8.8415 28.6541L8.8431 28.6368C8.84903 28.537 8.85752 28.4382 8.86985 28.3413V28.3417V28.3414C8.88875 28.4057 8.9086 28.4684 8.9291 28.5288C8.94448 28.5748 8.96049 28.6186 8.97667 28.6627L8.98003 28.6717L8.98548 28.6869L8.99508 28.7139C9.04867 28.8559 9.10863 28.9953 9.17477 29.1319C9.22362 29.2338 9.27342 29.3279 9.32147 29.414C9.3495 29.4625 9.37608 29.5082 9.40267 29.5519C9.45839 29.6436 9.51753 29.7332 9.57995 29.8204L9.59901 29.8465C9.63364 29.8942 9.66947 29.941 9.70647 29.9869C9.7393 30.0271 9.76252 30.0534 9.77293 30.0649L9.77886 30.0714L9.79968 30.0857C9.80176 30.068 9.80432 30.0507 9.80656 30.0328C9.82498 29.8777 9.84644 29.7214 9.86918 29.566C9.87174 29.5471 9.87479 29.5285 9.87751 29.5101C9.9041 29.3349 9.93228 29.1608 9.96159 28.9928L9.9728 28.9282L9.97504 28.917L9.98529 28.8586C10.0131 28.7015 10.0425 28.5447 10.0734 28.3883C10.095 28.2779 10.1161 28.1734 10.1363 28.0752L10.1427 28.0436C10.1458 28.0281 10.1491 28.014 10.152 27.9993C10.1552 27.985 10.1581 27.9701 10.161 27.9551L10.1621 27.9499C10.1674 27.9254 10.173 27.9002 10.1778 27.8769L10.1794 27.8704C10.1839 27.8474 10.1884 27.8278 10.1928 27.8063C10.2004 27.7724 10.2074 27.7378 10.2145 27.7062L10.2164 27.6975C10.2222 27.6718 10.2274 27.6458 10.2327 27.6224C10.2404 27.5888 10.2475 27.5578 10.2535 27.5284L10.2539 27.5276L10.2543 27.5268C10.2579 27.51 10.2614 27.4954 10.2649 27.4799L10.2656 27.4772C10.2689 27.4631 10.272 27.4484 10.275 27.436L10.2936 27.3554L10.2982 27.3363L10.3 27.3292L10.3053 27.3066L10.309 27.2909L10.3098 27.2887L10.3072 27.2908L10.2736 27.3215Z" fill="#EFCFA5"/>
<path d="M32.4317 35.0355C32.6898 34.9454 32.9147 34.8727 33.0891 34.796C33.4387 34.6458 33.6264 34.5445 33.6147 34.5072C33.6028 34.4689 33.3919 34.4979 33.0205 34.5825C32.8346 34.6263 32.6093 34.6645 32.3503 34.723C32.2215 34.7543 32.0793 34.7721 31.9318 34.8008C31.7834 34.8269 31.6272 34.8598 31.4624 34.8776C31.1372 34.9241 30.765 34.9664 30.3699 35.0128C30.1751 35.0289 29.9743 35.0455 29.7677 35.0623C29.5591 35.0728 29.3448 35.0837 29.1249 35.0945C28.246 35.1203 27.2758 35.0803 26.2886 34.8971C25.7681 34.8047 25.0725 34.5663 24.572 34.2798L24.5536 34.2692C24.8487 33.2161 25.9373 33.0659 25.9373 33.0659L25.9057 33.0565L25.8509 33.0502C25.6926 33.0305 25.5534 33.0115 25.4341 32.9953C25.3489 32.9837 25.2741 32.9733 25.211 32.9654C25.1503 32.9578 25.1069 32.9533 25.0817 32.9517C24.4261 32.9063 24.0669 33.4663 23.9426 33.7089C23.925 33.7439 23.9086 33.7799 23.8921 33.8166C23.7922 34.0491 23.7332 34.2974 23.7177 34.5503C23.6854 35.0452 23.8118 35.5887 24.1878 36.0513C24.4386 36.3633 24.8748 36.6384 25.4408 36.8559C24.9474 36.541 24.5138 35.9424 24.482 34.9861C25.0409 35.2284 25.6922 35.3766 26.1815 35.4643C27.2294 35.6591 28.2405 35.6824 29.1495 35.626C29.3766 35.607 29.5976 35.5902 29.8122 35.5684C30.0272 35.5401 30.2357 35.5131 30.438 35.4866C30.8313 35.4198 31.1942 35.355 31.535 35.2792C31.7047 35.2471 31.8625 35.2001 32.0116 35.1592C32.1608 35.1156 32.3023 35.0827 32.4317 35.0355Z" fill="#EFCFA5"/>
<path d="M31.5625 22.7102C32.1099 22.7231 32.4818 22.8984 32.7296 23.1534C32.7899 22.9076 32.8196 22.613 32.8002 22.2938C32.7792 21.9445 32.7068 21.6295 32.6032 21.3827C32.5664 21.2422 32.3489 20.8401 32.0758 20.8623C31.7233 20.8838 31.4769 21.5581 31.5244 22.3689C31.5312 22.4873 31.5446 22.601 31.5625 22.7104" fill="#59473D"/>
<path d="M32.4868 24.8011C32.4873 24.9545 32.536 25.0836 32.6231 25.1285C32.7541 25.1947 32.9173 25.0503 32.9899 24.8074C32.9968 24.7861 33.0006 24.7649 33.0054 24.7441V24.7436C33.0518 24.5228 33.0046 24.3093 32.8866 24.2495C32.7568 24.1833 32.5924 24.3271 32.5198 24.5695C32.4963 24.6486 32.4864 24.7273 32.4868 24.8011Z" fill="#59473D"/>
<path d="M30.0015 25.1925C30.0595 25.2878 30.1469 25.3799 30.2587 25.4517C30.4951 25.6029 30.7577 25.6157 30.8908 25.4939C30.9105 25.4761 30.9277 25.4555 30.9409 25.4316C31.0047 25.3196 30.9797 25.1691 30.89 25.0291L30.8897 25.0287C30.8247 24.9299 30.7395 24.8462 30.6399 24.7832C30.4062 24.6337 30.1487 24.62 30.0137 24.7359C29.9911 24.7546 29.9719 24.7771 29.957 24.8025C29.896 24.9108 29.9186 25.0556 30.0015 25.1922V25.1925Z" fill="#59473D"/>
<path d="M39.0764 28.567V28.5621L39.061 28.5846C39.0633 28.5825 39.0657 28.5809 39.0678 28.5788L39.0764 28.567Z" fill="#59473D"/>
<path d="M38.7924 33.6837L38.7799 33.6956C38.447 34.0161 38.0567 34.3263 37.6283 34.6218C35.7464 35.9182 33.1137 36.9225 31.2483 37.1746L31.241 37.1757L31.234 37.1769C29.8316 37.4015 28.4578 37.4411 27.2608 37.2909C26.573 37.2047 25.954 37.0545 25.4409 36.8569C24.8754 36.6394 24.439 36.3643 24.1879 36.0524C23.8119 35.5897 23.6855 35.0464 23.718 34.5515C23.7336 34.2986 23.7927 34.0503 23.8926 33.8177C23.9087 33.7811 23.9254 33.7451 23.943 33.71C24.0673 33.4674 24.4262 32.9073 25.0822 32.9525C25.107 32.9546 25.1507 32.959 25.2111 32.9666C25.2742 32.9743 25.3491 32.9847 25.4345 32.9963C25.5535 33.0124 25.6931 33.0315 25.8514 33.0512C25.8698 33.0536 25.8877 33.0554 25.9058 33.0575C27.7118 33.2791 29.4487 33.2555 31.0998 33.0003C33.4955 32.6301 35.7084 31.7686 37.674 30.4265C37.778 30.3555 37.8812 30.2833 37.9835 30.2097L39.061 28.5846C35.7909 31.5554 32.1904 32.4233 29.4538 32.5914C27.9488 32.6841 26.7045 32.5657 25.9234 32.4678C25.8973 32.4645 25.8711 32.4611 25.845 32.4577C25.6107 32.4276 25.4196 32.4003 25.2832 32.383C25.2149 32.3743 25.1598 32.3685 25.1185 32.3656C24.9219 32.3519 24.7244 32.3754 24.5364 32.4349C24.164 32.5523 23.8458 32.8059 23.6069 33.142C23.3115 33.5563 23.1376 34.0951 23.1296 34.6586C23.1238 35.1223 23.2308 35.6016 23.4776 36.0411C23.4872 36.0587 23.4967 36.0767 23.5071 36.0946C23.5356 36.1427 23.5663 36.1902 23.5984 36.2367C23.6416 36.3007 23.6871 36.3637 23.7372 36.425C24.3106 37.1378 25.5436 37.668 27.1886 37.8744C28.3017 38.014 29.6045 38.0027 31.0175 37.8018C35.1814 37.0427 37.1608 35.686 38.075 34.7327C38.1418 34.6633 38.2031 34.5954 38.2591 34.5307C38.5868 34.1495 38.7343 33.8563 38.7881 33.7296L38.7955 33.7123C38.8093 33.6795 38.8147 33.6622 38.8149 33.6614L38.7924 33.6837Z" fill="#59473D"/>
<path d="M25.5411 19.1208C25.4098 19.0486 25.2665 18.9972 25.1219 18.961C24.9926 18.9293 24.861 18.9081 24.7284 18.8976C24.241 18.8546 23.8195 18.9379 23.8195 18.9379C23.7292 18.9586 23.6426 18.9822 23.5588 19.008C22.8967 19.2106 22.4358 19.5583 22.1136 19.9595C21.8529 20.2841 21.6834 20.6438 21.5752 20.9909C21.5393 21.1084 21.5083 21.2274 21.4823 21.3475C21.4296 21.6024 21.3991 21.8613 21.391 22.1215C21.3827 22.4129 21.4051 22.6005 21.4051 22.6005C21.5141 22.3596 21.6342 22.1239 21.7651 21.8943C22.0736 21.3524 22.408 20.916 22.7459 20.5653C23.4043 19.8821 24.075 19.5218 24.5948 19.3323C25.1563 19.1277 25.5411 19.1208 25.5411 19.1208Z" fill="#E1B27E"/>
<path d="M33.4504 18.1698L33.4283 18.1404C33.3515 18.0418 33.2604 17.9555 33.1581 17.8844C32.9066 17.7099 32.5598 17.619 32.0787 17.7185C32.0787 17.7185 31.5077 17.8545 31.1738 18.2311C31.1738 18.2311 32.169 17.8025 33.2225 18.5577C33.3185 18.6265 33.4148 18.7063 33.511 18.796C33.6149 18.893 33.7129 18.9963 33.8046 19.1051C33.8046 19.1051 33.7628 18.6422 33.5013 18.2434C33.4853 18.2182 33.4683 18.1936 33.4504 18.1698Z" fill="#E1B27E"/>
<path d="M25.6613 25.5189C26.0693 25.3931 26.4819 25.2831 26.8983 25.1891C26.9752 24.8419 26.9942 24.4116 26.9398 23.9523C26.8137 22.875 26.3319 22.0498 25.8641 22.1081C25.3959 22.1663 25.1197 23.0869 25.2459 24.1635C25.3096 24.7059 25.4637 25.1849 25.6611 25.5188" fill="#59473D"/>
<path d="M23.4908 1.41321L22.5096 1.6369L22.7154 3.45197L20.0998 2.10933L19.0229 2.43316L19.0398 2.45238L22.2173 6.10481L22.2477 6.08543L22.2887 6.05959C22.3875 5.99595 22.4867 5.93264 22.5866 5.87013C22.6214 5.84817 22.6561 5.82539 22.691 5.80375C22.8352 5.7146 22.9793 5.62706 23.1242 5.54L21.7745 3.98077L23.9585 5.05773L23.9668 5.05304C24.0324 5.0167 24.0978 4.9802 24.1634 4.94419L23.9621 3.37154L24.9531 4.52748L24.9652 4.52167C25.0491 4.47903 25.1312 4.43865 25.2137 4.39747L25.2393 4.38503L25.2794 4.36468C25.2936 4.3579 25.308 4.35063 25.322 4.34352C25.357 4.3264 25.3931 4.30799 25.4277 4.29087C25.4347 4.28732 25.4414 4.28441 25.4486 4.28085C25.5662 4.22368 25.6815 4.16909 25.797 4.1145L23.4908 1.41321Z" fill="#FACE56"/>
<path d="M22.5157 1.6943L22.5093 1.63696L22.5157 1.69462V1.69446" fill="#4D94C3"/>
<path d="M22.5097 1.63692L22.6546 1.60398C22.4144 1.49156 22.129 1.41129 21.7986 1.36978C21.1369 1.2858 20.2967 1.363 19.3397 1.61254C18.3824 1.8603 17.3093 2.277 16.1711 2.84875C13.8946 3.99096 11.3602 5.75193 8.92142 7.99565C8.09543 8.75442 7.3033 9.54984 6.54736 10.3796L9.50982 14.0386C10.3389 13.1172 11.2109 12.2359 12.1228 11.3979C13.3805 10.2416 14.6626 9.21006 15.9304 8.31351C17.1589 7.44554 18.3722 6.70873 19.5403 6.11259L19.0259 3.77615L19.0397 2.45224L19.0229 2.43302L20.0997 2.10919L22.2027 3.19455L22.1429 2.45563L22.5097 1.63676" fill="#4D94C3"/>
<path d="M22.5098 1.63696L22.1431 2.45567L22.2028 3.19442L22.7156 3.45203L22.5098 1.63696Z" fill="#141C26"/>
<path d="M21.7744 3.98059L23.9584 5.05755L23.1242 5.53983L21.7744 3.98059Z" fill="#141C26"/>
<path d="M23.9614 3.37134L24.1627 4.94398L24.9524 4.52728L23.9614 3.37134Z" fill="#141C26"/>
<path d="M32.2248 2.78992C32.3593 2.78459 32.4913 2.78314 32.6208 2.78589C32.9884 2.79348 33.3335 2.83725 33.6607 2.91962C33.6783 2.9243 33.6965 2.92689 33.7138 2.93157L33.7178 2.9327L33.7307 2.93545L33.7628 2.94481L33.7925 2.95386C33.754 2.92802 33.7146 2.90379 33.6748 2.88005C33.3075 2.73824 32.919 2.64569 32.5194 2.59385C30.5371 2.33656 28.2803 3.06433 26.9896 3.58117C26.9188 3.61105 26.8476 3.64093 26.7754 3.67162C26.4748 3.80105 26.1763 3.93539 25.8801 4.07459C25.8522 4.08751 25.8244 4.10108 25.7967 4.11432C25.6814 4.16891 25.5659 4.22351 25.4483 4.28068C25.4411 4.28407 25.4344 4.28714 25.4274 4.29069C25.3928 4.30781 25.3567 4.32623 25.3217 4.34335C25.3076 4.35058 25.2935 4.35764 25.2792 4.36451L25.2392 4.38486L25.2134 4.39729C25.1309 4.43848 25.0488 4.47886 24.9649 4.5215L24.9528 4.52731C24.9503 4.52892 24.9477 4.53006 24.9453 4.53135C24.9245 4.54136 24.905 4.55121 24.8845 4.56139L24.8739 4.56656L24.8286 4.59062C24.6103 4.70348 24.3933 4.8187 24.1776 4.93626L24.1631 4.94401C24.0975 4.98003 24.0323 5.01669 23.9665 5.05287L23.9582 5.05755C23.7447 5.17659 23.5326 5.29821 23.3208 5.42289C23.2987 5.43581 23.2766 5.44825 23.2543 5.46149L23.1979 5.49493C23.1803 5.5051 23.1632 5.51592 23.1462 5.52642L23.1239 5.53983C22.9792 5.62688 22.8349 5.71442 22.6907 5.80358C22.6558 5.82522 22.6211 5.84799 22.5861 5.8698C22.4864 5.93246 22.3872 5.99578 22.2883 6.05941L22.2474 6.08525L22.217 6.10464C21.4837 6.58026 20.7666 7.08097 20.0671 7.60589C20.0105 7.64853 19.9541 7.69181 19.8972 7.7351C18.7506 8.60565 17.6433 9.53967 16.5821 10.5099C15.4619 11.5345 14.3945 12.5994 13.3862 13.6691C12.9115 14.1481 12.4454 14.6356 11.9881 15.1314C11.22 15.9656 10.801 16.4813 10.8183 16.4929C10.8252 16.5005 10.8928 16.4372 11.0128 16.3162C10.9135 16.4325 10.8142 16.5485 10.7168 16.664C12.3912 14.8636 14.2483 13.0199 16.2423 11.2829C17.4537 10.2287 18.714 9.2139 20.0162 8.27229V8.27261C20.7656 7.72961 21.5324 7.21132 22.3152 6.71854C22.4093 6.65943 22.5045 6.60225 22.599 6.54379C22.6523 6.51084 22.7058 6.47757 22.7598 6.44478C22.8608 6.38341 22.9623 6.32284 23.0636 6.26211C23.163 6.20316 23.2621 6.14421 23.3618 6.0859C23.4141 6.0557 23.4662 6.02517 23.5184 5.99529C23.6449 5.92248 23.7719 5.85061 23.8994 5.77967C23.975 5.73736 24.0515 5.69456 24.1276 5.65289L24.1282 5.65256C24.3685 5.52045 24.61 5.39301 24.8521 5.26784C24.872 5.25734 24.8923 5.24717 24.9128 5.23683L25.0264 5.17869C25.0766 5.15285 25.1263 5.12668 25.1769 5.10132C25.1961 5.09196 25.2145 5.08194 25.2336 5.07225L25.2416 5.06854C25.2759 5.05142 25.3095 5.0351 25.3434 5.01847L25.3647 5.00829L25.3766 5.00183L25.6919 4.84775C25.7108 4.83903 25.7301 4.82885 25.7496 4.81981C25.7832 4.80317 25.8165 4.78815 25.8505 4.77184C25.9709 4.71445 26.0914 4.65754 26.2123 4.60112C26.2451 4.5861 26.2786 4.56963 26.3111 4.55477L26.3623 4.53167L26.4642 4.48548C26.6045 4.42152 26.744 4.35837 26.8806 4.29845C27.0058 4.24353 27.1272 4.1933 27.2492 4.14146C27.939 3.84912 28.5873 3.60314 29.1898 3.40771C30.3478 3.03316 31.3476 2.82788 32.2248 2.78992Z" fill="white"/>
</svg>
