<svg width="56" height="56" viewBox="0 0 56 56" fill="none" xmlns="http://www.w3.org/2000/svg">
<path d="M39.4713 50.3476L35.7876 48.3439C35.9538 48.3176 36.1113 48.3264 36.2601 48.3701L39.9526 50.3739C39.7951 50.3389 39.6376 50.3301 39.4713 50.3476Z" fill="#979797"/>
<path d="M39.9351 50.3739L36.2426 48.3701C36.3213 48.3876 36.3913 48.4139 36.4526 48.4489L40.1363 50.4526C40.0838 50.4176 40.0138 50.3914 39.9351 50.3739Z" fill="#939393"/>
<path d="M40.1538 50.4527L36.4701 48.449C36.4876 48.4577 36.4963 48.4665 36.5138 48.4665L40.2063 50.4702C40.1801 50.4702 40.1626 50.4615 40.1538 50.4527Z" fill="#8F8F8F"/>
<path d="M20.1162 53.0688L16.4325 51.065L35.7787 48.3438L39.4712 50.3475L20.1162 53.0688Z" fill="#A2A2A1"/>
<path d="M19.39 55.8604L15.6975 53.8566C15.3213 53.6554 15.0763 53.2354 15.0763 52.7191C15.0763 52.5179 15.1113 52.3254 15.1813 52.1416L18.865 54.1454C18.795 54.3291 18.76 54.5216 18.76 54.7229C18.7688 55.2391 19.0138 55.6591 19.39 55.8604Z" fill="#787878"/>
<path d="M18.8738 54.1453L15.1901 52.1416C15.2163 52.0628 15.2513 51.9841 15.2951 51.9141L18.9788 53.9178C18.9351 53.9878 18.9001 54.0666 18.8738 54.1453Z" fill="#7D7D7D"/>
<path d="M18.97 53.9177L15.2863 51.914C15.3213 51.8527 15.3563 51.7915 15.4 51.7302L19.0925 53.734C19.0488 53.7952 19.005 53.8565 18.97 53.9177Z" fill="#818181"/>
<path d="M19.0839 53.734L15.3914 51.7303C15.4264 51.6778 15.4701 51.6253 15.5139 51.5728L19.2064 53.5765C19.1626 53.629 19.1189 53.6815 19.0839 53.734Z" fill="#858585"/>
<path d="M19.2063 53.5852L15.5138 51.5814C15.5575 51.5289 15.6013 51.4852 15.6538 51.4414L19.3375 53.4452C19.2938 53.4889 19.25 53.5327 19.2063 53.5852Z" fill="#898989"/>
<path d="M19.3463 53.4453L15.6626 51.4416C15.7151 51.3978 15.7676 51.3541 15.8288 51.3103L19.5213 53.3141C19.4513 53.3578 19.3988 53.3928 19.3463 53.4453Z" fill="#8F8F8F"/>
<path d="M19.5038 53.314L15.8113 51.3102C15.8813 51.2665 15.9513 51.2227 16.03 51.1877L19.7225 53.1915C19.6525 53.2265 19.5738 53.2702 19.5038 53.314Z" fill="#939393"/>
<path d="M19.7225 53.1915L16.03 51.1877C16.1525 51.1265 16.2838 51.0915 16.4238 51.074L20.1075 53.0777C19.985 53.0865 19.8538 53.1302 19.7225 53.1915Z" fill="#979797"/>
<path d="M39.4713 50.3477C40.2238 50.2427 40.8275 50.8114 40.8188 51.6164C40.8188 52.4214 40.215 53.1564 39.4625 53.2614L20.1075 55.9827C19.3638 56.0877 18.76 55.5189 18.76 54.7139C18.76 53.9089 19.3638 53.1652 20.1075 53.0602L39.4713 50.3477Z" fill="#C8C8C8"/>
<path d="M22.645 52.7189L18.9525 50.7064L20.86 45.7451L24.5438 47.7489L22.645 52.7189Z" fill="#347264"/>
<path d="M24.5437 47.7489L20.86 45.7451L31.3687 44.2664L35.0612 46.2701L24.5437 47.7489Z" fill="#408E7B"/>
<path d="M35.0613 46.27L36.9425 50.7063L22.645 52.7188L24.5438 47.7488L35.0613 46.27Z" fill="#50AF98"/>
<path d="M29.0501 44.8612L25.3663 42.8574C25.3838 42.8662 25.3926 42.8749 25.4101 42.8837L29.1026 44.8874C29.0851 44.8699 29.0676 44.8699 29.0501 44.8612Z" fill="#8F8F8F"/>
<path d="M29.0938 44.8788L25.41 42.875C25.48 42.91 25.5588 42.9363 25.6288 42.9538L29.3213 44.9575C29.2425 44.94 29.1638 44.9138 29.0938 44.8788Z" fill="#939393"/>
<path d="M29.3213 44.9662L25.6288 42.9624C25.7775 42.9974 25.9438 43.0149 26.11 42.9887L29.7938 44.9924C29.6363 45.0099 29.47 45.0012 29.3213 44.9662Z" fill="#979797"/>
<path d="M29.8025 44.9925L26.1188 42.9887C26.2675 42.9712 26.3988 42.9275 26.53 42.8662L30.2225 44.87C30.0913 44.9225 29.9513 44.9662 29.8025 44.9925Z" fill="#979797"/>
<path d="M30.2225 44.8611L26.53 42.8573C26.6088 42.8223 26.6875 42.7786 26.7575 42.7261L30.45 44.7298C30.38 44.7823 30.3013 44.8261 30.2225 44.8611Z" fill="#939393"/>
<path d="M30.4501 44.7299L26.7576 42.7262C26.8188 42.6824 26.8713 42.6387 26.9326 42.5862L30.6251 44.5987C30.5726 44.6424 30.5113 44.6862 30.4501 44.7299Z" fill="#8F8F8F"/>
<path d="M30.625 44.5985L26.9325 42.5948C26.985 42.551 27.0287 42.4985 27.0812 42.446L30.7737 44.4498C30.7212 44.5023 30.6775 44.546 30.625 44.5985Z" fill="#898989"/>
<path d="M30.765 44.4498L27.0725 42.446C27.1163 42.3935 27.16 42.341 27.2038 42.2798L30.8963 44.2835C30.8525 44.3448 30.8088 44.3973 30.765 44.4498Z" fill="#858585"/>
<path d="M30.8962 44.2837L27.2037 42.2799C27.2475 42.2187 27.2825 42.1574 27.3175 42.0962L31.0012 44.0999C30.975 44.1612 30.94 44.2312 30.8962 44.2837Z" fill="#818181"/>
<path d="M31.01 44.0999L27.3263 42.0961C27.37 42.0174 27.405 41.9386 27.4313 41.8599L31.1238 43.8636C31.0888 43.9424 31.0538 44.0211 31.01 44.0999Z" fill="#7D7D7D"/>
<path d="M31.115 43.8636L27.4225 41.8599C27.4925 41.6674 27.5275 41.4661 27.5363 41.2561C27.5363 40.7136 27.2738 40.2761 26.88 40.0574L30.5725 42.0611C30.9663 42.2799 31.2288 42.7174 31.2288 43.2599C31.2288 43.4699 31.185 43.6711 31.115 43.8636Z" fill="#787878"/>
<path d="M29.8113 41.9299L26.1276 39.9261C26.3026 39.8999 26.4688 39.9086 26.6176 39.9524L30.3013 41.9561C30.1526 41.9211 29.9863 41.9036 29.8113 41.9299Z" fill="#46545A"/>
<path d="M30.3013 41.9561L26.6176 39.9524C26.6963 39.9699 26.7751 40.0049 26.8451 40.0311L30.5288 42.0349C30.4588 42.0086 30.3801 41.9736 30.3013 41.9561Z" fill="#445157"/>
<path d="M30.5288 42.0435L26.8451 40.0398C26.8626 40.0485 26.8713 40.0573 26.8888 40.066L30.5813 42.0698C30.5551 42.0523 30.5463 42.0435 30.5288 42.0435Z" fill="#404F55"/>
<path d="M29.0501 44.8612L25.3663 42.8574C24.9726 42.6387 24.7101 42.2012 24.7101 41.6499C24.7101 41.4399 24.7451 41.2387 24.8151 41.0549L28.4988 43.0587C28.4288 43.2512 28.3938 43.4524 28.3938 43.6537C28.3938 44.2049 28.6563 44.6424 29.0501 44.8612Z" fill="#374247"/>
<path d="M28.5076 43.0588L24.8239 41.0551C24.8501 40.9763 24.8939 40.8976 24.9289 40.8188L28.6214 42.8226C28.5689 42.8926 28.5339 42.9801 28.5076 43.0588Z" fill="#39454A"/>
<path d="M28.6125 42.8225L24.92 40.8188C24.955 40.7575 24.99 40.6875 25.0338 40.635L28.7175 42.6388C28.6825 42.6913 28.6475 42.7525 28.6125 42.8225Z" fill="#3B474D"/>
<path d="M28.7264 42.63L25.0426 40.6262C25.0864 40.5737 25.1214 40.5125 25.1739 40.46L28.8664 42.4637C28.8139 42.525 28.7701 42.5775 28.7264 42.63Z" fill="#3D4A4F"/>
<path d="M28.8575 42.4726L25.165 40.4688C25.2088 40.4163 25.2613 40.3638 25.3138 40.3201L28.9975 42.3238C28.945 42.3676 28.9013 42.4201 28.8575 42.4726Z" fill="#3F4C52"/>
<path d="M28.9976 42.3237L25.3138 40.3199C25.3663 40.2674 25.4276 40.2237 25.4888 40.1799L29.1813 42.1837C29.1113 42.2274 29.0501 42.2712 28.9976 42.3237Z" fill="#404F55"/>
<path d="M29.1726 42.1838L25.4801 40.1801C25.5501 40.1276 25.6289 40.0838 25.7076 40.0488L29.4001 42.0526C29.3214 42.0963 29.2426 42.1401 29.1726 42.1838Z" fill="#445157"/>
<path d="M29.4001 42.0525L25.7076 40.0488C25.8389 39.9875 25.9789 39.9438 26.1189 39.9263L29.8026 41.93C29.6714 41.9563 29.5314 41.9913 29.4001 42.0525Z" fill="#46545A"/>
<path d="M29.8113 41.93C30.5988 41.8163 31.2288 42.42 31.2288 43.2513C31.2288 44.1 30.5901 44.87 29.8025 44.9838C29.0238 45.0888 28.3938 44.4938 28.3938 43.6538C28.3938 42.8138 29.0325 42.0438 29.8113 41.93Z" fill="#5C6E76"/>
<path d="M7.77879 49.7438L4.08629 47.74C3.47379 47.4075 3.07129 46.725 3.07129 45.885L6.75504 47.8888C6.76379 48.7288 7.16629 49.4025 7.77879 49.7438Z" fill="#787878"/>
<path d="M6.7725 43.1462L3.08875 41.1425L49.175 34.6675L52.8587 36.6712L6.7725 43.1462Z" fill="#A2A2A1"/>
<path d="M6.77254 43.1461L52.8588 36.6711L52.85 41.4049C52.85 42.7086 51.8613 43.9074 50.6538 44.0736L35.0525 46.2699L24.5438 47.7486L8.95129 49.9361C7.74379 50.1024 6.76379 49.1836 6.76379 47.8799L6.77254 43.1461ZM29.8025 44.9924C30.59 44.8786 31.22 44.1086 31.2288 43.2599C31.2288 42.4199 30.5988 41.8249 29.8113 41.9386C29.0325 42.0436 28.3938 42.8224 28.3938 43.6624C28.3938 44.5024 29.0238 45.0974 29.8025 44.9924Z" fill="#C8C8C8"/>
<path d="M6.76383 47.8801L3.08008 45.8763L3.08883 41.1426L6.77258 43.1463L6.76383 47.8801Z" fill="#767676"/>
<path d="M49.6563 34.3788L45.9725 32.375C46.025 32.3663 46.0775 32.3488 46.1213 32.3313L49.805 34.3351C49.7613 34.3613 49.7088 34.37 49.6563 34.3788Z" fill="#36484C"/>
<path d="M49.805 34.3349L46.1212 32.3311C46.1475 32.3136 46.1737 32.3049 46.2 32.2874L49.8837 34.2911C49.8575 34.3086 49.8312 34.3261 49.805 34.3349Z" fill="#34464A"/>
<path d="M49.8838 34.2912L46.2001 32.2874C46.2176 32.2699 46.2438 32.2612 46.2613 32.2437L49.9451 34.2474C49.9276 34.2562 49.9101 34.2737 49.8838 34.2912Z" fill="#334448"/>
<path d="M49.945 34.2386L46.2612 32.2349C46.2787 32.2174 46.2962 32.1999 46.3137 32.1824L49.9975 34.1861C49.98 34.2124 49.9625 34.2299 49.945 34.2386Z" fill="#314245"/>
<path d="M49.9975 34.1949L46.3137 32.1912C46.3312 32.1737 46.34 32.1562 46.3575 32.1387L50.0412 34.1424C50.0237 34.1512 50.015 34.1774 49.9975 34.1949Z" fill="#2F4043"/>
<path d="M50.0413 34.1336L46.3575 32.1299C46.375 32.1124 46.3838 32.0861 46.4013 32.0686L50.0938 34.0724C50.0675 34.0899 50.0588 34.1161 50.0413 34.1336Z" fill="#2E3D41"/>
<path d="M50.0851 34.0725L46.3926 32.0687C46.4101 32.0425 46.4188 32.0162 46.4276 31.99L50.1201 33.9937C50.1113 34.02 50.0938 34.0462 50.0851 34.0725Z" fill="#2C3B3F"/>
<path d="M50.12 33.985L46.4275 31.9812C46.4537 31.9112 46.4625 31.8412 46.4625 31.7625L50.155 33.7662C50.155 33.845 50.1462 33.9237 50.12 33.985Z" fill="#2B393C"/>
<path d="M50.1549 33.7749L46.4712 31.7624L46.5237 3.36865L50.2074 5.3724L50.1549 33.7749Z" fill="#29373A"/>
<path d="M45.9724 30.6338L42.2887 28.6301C42.3587 28.6213 42.4374 28.5951 42.4987 28.5688L46.1912 30.5726C46.1124 30.5988 46.0424 30.6251 45.9724 30.6338Z" fill="#9D9FA2"/>
<path d="M46.1825 30.5725L42.49 28.5688C42.5337 28.5513 42.5687 28.525 42.6037 28.4988L46.2875 30.5025C46.2612 30.5288 46.2262 30.5463 46.1825 30.5725Z" fill="#999B9D"/>
<path d="M46.2962 30.5025L42.6124 28.4987C42.6387 28.4812 42.6737 28.455 42.6999 28.4287L46.3837 30.4325C46.3574 30.4587 46.3312 30.485 46.2962 30.5025Z" fill="#949798"/>
<path d="M46.3837 30.4326L42.7 28.4289C42.7262 28.4026 42.7525 28.3851 42.77 28.3589L46.4625 30.3626C46.4362 30.3889 46.41 30.4064 46.3837 30.4326Z" fill="#8F9393"/>
<path d="M46.4624 30.3625L42.7699 28.3588C42.7961 28.3325 42.8136 28.3063 42.8311 28.28L46.5236 30.2838C46.5061 30.31 46.4799 30.3363 46.4624 30.3625Z" fill="#8C8E8E"/>
<path d="M46.5237 30.275L42.8312 28.2713C42.8487 28.245 42.8749 28.21 42.8924 28.175L46.5849 30.1788C46.5674 30.2138 46.5412 30.2488 46.5237 30.275Z" fill="#868889"/>
<path d="M46.585 30.1875L42.8925 28.1838C42.91 28.1488 42.9275 28.105 42.945 28.0613L46.6287 30.065C46.62 30.1 46.6025 30.1438 46.585 30.1875Z" fill="#818484"/>
<path d="M46.6375 30.0651L42.9537 28.0613C42.9887 27.9651 43.0062 27.8601 43.0062 27.7551C43.0062 27.4838 42.875 27.2563 42.6737 27.1426L46.3575 29.1463C46.5587 29.2601 46.69 29.4788 46.69 29.7588C46.69 29.8638 46.6725 29.9688 46.6375 30.0651Z" fill="#7D7F80"/>
<path d="M45.9725 29.0761L42.28 27.0724C42.3675 27.0636 42.4463 27.0636 42.525 27.0811L46.2175 29.0849C46.1475 29.0761 46.06 29.0674 45.9725 29.0761Z" fill="#848080"/>
<path d="M46.2175 29.0936L42.525 27.0898C42.5688 27.0986 42.6038 27.1161 42.6388 27.1336L46.3313 29.1373C46.2963 29.1198 46.2613 29.1023 46.2175 29.0936Z" fill="#807D7D"/>
<path d="M46.3313 29.1375L42.6476 27.125C42.6563 27.125 42.6651 27.1338 42.6738 27.1338L46.3576 29.1375C46.3488 29.1462 46.3401 29.1375 46.3313 29.1375Z" fill="#7C7979"/>
<path d="M45.9812 24.6138L42.2975 22.6101C42.3675 22.6013 42.4462 22.5751 42.5075 22.5488L46.1912 24.5526C46.13 24.5788 46.06 24.5963 45.9812 24.6138Z" fill="#9D9FA2"/>
<path d="M46.1912 24.5437L42.5074 22.54C42.5512 22.5225 42.5862 22.4962 42.6212 22.47L46.3049 24.4737C46.2699 24.5087 46.2349 24.5262 46.1912 24.5437Z" fill="#999B9D"/>
<path d="M46.3138 24.4824L42.63 22.4787C42.6563 22.4612 42.6913 22.4349 42.7175 22.4087L46.41 24.4124C46.3663 24.4387 46.34 24.4562 46.3138 24.4824Z" fill="#949798"/>
<path d="M46.4012 24.4126L42.7087 22.4089C42.735 22.3826 42.7612 22.3651 42.7787 22.3389L46.4625 24.3426C46.445 24.3601 46.4275 24.3864 46.4012 24.4126Z" fill="#8F9393"/>
<path d="M46.4712 24.3337L42.7875 22.33C42.8137 22.3037 42.8312 22.2775 42.8487 22.2512L46.5325 24.255C46.515 24.2812 46.4975 24.3075 46.4712 24.3337Z" fill="#8C8E8E"/>
<path d="M46.5325 24.255L42.8488 22.2513C42.8663 22.225 42.8925 22.19 42.91 22.155L46.5938 24.1588C46.5763 24.1938 46.5588 24.2288 46.5325 24.255Z" fill="#868889"/>
<path d="M46.5938 24.1587L42.91 22.155C42.9275 22.12 42.945 22.0762 42.9625 22.0325L46.655 24.0362C46.6288 24.08 46.6113 24.1237 46.5938 24.1587Z" fill="#818484"/>
<path d="M46.6462 24.0363L42.9537 22.0325C42.9887 21.9363 43.0062 21.8313 43.0062 21.7263C43.0062 21.455 42.875 21.2275 42.6737 21.1138L46.3575 23.1175C46.5587 23.2313 46.69 23.45 46.69 23.73C46.7075 23.8438 46.6812 23.94 46.6462 24.0363Z" fill="#7D7F80"/>
<path d="M45.9812 23.0564L42.2887 21.0526C42.3762 21.0439 42.4549 21.0439 42.5337 21.0614L46.2262 23.0651C46.1562 23.0476 46.0687 23.0476 45.9812 23.0564Z" fill="#848080"/>
<path d="M46.235 23.0738L42.5425 21.0701C42.5862 21.0788 42.6212 21.0963 42.6562 21.1138L46.3487 23.1176C46.3137 23.0913 46.27 23.0826 46.235 23.0738Z" fill="#807D7D"/>
<path d="M46.3486 23.109L42.6561 21.1052C42.6649 21.1052 42.6736 21.114 42.6824 21.114L46.3661 23.1177C46.3574 23.1177 46.3574 23.1177 46.3486 23.109Z" fill="#7C7979"/>
<path d="M43.1988 18.4275L39.515 16.4237C39.55 16.3625 39.585 16.3012 39.62 16.24L43.3038 18.2437C43.2775 18.305 43.2425 18.3662 43.1988 18.4275Z" fill="#868889"/>
<path d="M43.3125 18.2438L39.6288 16.2401C39.69 16.1263 39.7425 16.0038 39.7863 15.8813L43.47 17.8851C43.4263 18.0076 43.3738 18.1301 43.3125 18.2438Z" fill="#818484"/>
<path d="M43.47 17.8851L39.7863 15.8814C39.8038 15.8289 39.8213 15.7676 39.8388 15.7151C39.9175 15.4526 39.9525 15.1639 39.9613 14.8576C39.9613 14.5601 39.9263 14.3064 39.8388 14.0876C39.7513 13.8601 39.6463 13.6676 39.5063 13.5101C39.3925 13.3876 39.2613 13.2826 39.1125 13.2039L42.7963 15.2076C42.945 15.2864 43.0763 15.3914 43.19 15.5139C43.33 15.6714 43.4438 15.8639 43.5226 16.0914C43.6101 16.3101 43.6451 16.5726 43.6451 16.8614C43.6451 17.1676 43.6013 17.4564 43.5226 17.7189C43.5138 17.7714 43.4875 17.8326 43.47 17.8851Z" fill="#7D7F80"/>
<path d="M42.7 18.9876L39.0162 16.9839C39.0425 16.9664 39.0687 16.9401 39.0862 16.9226L42.77 18.9264C42.7525 18.9439 42.7262 18.9701 42.7 18.9876Z" fill="#949798"/>
<path d="M42.7787 18.9264L39.095 16.9227C39.165 16.8614 39.2262 16.7914 39.2875 16.7214L42.98 18.7252C42.91 18.7952 42.8487 18.8652 42.7787 18.9264Z" fill="#8F9393"/>
<path d="M42.9712 18.725L39.2787 16.7212C39.3487 16.6337 39.4187 16.5462 39.4887 16.4587L43.1812 18.4625C43.1112 18.55 43.0412 18.6462 42.9712 18.725Z" fill="#8C8E8E"/>
<path d="M43.1813 18.4626L39.4888 16.4588C39.4975 16.4501 39.5063 16.4326 39.515 16.4238L43.1988 18.4276C43.19 18.4363 43.19 18.4538 43.1813 18.4626Z" fill="#868889"/>
<path d="M43.47 17.8851L39.7863 15.8814C39.8038 15.8289 39.8213 15.7676 39.8388 15.7151C39.9175 15.4526 39.9525 15.1639 39.9613 14.8576C39.9613 14.5601 39.9263 14.3064 39.8388 14.0876C39.7513 13.8601 39.6463 13.6676 39.5063 13.5101C39.3925 13.3876 39.2613 13.2826 39.1125 13.2039L42.7963 15.2076C42.945 15.2864 43.0763 15.3914 43.19 15.5139C43.33 15.6714 43.4438 15.8639 43.5226 16.0914C43.6101 16.3101 43.6451 16.5726 43.6451 16.8614C43.6451 17.1676 43.6013 17.4564 43.5226 17.7189C43.5138 17.7714 43.4875 17.8326 43.47 17.8851Z" fill="#7D7F80"/>
<path d="M50.2075 5.37248L46.515 3.36873C46.515 3.17623 46.4275 3.01873 46.2875 2.94873L49.98 4.95248C50.12 5.02248 50.2075 5.17998 50.2075 5.37248Z" fill="#2B393C"/>
<path d="M42.07 19.4162L38.3862 17.4124C38.5087 17.3512 38.6225 17.2812 38.7275 17.2112L42.42 19.2149C42.2975 19.2937 42.1837 19.3637 42.07 19.4162Z" fill="#999B9D"/>
<path d="M42.4025 19.2149L38.71 17.2111C38.815 17.1411 38.9112 17.0624 39.0075 16.9836L42.6912 18.9874C42.6037 19.0661 42.5075 19.1449 42.4025 19.2149Z" fill="#949798"/>
<path d="M49.7088 4.90887L46.025 2.89637C46.0863 2.88762 46.1475 2.88762 46.2 2.90512L49.8925 4.90887C49.8313 4.90012 49.77 4.90012 49.7088 4.90887Z" fill="#9D9FA2"/>
<path d="M49.8838 4.91753L46.2001 2.90503C46.2263 2.91378 46.2526 2.92253 46.2788 2.93128L49.9626 4.93503C49.9363 4.92628 49.9101 4.91753 49.8838 4.91753Z" fill="#999B9D"/>
<path d="M49.9626 4.94394L46.2788 2.94019C46.2876 2.94019 46.2876 2.94894 46.2963 2.94894L49.9888 4.95269C49.9713 4.94394 49.9713 4.94394 49.9626 4.94394Z" fill="#949798"/>
<path d="M43.47 17.8851L39.7863 15.8814C39.8038 15.8289 39.8213 15.7676 39.8388 15.7151C39.9175 15.4526 39.9525 15.1639 39.9613 14.8576C39.9613 14.5601 39.9263 14.3064 39.8388 14.0876C39.7513 13.8601 39.6463 13.6676 39.5063 13.5101C39.3925 13.3876 39.2613 13.2826 39.1125 13.2039L42.7963 15.2076C42.945 15.2864 43.0763 15.3914 43.19 15.5139C43.33 15.6714 43.4438 15.8639 43.5226 16.0914C43.6101 16.3101 43.6451 16.5726 43.6451 16.8614C43.6451 17.1676 43.6013 17.4564 43.5226 17.7189C43.5138 17.7714 43.4875 17.8326 43.47 17.8851Z" fill="#7D7F80"/>
<path d="M50.7325 2.03002L47.0487 0.0262657C47.3112 -0.00873429 47.565 0.00876571 47.8012 0.0612657L51.4937 2.06502C51.2575 2.00377 51.0037 1.98627 50.7325 2.03002Z" fill="#36484C"/>
<path d="M51.4936 2.06503L47.8011 0.0612793C47.9236 0.0962793 48.0374 0.131279 48.1511 0.192529L51.8436 2.19628C51.7299 2.14378 51.6074 2.10003 51.4936 2.06503Z" fill="#34464A"/>
<path d="M51.835 2.19638L48.1425 0.192627C48.1687 0.201377 48.1862 0.218877 48.2125 0.227627L51.8962 2.23138C51.8787 2.21388 51.8612 2.20513 51.835 2.19638Z" fill="#334448"/>
<path d="M43.47 17.8851L39.7863 15.8814C39.8038 15.8289 39.8213 15.7676 39.8388 15.7151C39.9175 15.4526 39.9525 15.1639 39.9613 14.8576C39.9613 14.5601 39.9263 14.3064 39.8388 14.0876C39.7513 13.8601 39.6463 13.6676 39.5063 13.5101C39.3925 13.3876 39.2613 13.2826 39.1125 13.2039L42.7963 15.2076C42.945 15.2864 43.0763 15.3914 43.19 15.5139C43.33 15.6714 43.4438 15.8639 43.5226 16.0914C43.6101 16.3101 43.6451 16.5726 43.6451 16.8614C43.6451 17.1676 43.6013 17.4564 43.5226 17.7189C43.5138 17.7714 43.4875 17.8326 43.47 17.8851Z" fill="#7D7F80"/>
<path d="M41.5888 18.1038L37.905 16.1C37.9138 16.0913 37.9138 16.0825 37.9225 16.0825L41.615 18.0863C41.5975 18.0863 41.5975 18.095 41.5888 18.1038Z" fill="#863E38"/>
<path d="M41.6063 18.0774L37.9138 16.0736C37.9488 16.0299 37.9838 15.9861 38.0188 15.9424L41.7113 17.9461C41.6763 17.9986 41.6413 18.0424 41.6063 18.0774Z" fill="#823C36"/>
<path d="M41.7113 17.955L38.0188 15.9513C38.0538 15.9075 38.08 15.855 38.1063 15.8113L41.79 17.815C41.7725 17.8588 41.7375 17.9113 41.7113 17.955Z" fill="#7D3A34"/>
<path d="M41.7987 17.815L38.115 15.8112C38.1325 15.7675 38.1587 15.7325 38.1762 15.6887L41.86 17.6925C41.8337 17.7275 41.8162 17.7712 41.7987 17.815Z" fill="#773832"/>
<path d="M40.4425 19.915L36.7588 17.9112C37.0825 17.8675 37.3713 17.7975 37.6425 17.7188C37.8438 17.6575 38.045 17.5875 38.2288 17.5L41.9125 19.5038C41.7288 19.5913 41.5275 19.6613 41.3263 19.7225C41.0638 19.8013 40.7663 19.8713 40.4425 19.915Z" fill="#9D9FA2"/>
<path d="M41.9125 19.4951L38.2288 17.4913C38.2813 17.4651 38.3338 17.4388 38.3863 17.4126L42.07 19.4163C42.0175 19.4426 41.965 19.4688 41.9125 19.4951Z" fill="#999B9D"/>
<path d="M41.1863 18.3838L37.5026 16.3801V16.3713L41.1863 18.3838Z" fill="#93433D"/>
<path d="M41.1863 18.3839L37.4938 16.3801C37.5638 16.3451 37.6338 16.3101 37.695 16.2664L41.3788 18.2701C41.3263 18.3051 41.265 18.3489 41.1863 18.3839Z" fill="#8E423B"/>
<path d="M41.3963 18.2613L37.7125 16.2575C37.765 16.2225 37.8175 16.1788 37.8613 16.1438L41.545 18.1475C41.4925 18.1913 41.4488 18.2263 41.3963 18.2613Z" fill="#8A4039"/>
<path d="M41.5451 18.1476L37.8613 16.1438C37.8788 16.1263 37.8963 16.1176 37.9051 16.1001L41.5888 18.1038C41.5713 18.1126 41.5626 18.1301 41.5451 18.1476Z" fill="#863E38"/>
<path d="M43.47 17.8851L39.7863 15.8814C39.8038 15.8289 39.8213 15.7676 39.8388 15.7151C39.9175 15.4526 39.9525 15.1639 39.9613 14.8576C39.9613 14.5601 39.9263 14.3064 39.8388 14.0876C39.7513 13.8601 39.6463 13.6676 39.5063 13.5101C39.3925 13.3876 39.2613 13.2826 39.1125 13.2039L42.7963 15.2076C42.945 15.2864 43.0763 15.3914 43.19 15.5139C43.33 15.6714 43.4438 15.8639 43.5226 16.0914C43.6101 16.3101 43.6451 16.5726 43.6451 16.8614C43.6451 17.1676 43.6013 17.4564 43.5226 17.7189C43.5138 17.7714 43.4875 17.8326 43.47 17.8851Z" fill="#7D7F80"/>
<path d="M41.8512 17.684L38.1675 15.6802C38.1762 15.6627 38.1762 15.654 38.185 15.6365L41.8687 17.6402C41.8687 17.6577 41.86 17.6752 41.8512 17.684Z" fill="#773832"/>
<path d="M41.8687 17.6401L38.185 15.6364C38.2375 15.4876 38.2637 15.3301 38.2637 15.1551C38.2637 14.9539 38.2287 14.7789 38.1675 14.6301L41.8512 16.6339C41.9125 16.7826 41.9475 16.9576 41.9475 17.1589C41.9562 17.3339 41.93 17.5001 41.8687 17.6401Z" fill="#743631"/>
<path d="M40.6088 18.5414L36.925 16.5377C37.1438 16.5114 37.3275 16.4589 37.4763 16.3889L41.1688 18.3927C41.0113 18.4627 40.8275 18.5064 40.6088 18.5414Z" fill="#93433D"/>
<path d="M41.1688 18.3926L37.4763 16.3889C37.4851 16.3889 37.4938 16.3801 37.5026 16.3801L41.1951 18.3839C41.1776 18.3839 41.1688 18.3926 41.1688 18.3926Z" fill="#8E423B"/>
<path d="M42.875 14.21L39.1913 12.2063C39.2 12.1888 39.2175 12.1625 39.2263 12.145L42.91 14.1488C42.9013 14.1663 42.8925 14.1838 42.875 14.21Z" fill="#868889"/>
<path d="M42.9101 14.1487L39.2263 12.145C39.2788 12.0575 39.3138 11.9612 39.3488 11.865L43.0413 13.8687C43.0063 13.965 42.9626 14.0612 42.9101 14.1487Z" fill="#818484"/>
<path d="M43.0413 13.8689L39.3488 11.8651C39.375 11.8039 39.3925 11.7339 39.41 11.6726L43.0938 13.6764C43.085 13.7376 43.0588 13.8076 43.0413 13.8689Z" fill="#7D7F80"/>
<path d="M41.86 16.6337L38.1763 14.63C38.115 14.4812 38.0275 14.3587 37.905 14.2712L41.5975 16.275C41.7113 16.3625 41.7988 16.485 41.86 16.6337Z" fill="#743631"/>
<path d="M41.5888 16.275L37.8963 14.2712C37.8613 14.245 37.835 14.2275 37.7913 14.21L41.475 16.2137C41.5188 16.2312 41.5538 16.2575 41.5888 16.275Z" fill="#743631"/>
<path d="M42.0525 15.0062L38.3688 13.0024C38.5 13.0112 38.6225 13.0287 38.745 13.0549L42.4375 15.0587C42.315 15.0324 42.1838 15.0149 42.0525 15.0062Z" fill="#93433D"/>
<path d="M42.4288 15.0675L38.7363 13.0637C38.8238 13.09 38.9026 13.1162 38.9901 13.1512C39.0076 13.16 39.0338 13.1687 39.0513 13.1775L42.7438 15.1812C42.7263 15.1725 42.7001 15.1637 42.6826 15.155C42.6038 15.1112 42.5163 15.085 42.4288 15.0675Z" fill="#8E423B"/>
<path d="M42.7438 15.1812L39.0513 13.1775C39.0688 13.1862 39.0863 13.195 39.1038 13.2037L42.7875 15.2075C42.7788 15.1987 42.7613 15.19 42.7438 15.1812Z" fill="#8A4039"/>
<path d="M42.0525 15.0063L38.3688 13.0026C38.4388 12.9588 38.5088 12.9151 38.5788 12.8713L42.2625 14.8751C42.1925 14.9276 42.1225 14.9713 42.0525 15.0063Z" fill="#999B9D"/>
<path d="M42.2626 14.875L38.5701 12.8713C38.6488 12.8188 38.7276 12.7575 38.7888 12.6963L42.4813 14.7C42.4201 14.7613 42.3413 14.8225 42.2626 14.875Z" fill="#949798"/>
<path d="M42.4813 14.7L38.7888 12.6963C38.8063 12.6788 38.8151 12.67 38.8326 12.6525C38.8763 12.6175 38.9113 12.5738 38.9463 12.53L42.6388 14.5338C42.6038 14.5775 42.5688 14.6125 42.5251 14.6563C42.5163 14.6738 42.4988 14.6913 42.4813 14.7Z" fill="#8F9393"/>
<path d="M42.6388 14.5426L38.9463 12.5388C38.99 12.4863 39.0425 12.4251 39.0775 12.3726L42.77 14.3763C42.735 14.4376 42.6913 14.4901 42.6388 14.5426Z" fill="#8C8E8E"/>
<path d="M42.7788 14.3763L39.0863 12.3725C39.1213 12.32 39.1563 12.2588 39.1913 12.2063L42.8751 14.21C42.8488 14.2625 42.8138 14.3238 42.7788 14.3763Z" fill="#868889"/>
<path d="M41.125 16.0912L37.4325 14.0874C37.4675 14.0962 37.5025 14.1049 37.5287 14.1137L41.2212 16.1174C41.195 16.0999 41.16 16.0999 41.125 16.0912Z" fill="#9D9FA2"/>
<path d="M41.2212 16.1087L37.5287 14.105C37.6162 14.1225 37.6862 14.1575 37.7562 14.1837L41.4487 16.1875C41.3787 16.1612 41.3087 16.135 41.2212 16.1087Z" fill="#999B9D"/>
<path d="M41.4487 16.1961L37.7562 14.1924C37.765 14.2011 37.7825 14.2011 37.7912 14.2099L41.475 16.2136C41.475 16.2049 41.4662 16.1961 41.4487 16.1961Z" fill="#949798"/>
<path d="M39.4275 18.7076L35.7438 16.7038L36.925 16.5376L40.6088 18.5413L39.4275 18.7076Z" fill="#9D4841"/>
<path d="M43.1024 13.6762L39.4187 11.6725C39.4624 11.48 39.4887 11.2787 39.4887 11.0687C39.4887 10.7012 39.4274 10.3775 39.3049 10.115L42.9974 12.1187C43.1199 12.3812 43.1812 12.705 43.1812 13.0725C43.1724 13.2737 43.1462 13.475 43.1024 13.6762Z" fill="#7D7F80"/>
<path d="M38.3163 20.2126L34.6238 18.2088L36.7588 17.9026L40.4425 19.9151L38.3163 20.2126Z" fill="#ABADAD"/>
<path d="M40.3987 16.1088L36.715 14.105C37.0125 14.0613 37.2575 14.0525 37.4412 14.0875L41.125 16.0913C40.9412 16.0563 40.6962 16.065 40.3987 16.1088Z" fill="#9D9FA2"/>
<path d="M38.0275 20.1688L34.335 18.165C34.3437 18.165 34.3437 18.1738 34.3525 18.1738L38.0362 20.1775C38.0362 20.1688 38.0362 20.1688 38.0275 20.1688Z" fill="#949798"/>
<path d="M38.045 20.1776L34.3612 18.1738C34.3875 18.1826 34.4137 18.2001 34.44 18.2001L38.1325 20.2038C38.0975 20.1951 38.0712 20.1863 38.045 20.1776Z" fill="#999B9D"/>
<path d="M38.1237 20.2037L34.4312 18.2C34.4924 18.2175 34.5537 18.2175 34.6237 18.2087L38.3162 20.2125C38.2462 20.2212 38.1762 20.2212 38.1237 20.2037Z" fill="#9D9FA2"/>
<path d="M42.9887 12.1187L39.2962 10.1149C39.165 9.86119 38.99 9.65119 38.7625 9.50244L42.455 11.5062C42.6912 11.6549 42.8662 11.8562 42.9887 12.1187Z" fill="#7D7F80"/>
<path d="M42.455 11.5062L38.7625 9.50249C38.7363 9.48499 38.7188 9.47624 38.6925 9.45874L42.385 11.4625C42.4113 11.48 42.4288 11.4887 42.455 11.5062Z" fill="#7D7F80"/>
<path d="M38.0275 20.1688L34.335 18.165C34.3175 18.1563 34.2913 18.1388 34.2738 18.13C34.1775 18.0513 34.1338 17.92 34.1338 17.7275L37.8263 19.7313C37.8263 19.9238 37.87 20.0638 37.9663 20.1338C37.9925 20.1425 38.01 20.1513 38.0275 20.1688Z" fill="#743631"/>
<path d="M40.355 14.8313L36.6713 12.8275C36.8638 12.8013 37.03 12.7575 37.1613 12.6963L40.8538 14.7C40.7138 14.7613 40.5475 14.805 40.355 14.8313Z" fill="#93433D"/>
<path d="M40.845 14.7001L37.1525 12.6964C37.1787 12.6876 37.205 12.6701 37.2225 12.6614L40.9062 14.6651C40.8887 14.6739 40.8712 14.6826 40.845 14.7001Z" fill="#8E423B"/>
<path d="M39.4275 18.7076L35.7438 16.7038V14.2363L39.4363 16.2401L39.4275 18.7076Z" fill="#7B7D7E"/>
<path d="M39.4363 16.24L35.7438 14.2362L36.715 14.105L40.3988 16.1087L39.4363 16.24Z" fill="#ABADAD"/>
<path d="M40.9149 14.6563L37.2312 12.6525C37.2662 12.635 37.31 12.6088 37.345 12.5825L41.0375 14.5863C40.9937 14.6125 40.9499 14.6388 40.9149 14.6563Z" fill="#8E423B"/>
<path d="M41.0287 14.5864L37.3362 12.5826C37.3712 12.5564 37.4149 12.5301 37.4412 12.4951L41.1249 14.4989C41.0987 14.5339 41.0637 14.5601 41.0287 14.5864Z" fill="#8A4039"/>
<path d="M41.1337 14.5075L37.45 12.5038C37.4762 12.4775 37.5112 12.4513 37.5375 12.4163L41.2299 14.42C41.1949 14.4463 41.1687 14.4813 41.1337 14.5075Z" fill="#863E38"/>
<path d="M41.2212 14.4201L37.5287 12.4163C37.5462 12.3988 37.5549 12.3813 37.5724 12.3638C37.5812 12.3463 37.5987 12.3288 37.6074 12.3201L41.2999 14.3238C41.2912 14.3413 41.2737 14.3588 41.2649 14.3676C41.2474 14.3851 41.2387 14.4026 41.2212 14.4201Z" fill="#823C36"/>
<path d="M41.2999 14.3152L37.6074 12.3114C37.6337 12.2677 37.6599 12.2239 37.6862 12.1802L41.3699 14.1839C41.3524 14.2364 41.3262 14.2802 41.2999 14.3152Z" fill="#7D3A34"/>
<path d="M41.3787 14.1925L37.6949 12.1887C37.7212 12.1362 37.7474 12.0837 37.7649 12.0225L41.4574 14.0262C41.4312 14.0787 41.4049 14.14 41.3787 14.1925Z" fill="#773832"/>
<path d="M41.4574 14.0263L37.7649 12.0226C37.7737 12.0051 37.7824 11.9788 37.7824 11.9613C37.8262 11.8126 37.8524 11.6638 37.8524 11.5063C37.8524 11.3313 37.8262 11.1826 37.7737 11.0513C37.7212 10.9201 37.6512 10.8151 37.5549 10.7363L41.2474 12.7401C41.3437 12.8276 41.4137 12.9238 41.4662 13.0551C41.5187 13.1863 41.5449 13.3351 41.5449 13.5101C41.5449 13.6676 41.5187 13.8163 41.4749 13.9651C41.4662 13.9826 41.4574 14.0088 41.4574 14.0263Z" fill="#743631"/>
<path d="M41.2475 12.74L37.555 10.7363C37.5287 10.71 37.4937 10.6925 37.4587 10.675L41.1425 12.6788C41.1862 12.6963 41.2212 12.7138 41.2475 12.74Z" fill="#743631"/>
<path d="M39.4362 14.9538L35.7524 12.9501L36.6624 12.8188L40.3549 14.8313L39.4362 14.9538Z" fill="#9D4841"/>
<path d="M40.2675 12.6L36.575 10.5875C36.8287 10.5525 37.03 10.5437 37.1875 10.57C37.2137 10.5787 37.24 10.5787 37.2575 10.5875L40.9412 12.5912C40.915 12.5825 40.8887 12.5825 40.8712 12.5737C40.7137 12.5562 40.5212 12.5562 40.2675 12.6Z" fill="#9D9FA2"/>
<path d="M40.95 12.5999L37.2662 10.5962C37.3275 10.6137 37.3887 10.6312 37.4412 10.6574L41.125 12.6612C41.0725 12.6349 41.0112 12.6174 40.95 12.5999Z" fill="#999B9D"/>
<path d="M41.125 12.6612L37.4325 10.6575C37.4412 10.6662 37.45 10.6662 37.4587 10.675L41.1425 12.6787C41.1425 12.67 41.1337 12.67 41.125 12.6612Z" fill="#949798"/>
<path d="M39.4449 12.7137L35.7524 10.7012L36.5749 10.5874L40.2674 12.5999L39.4449 12.7137Z" fill="#ABADAD"/>
<path d="M39.4362 14.9537L35.7524 12.9499V10.7012L39.4449 12.7137L39.4362 14.9537Z" fill="#7B7D7E"/>
<path d="M43.5225 16.0912C43.61 16.31 43.645 16.5725 43.645 16.8612C43.645 17.1675 43.6013 17.4562 43.5225 17.7187C43.4438 17.9812 43.33 18.2175 43.1988 18.4275C43.0588 18.6375 42.8925 18.83 42.7 18.9875C42.5075 19.1537 42.2975 19.3025 42.0613 19.4162C41.825 19.5387 41.58 19.635 41.3263 19.7137C41.0638 19.7925 40.7663 19.8625 40.4425 19.9062L38.3075 20.2037C38.1675 20.2212 38.0538 20.1862 37.9663 20.1162C37.87 20.0375 37.8263 19.9062 37.8263 19.7137L37.8438 12.1625C37.8438 11.97 37.8875 11.8125 37.9838 11.7162C38.0713 11.6112 38.1938 11.55 38.325 11.5325L40.3375 11.2525C40.8275 11.1825 41.2475 11.1737 41.5888 11.2087C41.93 11.2525 42.2188 11.3487 42.4463 11.4975C42.6825 11.6462 42.8575 11.8562 42.98 12.11C43.1025 12.3725 43.1638 12.6962 43.1638 13.0637C43.1638 13.2737 43.1375 13.475 43.0938 13.6675C43.0413 13.86 42.9713 14.035 42.875 14.2012C42.7875 14.3675 42.665 14.5162 42.525 14.6562C42.385 14.7875 42.2275 14.9012 42.0525 15.0062C42.28 15.015 42.49 15.0675 42.6825 15.1462C42.875 15.2337 43.0413 15.3562 43.19 15.505C43.33 15.6712 43.4438 15.8637 43.5225 16.0912ZM41.8513 17.6837C41.9125 17.5262 41.9475 17.3512 41.9475 17.1587C41.9475 16.9575 41.9125 16.7825 41.8513 16.6337C41.79 16.485 41.7025 16.3625 41.58 16.275C41.4663 16.1875 41.3088 16.1262 41.1163 16.0912C40.9325 16.065 40.6875 16.065 40.39 16.1087L39.4275 16.2487L39.4188 18.7075L40.6 18.5412C40.8275 18.5062 41.02 18.4625 41.1775 18.3837C41.3263 18.3137 41.4663 18.2175 41.58 18.1037C41.7025 17.9812 41.79 17.8412 41.8513 17.6837ZM39.445 12.7137V14.9625L40.355 14.8312C40.5913 14.7962 40.775 14.7437 40.915 14.665C41.055 14.5862 41.1775 14.49 41.265 14.3675C41.3525 14.2537 41.4313 14.1137 41.475 13.965C41.5188 13.8162 41.545 13.6675 41.545 13.51C41.545 13.335 41.5188 13.1862 41.4663 13.055C41.4138 12.9237 41.3438 12.8187 41.2475 12.74C41.1425 12.6612 41.02 12.6087 40.8713 12.5825C40.7138 12.5562 40.5125 12.565 40.2588 12.6L39.445 12.7137Z" fill="#C25950"/>
<path d="M41.1862 18.3837C41.0287 18.4624 40.8362 18.5062 40.6087 18.5412L39.4275 18.7074L39.4362 16.2487L40.3987 16.1087C40.6962 16.0649 40.9412 16.0562 41.125 16.0912C41.3087 16.1262 41.4662 16.1874 41.5887 16.2749C41.7112 16.3624 41.7987 16.4849 41.86 16.6337C41.9212 16.7824 41.9562 16.9574 41.9562 17.1587C41.9562 17.3512 41.9212 17.5262 41.86 17.6837C41.7987 17.8412 41.7025 17.9812 41.5975 18.0949C41.475 18.2174 41.335 18.3137 41.1862 18.3837Z" fill="#D2D5D7"/>
<path d="M41.5974 11.2176L37.9137 9.21387C38.0274 9.23137 38.1324 9.24887 38.2374 9.27512L41.9299 11.2789C41.8162 11.2526 41.7112 11.2351 41.5974 11.2176Z" fill="#93433D"/>
<path d="M41.9211 11.2789L38.2286 9.27515C38.3774 9.31015 38.5086 9.36265 38.6311 9.4239L42.3236 11.4276C42.1924 11.3664 42.0611 11.3226 41.9211 11.2789Z" fill="#8E423B"/>
<path d="M42.3149 11.4276L38.6224 9.42383C38.6487 9.43258 38.6662 9.45008 38.6837 9.45883L42.3762 11.4626C42.3587 11.4538 42.3412 11.4363 42.3149 11.4276Z" fill="#8A4039"/>
<path d="M40.3462 11.2613L36.6625 9.25759C37.1525 9.18759 37.5725 9.17884 37.9137 9.21384L41.5975 11.2176C41.2562 11.1826 40.8362 11.1913 40.3462 11.2613Z" fill="#93433D"/>
<path d="M38.325 11.5501L34.6412 9.53757L36.6537 9.25757L40.3462 11.2613L38.325 11.5501Z" fill="#9D4841"/>
<path d="M37.8262 19.7225L34.1425 17.7187L34.1512 10.1675L37.8437 12.1712L37.8262 19.7225Z" fill="#713530"/>
<path d="M37.9838 11.7252L34.3 9.72144L37.9838 11.7252Z" fill="#823C36"/>
<path d="M37.9838 11.725L34.3 9.72124C34.3175 9.70374 34.3263 9.68624 34.3438 9.67749L38.0275 11.6812C38.0188 11.6987 38.0013 11.7075 37.9838 11.725Z" fill="#863E38"/>
<path d="M38.0275 11.6813L34.3438 9.67754C34.3612 9.66004 34.3788 9.65129 34.3963 9.63379L38.0887 11.6375C38.0625 11.655 38.045 11.6638 38.0275 11.6813Z" fill="#8A4039"/>
<path d="M38.0889 11.6376L34.3964 9.63384C34.4226 9.61634 34.4489 9.59884 34.4751 9.59009L38.1589 11.5938C38.1326 11.6113 38.1064 11.6201 38.0889 11.6376Z" fill="#8E423B"/>
<path d="M38.1588 11.5938L34.4751 9.5901C34.5276 9.56385 34.5888 9.54635 34.6413 9.5376L38.3338 11.5413C38.2726 11.5588 38.2113 11.5676 38.1588 11.5938Z" fill="#93433D"/>
<path d="M37.8437 12.1712L34.1512 10.1674C34.1512 10.0537 34.1687 9.96616 34.195 9.87866L37.8787 11.8824C37.8525 11.9699 37.8437 12.0662 37.8437 12.1712Z" fill="#743631"/>
<path d="M37.8875 11.8912L34.2037 9.88742C34.2125 9.86117 34.2212 9.84367 34.23 9.82617L37.9225 11.8299C37.905 11.8474 37.8962 11.8649 37.8875 11.8912Z" fill="#773832"/>
<path d="M37.9138 11.8212L34.2213 9.81743C34.2301 9.79993 34.2388 9.79118 34.2476 9.77368L37.9401 11.7774C37.9313 11.7949 37.9226 11.8037 37.9138 11.8212Z" fill="#7D3A34"/>
<path d="M37.9401 11.7775L34.2476 9.77377C34.2563 9.76502 34.2651 9.74752 34.2738 9.73877L37.9576 11.7425C37.9576 11.7513 37.9488 11.7688 37.9401 11.7775Z" fill="#823C36"/>
<path d="M37.9662 11.7424L34.2825 9.73869C34.2912 9.72994 34.2912 9.72994 34.3 9.72119L37.9925 11.7249C37.9837 11.7337 37.975 11.7424 37.9662 11.7424Z" fill="#863E38"/>
<path d="M31.5962 20.615L27.9125 18.6113C27.9825 18.6025 28.0525 18.5763 28.1225 18.55L31.815 20.5538C31.7362 20.58 31.6662 20.5975 31.5962 20.615Z" fill="#9D9FA2"/>
<path d="M31.8063 20.5449L28.1138 18.5412C28.1575 18.5237 28.1925 18.4974 28.2275 18.4712L31.9113 20.4749C31.885 20.5099 31.8413 20.5274 31.8063 20.5449Z" fill="#999B9D"/>
<path d="M31.92 20.4837L28.2362 18.4799C28.2625 18.4624 28.2975 18.4362 28.3237 18.4099L32.0075 20.4137C31.9812 20.4399 31.9462 20.4574 31.92 20.4837Z" fill="#949798"/>
<path d="M32.0075 20.4138L28.3237 18.41C28.35 18.3838 28.3762 18.3575 28.3937 18.3313L32.0862 20.335C32.06 20.3613 32.0337 20.3875 32.0075 20.4138Z" fill="#8F9393"/>
<path d="M32.0775 20.3349L28.385 18.3312C28.4113 18.3049 28.4288 18.2787 28.4463 18.2524L32.1388 20.2562C32.1213 20.2824 32.1038 20.3087 32.0775 20.3349Z" fill="#8C8E8E"/>
<path d="M32.1475 20.2563L28.455 18.2525C28.4725 18.2263 28.4987 18.1913 28.5162 18.1562L32.2 20.16C32.1825 20.195 32.165 20.2213 32.1475 20.2563Z" fill="#868889"/>
<path d="M32.2088 20.1599L28.525 18.1562C28.5425 18.1212 28.56 18.0774 28.5775 18.0337L32.27 20.0374C32.2438 20.0812 32.2263 20.1162 32.2088 20.1599Z" fill="#818484"/>
<path d="M32.2612 20.0375L28.5687 18.0337C28.6037 17.9375 28.6212 17.8325 28.6212 17.7275C28.6212 17.4562 28.4899 17.2287 28.2887 17.115L31.9812 19.1187C32.1824 19.2325 32.3137 19.4512 32.3137 19.7312C32.3137 19.8362 32.2962 19.9412 32.2612 20.0375Z" fill="#7D7F80"/>
<path d="M31.5962 19.0576L27.9037 17.0538C27.9912 17.0451 28.0699 17.0451 28.1487 17.0626L31.8324 19.0663C31.7624 19.0488 31.6837 19.0488 31.5962 19.0576Z" fill="#3C869E"/>
<path d="M31.8412 19.075L28.1575 17.0713C28.2012 17.08 28.2362 17.0975 28.2712 17.115L31.955 19.1188C31.92 19.0925 31.885 19.0838 31.8412 19.075Z" fill="#3B8399"/>
<path d="M31.955 19.1102L28.2712 17.1064C28.28 17.1064 28.2887 17.1152 28.2975 17.1152L31.99 19.1189C31.9725 19.1189 31.9637 19.1189 31.955 19.1102Z" fill="#397F95"/>
<path d="M31.605 14.5862L27.9213 12.5825C27.9913 12.5737 28.0613 12.5475 28.1313 12.5212L31.8238 14.525C31.745 14.56 31.675 14.5775 31.605 14.5862Z" fill="#9D9FA2"/>
<path d="M31.8151 14.5249L28.1226 12.5212C28.1663 12.5037 28.2013 12.4774 28.2363 12.4512L31.9288 14.4549C31.8938 14.4812 31.8501 14.5074 31.8151 14.5249Z" fill="#999B9D"/>
<path d="M31.9288 14.4549L28.2363 12.4511C28.2626 12.4336 28.2976 12.4074 28.3238 12.3811L32.0163 14.3849C31.9901 14.4111 31.9638 14.4374 31.9288 14.4549Z" fill="#949798"/>
<path d="M32.0162 14.3938L28.3237 12.39C28.35 12.3638 28.3762 12.3375 28.3937 12.3113L32.0775 14.315C32.0687 14.3413 32.0425 14.3675 32.0162 14.3938Z" fill="#8F9393"/>
<path d="M32.095 14.3149L28.4113 12.3112C28.4375 12.2849 28.455 12.2587 28.4725 12.2324L32.165 14.2362C32.1388 14.2624 32.1125 14.2887 32.095 14.3149Z" fill="#8C8E8E"/>
<path d="M32.1562 14.2362L28.4637 12.2325C28.4812 12.2062 28.5075 12.1712 28.525 12.1362L32.2175 14.14C32.2 14.1662 32.1825 14.2012 32.1562 14.2362Z" fill="#868889"/>
<path d="M32.2175 14.1399L28.525 12.1362C28.5425 12.1012 28.5688 12.0574 28.5775 12.0137L32.2613 14.0174C32.2525 14.0524 32.235 14.0962 32.2175 14.1399Z" fill="#818484"/>
<path d="M32.27 14.0175L28.5863 12.0137C28.6213 11.9175 28.6388 11.8125 28.6388 11.7075C28.6388 11.4362 28.5075 11.2087 28.3063 11.095L31.9988 13.0987C32.2 13.2125 32.3313 13.4312 32.3313 13.7112C32.3225 13.8162 32.305 13.9212 32.27 14.0175Z" fill="#7D7F80"/>
<path d="M32.27 14.0175L28.5863 12.0137C28.6213 11.9175 28.6388 11.8125 28.6388 11.7075C28.6388 11.4362 28.5075 11.2087 28.3063 11.095L31.9988 13.0987C32.2 13.2125 32.3313 13.4312 32.3313 13.7112C32.3225 13.8162 32.305 13.9212 32.27 14.0175Z" fill="#7D7F80"/>
<path d="M31.605 13.0376L27.9213 11.0338C28.0088 11.0251 28.0875 11.0251 28.1663 11.0426L31.85 13.0463C31.78 13.0288 31.6925 13.0201 31.605 13.0376Z" fill="#3C869E"/>
<path d="M31.85 13.0462L28.1663 11.0425C28.21 11.0512 28.245 11.0687 28.28 11.0862L31.9638 13.09C31.9288 13.0725 31.8938 13.055 31.85 13.0462Z" fill="#3B8399"/>
<path d="M31.9726 13.0902L28.2888 11.0864C28.2976 11.0864 28.3063 11.0952 28.3151 11.0952L32.0076 13.0989C31.9813 13.0989 31.9726 13.0989 31.9726 13.0902Z" fill="#397F95"/>
<path d="M20.9563 28.1313L17.2638 26.1188L42.2975 22.6013L45.9813 24.6138L20.9563 28.1313Z" fill="#ABADAD"/>
<path d="M22.3825 27.8775L18.6987 25.8737L19.005 24.325L22.6975 26.3287L22.3825 27.8775Z" fill="#6B6868"/>
<path d="M22.6975 26.3287L19.005 24.325L42.2975 21.0525L45.9813 23.0562L22.6975 26.3287Z" fill="#8D8888"/>
<path d="M22.3824 27.8775L18.6987 25.8738L18.0074 25.2175L21.6912 27.23L22.3824 27.8775Z" fill="#354045"/>
<path d="M45.9813 23.0563C46.375 23.0038 46.6988 23.3013 46.6988 23.73C46.6988 24.1675 46.375 24.5525 45.9813 24.605L20.9563 28.1225L21.6913 27.2213L22.3825 27.8688L22.6975 26.32L45.9813 23.0563Z" fill="#AEA9A9"/>
<path d="M20.9563 28.1313L17.2638 26.1188L18.0075 25.2175L21.6913 27.23L20.9563 28.1313Z" fill="#7D7B7B"/>
<path d="M22.6975 26.3287L19.005 24.3249L19.5125 21.8049L23.205 23.8087L22.6975 26.3287Z" fill="#808284"/>
<path d="M19.4075 30.0124L15.7238 28.0087L17.2638 26.1187L20.9563 28.1312L19.4075 30.0124Z" fill="#979A9B"/>
<path d="M19.4688 26.7838L15.785 24.78L16.5463 23.8525L20.23 25.8563L19.4688 26.7838Z" fill="#435057"/>
<path d="M18.0337 28.5425L14.3412 26.53L15.7849 24.78L19.4687 26.7838L18.0337 28.5425Z" fill="#435057"/>
<path d="M17.9462 28.6388L14.2625 26.635L14.3412 26.53L18.0337 28.5425L17.9462 28.6388Z" fill="#435057"/>
<path d="M19.4075 30.0125L15.7237 28.0088L14.2625 26.635L17.9462 28.6388L19.4075 30.0125Z" fill="#354045"/>
<path d="M23.205 23.8088L22.6975 26.3288L22.3825 27.8776L21.6913 27.2301L20.9563 28.1313L19.4075 30.0126L17.9463 28.6388L18.0338 28.5426L19.4688 26.7838L20.23 25.8563L19.5388 25.2088L23.205 23.8088Z" fill="#5C6E76"/>
<path d="M20.23 25.8563L16.5462 23.8526L15.855 23.2051L19.5387 25.2088L20.23 25.8563Z" fill="#354045"/>
<path d="M19.5387 25.2087L15.855 23.2049L19.5125 21.8049L23.205 23.8087L19.5387 25.2087Z" fill="#4A5960"/>
<path d="M13.6937 35.1664L10.0012 33.1626L42.28 28.6301L45.9725 30.6339L13.6937 35.1664Z" fill="#ABADAD"/>
<path d="M13.3 35.1051L9.60754 33.1013C9.61629 33.1013 9.62504 33.1101 9.63379 33.1101L13.3175 35.1138C13.3088 35.1138 13.3088 35.1051 13.3 35.1051Z" fill="#949798"/>
<path d="M13.3175 35.1139L9.63379 33.1101C9.66879 33.1276 9.71254 33.1451 9.74754 33.1539L13.4313 35.1576C13.3963 35.1489 13.3525 35.1314 13.3175 35.1139Z" fill="#999B9D"/>
<path d="M13.4313 35.1576L9.74756 33.1538C9.82631 33.1713 9.91381 33.1801 10.0013 33.1626L13.6851 35.1663C13.5976 35.1838 13.5188 35.1751 13.4313 35.1576Z" fill="#9D9FA2"/>
<path d="M13.6938 33.6175L10.01 31.6138L42.2888 27.0725L45.9725 29.0763L13.6938 33.6175Z" fill="#8D8888"/>
<path d="M9.99255 39.9525L6.30005 37.9487L45.9725 32.375L49.6563 34.3788L9.99255 39.9525Z" fill="#3A4D52"/>
<path d="M13.2999 35.1049L9.61619 33.1012C9.41494 32.9962 9.28369 32.7687 9.28369 32.4974C9.28369 32.3924 9.30119 32.2874 9.33619 32.1912L13.0199 34.1949C12.9849 34.2912 12.9674 34.3962 12.9674 34.5012C12.9674 34.7724 13.0987 34.9912 13.2999 35.1049Z" fill="#686565"/>
<path d="M13.0199 34.1951L9.33618 32.1913C9.35368 32.1476 9.37118 32.1126 9.38868 32.0688L13.0812 34.0726C13.0549 34.1076 13.0374 34.1513 13.0199 34.1951Z" fill="#6C6969"/>
<path d="M13.0724 34.0724L9.37988 32.0687C9.39738 32.0337 9.41488 32.0074 9.44113 31.9724L13.1336 33.9762C13.1161 34.0024 13.0899 34.0374 13.0724 34.0724Z" fill="#706D6D"/>
<path d="M13.1337 33.9763L9.44116 31.9725C9.45866 31.9463 9.48491 31.92 9.50241 31.8938L13.1862 33.8975C13.1774 33.9238 13.1512 33.95 13.1337 33.9763Z" fill="#747171"/>
<path d="M13.2036 33.8974L9.5199 31.8937C9.54615 31.8674 9.56365 31.8412 9.5899 31.8149L13.2736 33.8187C13.2474 33.8449 13.2211 33.8712 13.2036 33.8974Z" fill="#787575"/>
<path d="M13.2737 33.8189L9.58997 31.8151C9.61622 31.7889 9.65122 31.7626 9.67747 31.7451L13.37 33.7489C13.335 33.7664 13.3 33.7926 13.2737 33.8189Z" fill="#7C7979"/>
<path d="M13.3612 33.7488L9.6687 31.745C9.7037 31.7188 9.74745 31.6925 9.7912 31.675L13.475 33.6788C13.44 33.6963 13.3962 33.7225 13.3612 33.7488Z" fill="#807D7D"/>
<path d="M13.4837 33.6788L9.79993 31.675C9.86993 31.64 9.93993 31.6225 10.0099 31.6138L13.7024 33.6175C13.6237 33.6263 13.5449 33.6525 13.4837 33.6788Z" fill="#848080"/>
<path d="M45.9725 29.0763C46.3663 29.0238 46.69 29.3213 46.69 29.7501C46.69 30.1876 46.3663 30.5726 45.9725 30.6251L13.6938 35.1576C13.2913 35.2101 12.9675 34.9126 12.9675 34.4838C12.9675 34.0551 13.2913 33.6613 13.6938 33.6088L45.9725 29.0763Z" fill="#AEA9A9"/>
<path d="M9.71252 39.9088L6.02002 37.905C6.02877 37.905 6.02877 37.9138 6.03752 37.9138L9.72127 39.9175C9.72127 39.9175 9.72127 39.9088 9.71252 39.9088Z" fill="#334448"/>
<path d="M9.73001 39.9176L6.04626 37.9138C6.07251 37.9226 6.09876 37.9401 6.12501 37.9401L9.81752 39.9438C9.78252 39.9438 9.75626 39.9263 9.73001 39.9176Z" fill="#34464A"/>
<path d="M9.80875 39.9437L6.125 37.9399C6.1775 37.9574 6.23875 37.9574 6.3 37.9487L9.9925 39.9524C9.9225 39.9612 9.87 39.9612 9.80875 39.9437Z" fill="#36484C"/>
<path d="M9.71248 39.9089L6.01998 37.9051C5.87998 37.8264 5.79248 37.6776 5.79248 37.4851L9.48498 39.4889C9.48498 39.6814 9.57248 39.8301 9.71248 39.9089Z" fill="#7D7F80"/>
<path d="M13.7025 29.1463L10.01 27.1425L14.3413 26.53L18.0338 28.5425L13.7025 29.1463Z" fill="#ABADAD"/>
<path d="M13.3088 29.0763L9.625 27.0725C9.63375 27.0725 9.6425 27.0813 9.65125 27.0813L13.3438 29.085C13.3263 29.085 13.3175 29.085 13.3088 29.0763Z" fill="#949798"/>
<path d="M13.335 29.0938L9.64246 27.0901C9.67746 27.1076 9.72121 27.1251 9.75621 27.1338L13.4487 29.1376C13.405 29.1201 13.37 29.1113 13.335 29.0938Z" fill="#999B9D"/>
<path d="M13.4487 29.1375L9.75623 27.125C9.83498 27.1425 9.92248 27.1513 10.01 27.1338L13.6937 29.1375C13.615 29.1637 13.5275 29.155 13.4487 29.1375Z" fill="#9D9FA2"/>
<path d="M13.7025 27.5975L10.0188 25.585L15.785 24.78L19.4688 26.7838L13.7025 27.5975Z" fill="#8D8888"/>
<path d="M13.3087 29.0763L9.62498 27.0725C9.42373 26.9675 9.29248 26.74 9.29248 26.4688L12.985 28.4725C12.9762 28.7525 13.1075 28.9713 13.3087 29.0763Z" fill="#686565"/>
<path d="M12.9762 28.4726L9.28369 26.4688C9.28369 26.3638 9.30119 26.2588 9.33619 26.1626L13.0287 28.1663C12.9937 28.2626 12.9762 28.3676 12.9762 28.4726Z" fill="#686565"/>
<path d="M13.0287 28.1663L9.33618 26.1625C9.35368 26.1188 9.37118 26.0838 9.38868 26.04L13.0812 28.0438C13.0637 28.0875 13.0462 28.1313 13.0287 28.1663Z" fill="#6C6969"/>
<path d="M13.09 28.0524L9.39746 26.0486C9.41496 26.0136 9.43246 25.9874 9.45871 25.9524L13.1512 27.9561C13.125 27.9824 13.1075 28.0174 13.09 28.0524Z" fill="#706D6D"/>
<path d="M13.1425 27.9563L9.44995 25.9525C9.46745 25.9263 9.4937 25.9 9.5112 25.8738L13.195 27.8775C13.1862 27.895 13.1687 27.9213 13.1425 27.9563Z" fill="#747171"/>
<path d="M13.2124 27.8686L9.52869 25.8649C9.55494 25.8386 9.57244 25.8124 9.59869 25.7861L13.2912 27.7899C13.2562 27.8161 13.2387 27.8424 13.2124 27.8686Z" fill="#787575"/>
<path d="M13.2825 27.7988L9.58997 25.7951C9.61622 25.7688 9.65122 25.7426 9.67747 25.7251L13.37 27.7288C13.3437 27.7463 13.3087 27.7726 13.2825 27.7988Z" fill="#7C7979"/>
<path d="M13.37 27.7288L9.67749 25.725C9.71249 25.6988 9.75624 25.6725 9.79999 25.655L13.4837 27.6588C13.4487 27.6763 13.4137 27.7025 13.37 27.7288Z" fill="#807D7D"/>
<path d="M13.4925 27.6588L9.80872 25.655C9.87872 25.62 9.94872 25.6025 10.0187 25.5938L13.7112 27.5975C13.6325 27.6063 13.5625 27.6238 13.4925 27.6588Z" fill="#848080"/>
<path d="M13.7112 23.1263L10.0275 21.1225L27.9037 18.6025L31.5962 20.615L13.7112 23.1263Z" fill="#ABADAD"/>
<path d="M13.3262 23.0562L9.64246 21.0525C9.65121 21.0525 9.65996 21.0612 9.66871 21.0612L13.3612 23.065C13.335 23.065 13.335 23.065 13.3262 23.0562Z" fill="#949798"/>
<path d="M13.3437 23.065L9.65125 21.0613C9.68625 21.0788 9.73 21.0963 9.765 21.105L13.4575 23.1088C13.4225 23.1 13.3787 23.0913 13.3437 23.065Z" fill="#999B9D"/>
<path d="M13.4574 23.1087L9.76489 21.105C9.84364 21.1225 9.93114 21.1312 10.0186 21.1137L13.7111 23.1175C13.6236 23.135 13.5361 23.135 13.4574 23.1087Z" fill="#9D9FA2"/>
<path d="M13.72 21.5687L10.0275 19.565L27.9125 17.0537L31.5962 19.0575L13.72 21.5687Z" fill="#418FA9"/>
<path d="M13.3263 23.0563L9.64256 21.0526C9.44131 20.9388 9.31006 20.7201 9.31006 20.4488C9.31006 20.3438 9.32756 20.2388 9.36256 20.1426L13.0551 22.1463C13.0201 22.2426 13.0026 22.3476 13.0026 22.4526C12.9851 22.7238 13.1251 22.9513 13.3263 23.0563Z" fill="#316B7D"/>
<path d="M13.0463 22.1463L9.35376 20.1425C9.37126 20.0988 9.38876 20.0638 9.40626 20.02L13.0988 22.0238C13.0813 22.0675 13.055 22.1025 13.0463 22.1463Z" fill="#336F82"/>
<path d="M13.0988 22.0238L9.40625 20.0201C9.42375 19.9851 9.44125 19.9588 9.4675 19.9238L13.16 21.9276C13.1337 21.9626 13.1163 21.9976 13.0988 22.0238Z" fill="#357387"/>
<path d="M13.16 21.9275L9.46753 19.9237C9.48503 19.8975 9.51128 19.8712 9.52878 19.845L13.2125 21.8487C13.195 21.875 13.1775 21.9012 13.16 21.9275Z" fill="#36778C"/>
<path d="M13.2213 21.8486L9.5376 19.8449C9.56385 19.8186 9.58135 19.7924 9.6076 19.7661L13.2913 21.7699C13.2738 21.7961 13.2476 21.8224 13.2213 21.8486Z" fill="#387B90"/>
<path d="M13.3001 21.77L9.61633 19.7663C9.64258 19.74 9.67758 19.7138 9.70383 19.6963L13.3963 21.7C13.3526 21.7263 13.3263 21.7525 13.3001 21.77Z" fill="#397F95"/>
<path d="M13.3876 21.7L9.69507 19.6962C9.73007 19.67 9.77382 19.6437 9.81757 19.6262L13.5013 21.63C13.4576 21.6562 13.4226 21.6825 13.3876 21.7Z" fill="#3B8399"/>
<path d="M13.5013 21.6387L9.8175 19.635C9.8875 19.6 9.9575 19.5825 10.0275 19.5737L13.7113 21.5775C13.6413 21.5862 13.5713 21.6037 13.5013 21.6387Z" fill="#3C869E"/>
<path d="M13.7288 17.1063L10.0363 15.0938L27.9125 12.5825L31.605 14.5863L13.7288 17.1063Z" fill="#ABADAD"/>
<path d="M13.3612 17.045L9.6687 15.0413C9.7037 15.0588 9.74745 15.0763 9.78245 15.085L13.4662 17.0888C13.4312 17.08 13.3962 17.0625 13.3612 17.045Z" fill="#999B9D"/>
<path d="M13.4749 17.0887L9.79114 15.085C9.86989 15.1025 9.95739 15.1112 10.0449 15.0937L13.7374 17.0975C13.6324 17.115 13.5536 17.1062 13.4749 17.0887Z" fill="#9D9FA2"/>
<path d="M13.335 17.0362L9.65125 15.0325C9.66 15.0325 9.66875 15.0412 9.6775 15.0412L13.37 17.045C13.3525 17.045 13.3437 17.0362 13.335 17.0362Z" fill="#949798"/>
<path d="M13.3612 17.045L9.6687 15.0413C9.7037 15.0588 9.74745 15.0763 9.78245 15.085L13.4662 17.0888C13.4312 17.08 13.3962 17.0625 13.3612 17.045Z" fill="#999B9D"/>
<path d="M13.7288 15.5487L10.0363 13.5449L27.9213 11.0337L31.605 13.0374L13.7288 15.5487Z" fill="#418FA9"/>
<path d="M13.335 17.0361L9.65123 15.0323C9.44998 14.9186 9.31873 14.6998 9.31873 14.4286C9.31873 14.3236 9.33623 14.2186 9.37123 14.1223L13.055 16.1261C13.02 16.2223 13.0025 16.3273 13.0025 16.4323C13.0025 16.7036 13.1337 16.9223 13.335 17.0361Z" fill="#316B7D"/>
<path d="M13.055 16.1263L9.37122 14.1225C9.38872 14.0787 9.40622 14.0438 9.42372 14L13.1075 16.0038C13.09 16.0388 13.0725 16.0825 13.055 16.1263Z" fill="#336F82"/>
<path d="M13.1075 16.0036L9.42371 13.9998C9.44121 13.9648 9.45871 13.9386 9.48496 13.9036L13.1687 15.9073C13.1512 15.9423 13.125 15.9686 13.1075 16.0036Z" fill="#357387"/>
<path d="M13.1687 15.9075L9.48499 13.9037C9.50249 13.8775 9.52874 13.8512 9.54624 13.825L13.2387 15.8287C13.2125 15.855 13.1862 15.8812 13.1687 15.9075Z" fill="#36778C"/>
<path d="M13.23 15.8286L9.53748 13.8248C9.56373 13.7986 9.58123 13.7723 9.60748 13.7461L13.3087 15.7498C13.2825 15.7761 13.2562 15.8023 13.23 15.8286Z" fill="#387B90"/>
<path d="M13.3087 15.75L9.61621 13.7463C9.64246 13.72 9.67746 13.6938 9.70371 13.6763L13.3962 15.68C13.3612 15.7063 13.335 15.7238 13.3087 15.75Z" fill="#397F95"/>
<path d="M13.3962 15.68L9.70374 13.6762C9.73874 13.65 9.78248 13.6237 9.82623 13.6062L13.51 15.61C13.475 15.6362 13.4312 15.6537 13.3962 15.68Z" fill="#3B8399"/>
<path d="M13.5099 15.6099L9.82617 13.6062C9.89617 13.5712 9.96617 13.5537 10.0362 13.5449L13.7287 15.5487C13.6499 15.5574 13.5799 15.5837 13.5099 15.6099Z" fill="#3C869E"/>
<path d="M10.045 10.4825L6.35254 8.46999L46.025 2.89624L49.7088 4.90874L10.045 10.4825Z" fill="#ABADAD"/>
<path d="M9.48498 39.4888L5.79248 37.485L5.84498 9.08252L9.53748 11.0863L9.48498 39.4888Z" fill="#7B7D7E"/>
<path d="M9.53747 11.0863L5.84497 9.08256C5.84497 9.01256 5.86247 8.94256 5.87997 8.87256L9.57247 10.8763C9.55497 10.9463 9.53747 11.0163 9.53747 11.0863Z" fill="#7D7F80"/>
<path d="M9.5725 10.885L5.88 8.8812C5.88875 8.85495 5.90626 8.81995 5.91501 8.7937L9.6075 10.7975C9.59875 10.8237 9.59 10.85 9.5725 10.885Z" fill="#818484"/>
<path d="M9.61621 10.7974L5.92371 8.79363C5.94121 8.76738 5.94996 8.74988 5.96746 8.72363L9.65121 10.7274C9.64246 10.7536 9.62496 10.7711 9.61621 10.7974Z" fill="#868889"/>
<path d="M9.65128 10.7274L5.96753 8.7236C5.97628 8.7061 5.99378 8.6886 6.01128 8.66235L9.70378 10.6661C9.68628 10.6924 9.66878 10.7099 9.65128 10.7274Z" fill="#8C8E8E"/>
<path d="M9.70373 10.6749L6.01123 8.66236C6.02873 8.64486 6.04623 8.62736 6.06373 8.60986L9.74748 10.6136C9.72998 10.6399 9.71248 10.6574 9.70373 10.6749Z" fill="#8F9393"/>
<path d="M9.74747 10.6224L6.06372 8.60991C6.08122 8.59241 6.10747 8.58366 6.12497 8.56616L9.80872 10.5699C9.79122 10.5874 9.77372 10.6049 9.74747 10.6224Z" fill="#949798"/>
<path d="M9.8175 10.57L6.125 8.56621C6.15125 8.54871 6.1775 8.53121 6.20375 8.52246L9.89625 10.5262C9.87 10.535 9.84375 10.5525 9.8175 10.57Z" fill="#999B9D"/>
<path d="M9.89624 10.5262L6.20374 8.51372C6.24749 8.48747 6.29999 8.47872 6.35249 8.46997L10.0362 10.4737C9.99249 10.4825 9.93999 10.5 9.89624 10.5262Z" fill="#9D9FA2"/>
<path d="M50.7325 2.02993C51.94 1.86368 52.92 2.78243 52.92 4.08618L52.8587 36.6712L6.77246 43.1462L6.83371 10.5612C6.83371 9.25743 7.81371 8.05868 9.02996 7.89243L50.7325 2.02993ZM50.155 33.7749L50.2075 5.37243C50.2075 5.07493 49.9887 4.86493 49.7087 4.89993L10.0362 10.4737C9.75621 10.5087 9.52871 10.7887 9.52871 11.0862L9.47621 39.4887C9.47621 39.7862 9.70371 39.9962 9.98371 39.9524L49.6562 34.3787C49.9362 34.3437 50.155 34.0724 50.155 33.7749Z" fill="#475F65"/>
<path d="M40.9149 14.6564C40.7749 14.7351 40.5824 14.7964 40.3549 14.8226L39.4449 14.9539V12.7051L40.2674 12.5914C40.5212 12.5564 40.7224 12.5476 40.8799 12.5739C41.0287 12.6001 41.1512 12.6526 41.2562 12.7314C41.3524 12.8189 41.4224 12.9151 41.4749 13.0464C41.5274 13.1776 41.5537 13.3264 41.5537 13.5014C41.5537 13.6589 41.5274 13.8076 41.4837 13.9564C41.4399 14.1051 41.3699 14.2364 41.2737 14.3589C41.1774 14.4814 41.0549 14.5864 40.9149 14.6564Z" fill="#D2D5D7"/>
<path d="M12.9762 28.4724C12.9762 28.0437 13.2999 27.6499 13.7024 27.5974L19.4687 26.7837L18.0249 28.5424L13.6937 29.1549C13.2999 29.2074 12.9762 28.9099 12.9762 28.4724Z" fill="#AEA9A9"/>
<path d="M31.5963 19.0575C31.99 19.005 32.3138 19.3025 32.3138 19.7313C32.3138 20.16 31.99 20.5538 31.5963 20.6063L13.72 23.1175C13.3175 23.17 12.9938 22.8725 12.9938 22.4438C12.9938 22.015 13.3175 21.6213 13.72 21.5688L31.5963 19.0575Z" fill="#4EB1D1"/>
<path d="M49.7087 4.90884C49.9887 4.87384 50.2075 5.08384 50.2075 5.38134L50.1549 33.7751C50.1549 34.0726 49.9362 34.3438 49.6562 34.3876L9.9837 39.9613C9.7037 39.9963 9.4762 39.7951 9.4762 39.4976L9.5287 11.0951C9.5287 10.7976 9.7562 10.5263 10.0362 10.4826L49.7087 4.90884ZM45.9812 24.6138C46.3749 24.5613 46.6987 24.1676 46.6987 23.7388C46.6987 23.3101 46.3749 23.0038 45.9812 23.0651L22.6974 26.3376L23.2049 23.8176L19.5387 25.2176L20.2299 25.8651L19.4687 26.7926L13.7024 27.6063C13.2999 27.6588 12.9762 28.0613 12.9762 28.4813C12.9762 28.9188 13.2999 29.2163 13.7024 29.1551L18.0337 28.5426L17.9462 28.6476L19.4074 30.0213L20.9562 28.1313L45.9812 24.6138ZM45.9724 30.6338C46.3662 30.5813 46.6899 30.1876 46.6899 29.7588C46.6899 29.3301 46.3662 29.0238 45.9724 29.0851L13.6937 33.6176C13.2912 33.6701 12.9674 34.0726 12.9674 34.4926C12.9674 34.9301 13.2912 35.2276 13.6937 35.1663L45.9724 30.6338ZM37.8437 12.1713L37.8262 19.7226C37.8262 19.9151 37.8699 20.0551 37.9662 20.1251C38.0537 20.1951 38.1762 20.2301 38.3074 20.2126L40.4424 19.9151C40.7662 19.8713 41.0549 19.8013 41.3262 19.7226C41.5887 19.6438 41.8337 19.5476 42.0612 19.4251C42.2974 19.3113 42.4987 19.1626 42.6999 18.9963C42.8924 18.8388 43.0587 18.6463 43.1987 18.4363C43.3387 18.2176 43.4437 17.9901 43.5225 17.7276C43.6012 17.4651 43.6362 17.1763 43.645 16.8701C43.645 16.5726 43.61 16.3188 43.5225 16.1001C43.435 15.8726 43.3299 15.6801 43.1899 15.5226C43.0499 15.3651 42.8837 15.2426 42.6824 15.1638C42.4899 15.0763 42.28 15.0326 42.0525 15.0238C42.2275 14.9188 42.3937 14.8051 42.5249 14.6738C42.6649 14.5338 42.7874 14.3851 42.8749 14.2188C42.9712 14.0526 43.0412 13.8776 43.0937 13.6851C43.1374 13.4926 43.1637 13.2913 43.1637 13.0813C43.1637 12.7138 43.1024 12.3901 42.9799 12.1276C42.8487 11.8738 42.6737 11.6638 42.4462 11.5151C42.2099 11.3751 41.9212 11.2701 41.5887 11.2263C41.2474 11.1913 40.8274 11.2001 40.3374 11.2701L38.3249 11.5501C38.1849 11.5676 38.0712 11.6288 37.9837 11.7338C37.8874 11.8213 37.8437 11.9788 37.8437 12.1713ZM13.7287 15.5488C13.3262 15.6013 13.0024 16.0038 13.0024 16.4238C13.0024 16.8526 13.3262 17.1588 13.7287 17.0976L31.6049 14.5863C31.9987 14.5338 32.3224 14.1313 32.3224 13.7113C32.3224 13.2826 31.9987 12.9763 31.6049 13.0376L13.7287 15.5488ZM13.7199 21.5688C13.3174 21.6213 12.9937 22.0238 12.9937 22.4438C12.9937 22.8726 13.3174 23.1788 13.7199 23.1176L31.5962 20.6063C31.9899 20.5538 32.3137 20.1513 32.3137 19.7313C32.3137 19.3026 31.9899 18.9963 31.5962 19.0576L13.7199 21.5688Z" fill="#D2D5D7"/>
<path d="M31.6049 13.0375C31.9987 12.985 32.3224 13.2825 32.3224 13.7112C32.3224 14.14 31.9987 14.5337 31.6049 14.5862L13.7287 17.0975C13.3262 17.15 13.0024 16.8525 13.0024 16.4237C13.0024 15.995 13.3262 15.6012 13.7287 15.5487L31.6049 13.0375Z" fill="#4EB1D1"/>
<path d="M9.02994 7.88383L5.34619 5.88008L47.0487 0.0175781L50.7324 2.03008L9.02994 7.88383Z" fill="#3A4D52"/>
<path d="M6.7725 43.1464L3.08875 41.1426L3.15 8.55762L6.83374 10.5614L6.7725 43.1464Z" fill="#29373A"/>
<path d="M6.83377 10.5613L3.15002 8.55759C3.15002 8.23384 3.21127 7.91884 3.31627 7.62134L7.00877 9.62509C6.89502 9.92259 6.83377 10.2376 6.83377 10.5613Z" fill="#2B393C"/>
<path d="M7.00878 9.62516L3.31628 7.62141C3.36003 7.49891 3.42128 7.36766 3.48253 7.25391L7.17503 9.25766C7.10503 9.38016 7.05253 9.50266 7.00878 9.62516Z" fill="#2C3B3F"/>
<path d="M7.17504 9.25759L3.48254 7.25384C3.53504 7.15759 3.59629 7.06134 3.65754 6.96509L7.35004 8.96884C7.28879 9.06509 7.22754 9.16134 7.17504 9.25759Z" fill="#2E3D41"/>
<path d="M7.34997 8.96893L3.65747 6.96518C3.71872 6.87768 3.77997 6.79893 3.84997 6.71143L7.54247 8.71518C7.47247 8.80268 7.41122 8.88143 7.34997 8.96893Z" fill="#2F4043"/>
<path d="M7.54251 8.72393L3.85876 6.71143C3.92876 6.63268 3.99876 6.56268 4.07751 6.49268L7.76126 8.49643C7.69126 8.56643 7.61251 8.63643 7.54251 8.72393Z" fill="#314245"/>
<path d="M7.77001 8.49647L4.07751 6.49272C4.16501 6.41397 4.25251 6.34396 4.34001 6.28271L8.02376 8.28647C7.94501 8.34772 7.84876 8.41772 7.77001 8.49647Z" fill="#334448"/>
<path d="M8.0325 8.2863L4.34875 6.28255C4.4625 6.2038 4.58501 6.1338 4.70751 6.0813L8.4 8.08505C8.26875 8.13755 8.14625 8.20755 8.0325 8.2863Z" fill="#34464A"/>
<path d="M8.39123 8.08513L4.69873 6.07263C4.89998 5.97638 5.11873 5.91513 5.34623 5.88013L9.03873 7.88388C8.81123 7.91888 8.59248 7.98888 8.39123 8.08513Z" fill="#36484C"/>
</svg>
