<svg width="56" height="69" viewBox="0 0 56 69" fill="none" xmlns="http://www.w3.org/2000/svg">
<path d="M19.5071 36.8691L19.5042 37.837L3.02295 47.4144L3.02579 46.4466L19.5071 36.8691Z" fill="#787677"/>
<path d="M3.02572 46.4467L3.02288 47.4145L1.52148 46.5474L1.52432 45.5796L3.02572 46.4467Z" fill="#929393"/>
<path d="M19.5061 36.8693L3.02483 46.4467L1.52344 45.5796L18.0047 36.0022L19.5061 36.8693Z" fill="#BFBFBF"/>
<path d="M26.2477 40.7603L26.2448 41.7281L9.76355 51.3055L9.76639 50.3377L26.2477 40.7603Z" fill="#787677"/>
<path d="M9.76645 50.3376L9.76361 51.3054L8.25513 50.4355L8.25796 49.4663L9.76645 50.3376Z" fill="#929393"/>
<path d="M26.2468 40.7605L9.76557 50.3379L8.25708 49.4666L24.7369 39.8892L26.2468 40.7605Z" fill="#BFBFBF"/>
<path d="M32.9867 44.6514L32.9838 45.6206L16.5026 55.198L16.5054 54.2302L32.9867 44.6514Z" fill="#787677"/>
<path d="M16.5055 54.2302L16.5026 55.198L14.9941 54.3267L14.997 53.3589L16.5055 54.2302Z" fill="#929393"/>
<path d="M32.9859 44.6516L16.5046 54.2305L14.9961 53.3592L31.4774 43.7817L32.9859 44.6516Z" fill="#BFBFBF"/>
<path d="M39.7273 48.5439L39.7244 49.5118L23.2432 59.0892L23.246 58.1214L39.7273 48.5439Z" fill="#787677"/>
<path d="M23.2461 58.1213L23.2432 59.0891L21.7347 58.2178L21.7376 57.25L23.2461 58.1213Z" fill="#929393"/>
<path d="M39.7266 48.5442L23.2453 58.1216L21.7368 57.2503L38.2181 47.6729L39.7266 48.5442Z" fill="#BFBFBF"/>
<path d="M46.4679 52.4351L46.4636 53.4029L29.9838 62.9803L29.9866 62.0125L46.4679 52.4351Z" fill="#787677"/>
<path d="M29.9867 62.0124L29.9838 62.9803L28.4753 62.1089L28.4782 61.1411L29.9867 62.0124Z" fill="#929393"/>
<path d="M46.4672 52.4353L29.9859 62.0127L28.4774 61.1414L44.9573 51.564L46.4672 52.4353Z" fill="#BFBFBF"/>
<path d="M53.2071 56.3264L53.2043 57.2942L36.723 66.8717L36.7259 65.9038L53.2071 56.3264Z" fill="#787677"/>
<path d="M36.7259 65.9038L36.7231 66.8716L35.2146 66.0017L35.2174 65.0325L36.7259 65.9038Z" fill="#929393"/>
<path d="M53.2063 56.3264L36.725 65.9038L35.2166 65.0325L51.6978 55.4551L53.2063 56.3264Z" fill="#BFBFBF"/>
<path d="M56.0002 57.7314L55.9946 59.6685L54.3456 60.6264L54.3513 58.6907L56.0002 57.7314Z" fill="#BFBFBF"/>
<path d="M54.3512 58.6906L54.3455 60.6263L12.8883 36.6919L12.894 34.7549L54.3512 58.6906Z" fill="#D7D7D7"/>
<path d="M56.0007 57.7312L54.3517 58.6905L12.8945 34.7548L14.5435 33.7969L56.0007 57.7312Z" fill="#E8E8E8"/>
<path d="M43.1119 65.2212L43.1062 67.1568L41.4573 68.1161L41.4629 66.1805L43.1119 65.2212Z" fill="#BFBFBF"/>
<path d="M41.4629 66.1804L41.4572 68.116L0 44.1803L0.00567594 42.2446L41.4629 66.1804Z" fill="#D7D7D7"/>
<path d="M43.1125 65.2214L41.4636 66.1807L0.00634766 42.2449L1.65533 41.2856L43.1125 65.2214Z" fill="#E8E8E8"/>
<path d="M24.9429 50.9397C26.1614 51.6433 27.1517 53.3517 27.1477 54.7583C27.1437 56.1653 26.1471 56.7267 24.9285 56.0232C23.7042 55.3163 22.7141 53.6079 22.718 52.2008C22.7219 50.7941 23.7185 50.2327 24.9429 50.9397Z" fill="#686868"/>
<path d="M27.7879 54.3867C27.7788 55.0831 27.5346 55.5805 27.1366 55.8067L26.5034 56.1777C26.9014 55.9423 27.1456 55.4538 27.1456 54.7576C27.1547 53.3553 26.1597 51.6454 24.9385 50.9401C24.3234 50.5872 23.7625 50.551 23.3646 50.7864L23.9978 50.4155C24.405 50.1805 24.9658 50.2162 25.5808 50.5692C26.8019 51.275 27.7879 52.9847 27.7879 54.3867Z" fill="#4F4D4D"/>
<path d="M7.43757 40.833C8.66195 41.5399 9.64637 43.245 9.6424 44.6516C9.63843 46.0587 8.64762 46.6233 7.42323 45.9165C6.20466 45.2129 5.21442 43.5044 5.2184 42.0974C5.22223 40.6908 6.21885 40.1294 7.43757 40.833Z" fill="#686868"/>
<path d="M10.2754 44.2824C10.2754 44.9788 10.0312 45.467 9.63314 45.7024L8.99994 46.0734C9.398 45.838 9.64222 45.3495 9.64222 44.6529C9.64222 43.2417 8.66532 41.5412 7.43512 40.8358C6.81994 40.4741 6.2682 40.4467 5.86121 40.6821L6.50349 40.3112C6.90154 40.0758 7.46236 40.1119 8.07739 40.4649C9.29852 41.1702 10.2845 42.8712 10.2754 44.2824Z" fill="#4F4D4D"/>
<path d="M20.9211 33.8113C22.1455 34.5182 23.1299 36.2297 23.1259 37.63C23.122 39.037 22.1311 39.6082 20.9068 38.9013C19.6882 38.1977 18.6979 36.4829 18.7019 35.0757C18.7057 33.6755 19.7024 33.1078 20.9211 33.8113Z" fill="#686868"/>
<path d="M23.7617 37.2635C23.7617 37.96 23.5175 38.4578 23.1195 38.684L22.4772 39.0545C22.8752 38.8283 23.1195 38.3311 23.1285 37.6344C23.1285 36.2325 22.1426 34.5228 20.9214 33.8082C20.3063 33.4552 19.7545 33.4283 19.3475 33.6633L19.9898 33.2928C20.3879 33.0573 20.9487 33.0843 21.5548 33.4372C22.7847 34.1517 23.7708 35.8616 23.7617 37.2635Z" fill="#4F4D4D"/>
<path d="M36.8507 43.7676L37.4839 43.3967C37.891 43.1612 38.4428 43.1886 39.0669 43.5503C40.2791 44.2468 41.274 45.9655 41.2651 47.3674C41.2651 48.0643 41.0208 48.5617 40.6228 48.7879L39.9805 49.1589C40.3786 48.9327 40.6317 48.435 40.6317 47.7384C40.6317 46.3364 39.6457 44.6174 38.4246 43.9213C37.8096 43.5591 37.2486 43.5322 36.8507 43.7676Z" fill="#4F4D4D"/>
<path d="M38.4263 43.918C39.6448 44.6216 40.6351 46.3364 40.6311 47.7366C40.6271 49.1437 39.6305 49.7116 38.4119 49.008C37.1876 48.3011 36.1975 46.5862 36.2014 45.1791C36.2053 43.7789 37.2019 43.211 38.4263 43.918Z" fill="#686868"/>
<path d="M43.3885 43.5122L43.3843 45.0789L27.2677 54.4448L27.272 52.8768L43.3885 43.5122Z" fill="#787677"/>
<path d="M27.2719 52.8763L27.2677 54.4444L2.10583 39.9172L2.11009 38.3491L27.2719 52.8763Z" fill="#929393"/>
<path d="M43.3873 43.512L27.2707 52.8766L2.10889 38.3494L18.2255 28.9834L43.3873 43.512Z" fill="#B0AFB0"/>
<path d="M30.7952 39.3742L30.7532 40.6763C30.7497 41.9491 29.9154 43.2195 28.2455 44.1898C24.8786 46.1465 19.3805 46.1468 15.9912 44.1898C14.2856 43.2051 13.4338 41.9095 13.4375 40.6159L13.4795 39.3137C13.4758 40.6074 14.3276 41.903 16.0332 42.8877C19.4225 44.8445 24.9208 44.8443 28.2875 42.8877C29.9574 41.9175 30.7917 40.6471 30.7952 39.3742Z" fill="#4F4D4D"/>
<path d="M28.2352 35.7965C31.6245 37.7533 31.6553 40.9305 28.2877 42.8874C24.9207 44.8441 19.4226 44.8443 16.0333 42.8874C12.6439 40.9306 12.6263 37.7458 15.9933 35.7891C19.3609 33.8322 24.8458 33.8397 28.2352 35.7965Z" fill="#686868"/>
<path d="M25.3396 18.3488L25.324 39.4363C25.3227 39.909 25.0128 40.3809 24.3926 40.7413C23.1421 41.468 21.1001 41.4682 19.8413 40.7413C19.2078 40.3756 18.8915 39.8944 18.8929 39.4139L18.9086 18.3264C18.9071 18.8069 19.2236 19.288 19.8569 19.6538C21.1158 20.3805 23.1577 20.3805 24.4082 19.6538C25.0284 19.2934 25.3382 18.8215 25.3396 18.3488Z" fill="#BFBFBF"/>
<path d="M24.3883 17.0201C25.6472 17.7468 25.6585 18.9269 24.4077 19.6537C23.1572 20.3804 21.1152 20.3805 19.8564 19.6537C18.5976 18.9269 18.591 17.744 19.8415 17.0174C21.0923 16.2906 23.1296 16.2933 24.3883 17.0201Z" fill="#E8E8E8"/>
<path d="M25.7042 17.5987L25.6869 19.1017C25.6855 19.6279 25.3405 20.1531 24.6502 20.5541C23.2584 21.363 20.9854 21.3631 19.5842 20.5541C18.8792 20.147 18.527 19.6114 18.5286 19.0767L18.5459 17.5737C18.5443 18.1084 18.8965 18.6441 19.6015 19.0511C21.0027 19.8602 23.2756 19.86 24.6675 19.0511C25.3578 18.6501 25.7026 18.1249 25.7042 17.5987Z" fill="#4F4D4D"/>
<path d="M24.6455 16.1197C26.0467 16.9288 26.0594 18.2421 24.6672 19.0511C23.2754 19.86 21.0025 19.8602 19.6012 19.0511C18.2 18.2421 18.1928 16.9256 19.5846 16.1168C20.9769 15.3077 23.2443 15.3107 24.6455 16.1197Z" fill="#686868"/>
<path d="M38.4032 24.3997L38.3989 25.7407L30.6635 30.2364L30.6677 28.8953L38.4032 24.3997Z" fill="#4F4D4D"/>
<path d="M30.6677 28.8953L30.6635 30.2364L13.9608 20.5923L13.9637 19.2512L30.6677 28.8953Z" fill="#3D3D3D"/>
<path d="M30.2205 28.9251L30.2177 29.7127L30.0786 29.6318L30.08 28.8442L30.2205 28.9251Z" fill="#4F4D4D"/>
<path d="M29.7737 28.6698L29.7723 29.4559L29.6318 29.375L29.6347 28.5889L29.7737 28.6698Z" fill="#4F4D4D"/>
<path d="M29.3279 28.4129L29.3251 29.1991L29.1846 29.1182L29.1874 28.332L29.3279 28.4129Z" fill="#4F4D4D"/>
<path d="M28.4339 27.8992L28.4325 28.6868L28.292 28.606L28.2948 27.8184L28.4339 27.8992Z" fill="#4F4D4D"/>
<path d="M27.9883 27.6424L27.9855 28.43L27.8464 28.3491L27.8479 27.5615L27.9883 27.6424Z" fill="#4F4D4D"/>
<path d="M27.5416 27.3868L27.5402 28.173L27.3997 28.0921L27.4025 27.3059L27.5416 27.3868Z" fill="#4F4D4D"/>
<path d="M27.0958 27.1302L27.093 27.9164L26.9525 27.8355L26.9554 27.0493L27.0958 27.1302Z" fill="#4F4D4D"/>
<path d="M26.649 26.8731L26.6461 27.6593L26.5071 27.5784L26.5085 26.7922L26.649 26.8731Z" fill="#4F4D4D"/>
<path d="M26.2017 26.6163L26.2003 27.4025L26.0598 27.3216L26.0627 26.5354L26.2017 26.6163Z" fill="#4F4D4D"/>
<path d="M25.7562 26.3595L25.7533 27.147L25.6143 27.0662L25.6157 26.2786L25.7562 26.3595Z" fill="#4F4D4D"/>
<path d="M25.3091 26.1038L25.3063 26.89L25.1672 26.8091L25.1701 26.0229L25.3091 26.1038Z" fill="#4F4D4D"/>
<path d="M24.8637 25.8472L24.8608 26.6334L24.7203 26.5525L24.7232 25.7664L24.8637 25.8472Z" fill="#4F4D4D"/>
<path d="M24.4167 25.5902L24.4138 26.3763L24.2748 26.2955L24.2762 25.5093L24.4167 25.5902Z" fill="#4F4D4D"/>
<path d="M23.9694 25.3333L23.968 26.1195L23.8275 26.0386L23.8304 25.2524L23.9694 25.3333Z" fill="#4F4D4D"/>
<path d="M23.5241 25.0765L23.5212 25.8641L23.3807 25.7832L23.3836 24.9956L23.5241 25.0765Z" fill="#4F4D4D"/>
<path d="M23.0768 24.8211L23.074 25.6073L22.9349 25.5264L22.9364 24.7402L23.0768 24.8211Z" fill="#4F4D4D"/>
<path d="M22.6301 24.5643L22.6286 25.3505L22.4882 25.2696L22.491 24.4834L22.6301 24.5643Z" fill="#4F4D4D"/>
<path d="M22.1843 24.3074L22.1814 25.0936L22.0424 25.0127L22.0438 24.2266L22.1843 24.3074Z" fill="#4F4D4D"/>
<path d="M28.8812 28.1561L28.8783 28.9423L28.7393 28.8614L28.7407 28.0752L28.8812 28.1561Z" fill="#4F4D4D"/>
<path d="M38.4023 24.3998L30.6668 28.8954L13.9628 19.2513L21.6996 14.7571L38.4023 24.3998Z" fill="#686868"/>
<path d="M13.4456 18.9546L21.6195 14.205L21.6507 1.64746L13.4782 6.39714L13.4456 18.9546Z" fill="#4F4D4D"/>
<path d="M10.2516 4.80446C10.3949 4.72258 10.5927 4.72954 10.811 4.8591L13.4783 6.39398L21.6508 1.646L18.9835 0.111119C18.7651 -0.0184434 18.5673 -0.0320665 18.424 0.0564845L10.2516 4.80446Z" fill="#686868"/>
<path d="M10.812 4.85822C10.3765 4.60676 10.0225 4.80841 10.0211 5.30892L9.99488 16.0547C9.99346 16.555 10.3451 17.1641 10.7806 17.4156L13.4462 18.9546L13.4776 6.39722L10.812 4.85822Z" fill="#3D3D3D"/>
<path d="M24.9305 13.0852L13.9213 6.68799L13.9525 17.7583L24.9618 24.1569L24.9305 13.0852Z" fill="#3D3D3D"/>
<path d="M32.3125 8.82395L21.3032 2.42529L13.9211 6.68823L24.9304 13.0855L32.3125 8.82395Z" fill="#686868"/>
<path d="M24.9305 13.0852L24.9618 24.157L32.3439 19.894L32.3126 8.82373L24.9305 13.0852Z" fill="#4F4D4D"/>
<path d="M26.5774 15.6708C26.5774 16.2661 26.7883 16.6815 27.1293 16.8797L28.0284 17.4025C27.6874 17.2039 27.4766 16.7885 27.4766 16.1933C27.4703 14.9965 28.3137 13.5333 29.3554 12.9318C29.8825 12.6279 30.3538 12.603 30.701 12.8013L29.8019 12.2788C29.4609 12.0805 28.9833 12.1052 28.4563 12.4089C27.4145 13.0106 26.5712 14.474 26.5774 15.6708Z" fill="#282828"/>
<path d="M29.3574 12.9325C28.3162 13.5336 27.4717 14.9964 27.4751 16.1927C27.4785 17.3893 28.3284 17.8735 29.3697 17.2724C30.4109 16.6712 31.2554 15.2087 31.252 14.0122C31.2485 12.8159 30.3986 12.3314 29.3574 12.9325Z" fill="#787677"/>
<path d="M23.3383 13.8792C23.3383 14.0546 23.2761 14.177 23.1756 14.2355L22.8101 14.4481C22.9105 14.3895 22.9727 14.2671 22.9727 14.0916C22.9745 13.7388 22.7259 13.3076 22.419 13.1303C22.2636 13.0408 22.1247 13.0334 22.0223 13.0919L22.3879 12.8794C22.4884 12.821 22.6291 12.8283 22.7845 12.9177C23.0915 13.095 23.3401 13.5264 23.3383 13.8792Z" fill="#7D7D7D"/>
<path d="M22.4184 13.1304C22.7253 13.3076 22.9743 13.7387 22.9733 14.0914C22.9723 14.444 22.7218 14.5868 22.4149 14.4095C22.1079 14.2323 21.859 13.8013 21.86 13.4485C21.861 13.0959 22.1114 12.9531 22.4184 13.1304Z" fill="#686868"/>
<path d="M17.3906 10.6128C17.3906 10.7882 17.3285 10.9107 17.228 10.9691L16.8624 11.1817C16.9629 11.1231 17.0251 11.0008 17.0251 10.8252C17.0269 10.4725 16.7783 10.0412 16.4713 9.86396C16.316 9.77441 16.177 9.76704 16.0747 9.8255L16.4403 9.61306C16.5407 9.5546 16.6815 9.56198 16.8369 9.65138C17.144 9.82877 17.3925 10.26 17.3906 10.6128Z" fill="#7D7D7D"/>
<path d="M16.4708 9.86415C16.7777 10.0414 17.0266 10.4725 17.0256 10.8252C17.0246 11.1778 16.7742 11.3206 16.4672 11.1433C16.1603 10.9661 15.9114 10.5351 15.9124 10.1823C15.9133 9.82981 16.164 9.68705 16.4708 9.86415Z" fill="#686868"/>
<path d="M16.3375 10.0959C16.4093 10.0548 16.5068 10.0601 16.6147 10.1217L22.202 13.3487C22.4176 13.4721 22.5869 13.7696 22.5869 14.0159C22.5869 14.1389 22.5459 14.2263 22.4741 14.2621L22.6588 14.1593C22.7255 14.1182 22.7666 14.031 22.7666 13.9131C22.7717 13.6669 22.6024 13.3692 22.3817 13.2409L16.7942 10.0189C16.6865 9.95726 16.589 9.9469 16.5223 9.98805L16.3375 10.0959Z" fill="#E8E8E8"/>
<path d="M22.2025 13.3482C22.4188 13.4731 22.5885 13.771 22.5878 14.0156C22.5871 14.2603 22.4163 14.3615 22.2 14.2366L16.6115 11.01C16.3986 10.8871 16.2255 10.5873 16.2262 10.3426C16.2269 10.098 16.401 9.99863 16.614 10.1217L22.2025 13.3482Z" fill="#BFBFBF"/>
<path d="M27.0322 19.2229L26.7611 19.0654L26.7767 22.2413L27.0478 22.3989L27.0322 19.2229Z" fill="#3D3B3B"/>
<path d="M30.7358 17.0857L30.4634 16.9282L26.761 19.0654L27.032 19.2229L30.7358 17.0857Z" fill="#444242"/>
<path d="M27.0321 19.2231L27.0477 22.399L30.7515 20.2619L30.7359 17.0859L27.0321 19.2231Z" fill="#686868"/>
<path d="M28.1663 19.892C28.1663 20.1226 28.248 20.2835 28.3801 20.3604L28.7285 20.5631C28.5964 20.4862 28.5147 20.3252 28.5147 20.0945C28.5122 19.6307 28.8391 19.0638 29.2426 18.8308C29.4469 18.713 29.6295 18.7034 29.764 18.7803L29.4156 18.5778C29.2835 18.501 29.0985 18.5105 28.8943 18.6282C28.4905 18.8613 28.1639 19.4282 28.1663 19.892Z" fill="#E02426"/>
<path d="M29.2432 18.831C28.8397 19.0638 28.5126 19.6306 28.5139 20.0941C28.5152 20.5577 28.8446 20.7453 29.248 20.5124C29.6515 20.2796 29.9786 19.7128 29.9773 19.2493C29.976 18.7858 29.6466 18.5981 29.2432 18.831Z" fill="#EE4541"/>
<path d="M30.4298 17.4487C30.3391 17.501 30.2656 17.6285 30.2659 17.7326C30.2662 17.8368 30.3403 17.8791 30.4309 17.8267C30.5216 17.7744 30.5951 17.6469 30.5949 17.5428C30.5944 17.4386 30.5205 17.3965 30.4298 17.4487ZM30.4298 19.837C30.3391 19.8894 30.2656 20.0168 30.2659 20.121C30.2662 20.2251 30.3403 20.2674 30.4309 20.2151C30.5216 20.1627 30.5951 20.0353 30.5949 19.9311C30.5944 19.8269 30.5205 19.7846 30.4298 19.837ZM27.3803 19.2292C27.2897 19.2816 27.2161 19.409 27.2164 19.5132C27.2167 19.6173 27.2908 19.6596 27.3815 19.6073C27.4722 19.5549 27.5457 19.4275 27.5454 19.3233C27.5451 19.219 27.471 19.1768 27.3803 19.2292ZM27.3803 21.6174C27.2897 21.6698 27.2161 21.7972 27.2164 21.9014C27.2167 22.0055 27.2908 22.0478 27.3815 21.9954C27.4722 21.9431 27.5457 21.8156 27.5454 21.7115C27.5451 21.6073 27.471 21.565 27.3803 21.6174Z" fill="#E8E8E8"/>
<path d="M22.8246 21.7576L23.2915 21.4865L23.317 15.647L22.8501 15.918L22.8246 21.7576Z" fill="#7D7D7D"/>
<path d="M22.8494 15.9178L23.3163 15.6468L15.6461 11.2192L15.1807 11.4903L22.8494 15.9178Z" fill="#686868"/>
<path d="M15.1813 11.4902L15.1558 17.3298L22.8245 21.7573L22.8501 15.9178L15.1813 11.4902Z" fill="#4F4D4D"/>
<path d="M23.0413 21.3209L22.6805 21.1113C22.7035 21.1247 22.7277 21.1389 22.7532 21.1538L23.1139 21.3634C23.0884 21.3485 23.0643 21.3344 23.0413 21.3209Z" fill="#414141"/>
<path d="M22.6104 17.4349L22.25 17.2249L22.2543 20.8705L22.6161 21.0791L22.6104 17.4349Z" fill="#3D3D3D"/>
<path d="M23.1054 16.5778L22.7446 16.3682C22.5525 16.7009 22.4417 16.8928 22.2495 17.2256L22.6102 17.4352C22.8025 17.1023 22.9132 16.9104 23.1054 16.5778Z" fill="#686868"/>
<path d="M23.6704 16.2513L23.3099 16.0413L22.7451 16.3677L23.1056 16.5777L23.6704 16.2513Z" fill="#787677"/>
<path d="M23.1055 16.5775C22.9133 16.9102 22.8025 17.1021 22.6104 17.4349L22.6155 21.0794C22.8089 21.1896 22.9203 21.2494 23.1137 21.3635L23.6791 21.0371L23.6707 16.2512L23.1055 16.5775Z" fill="#4F4D4D"/>
<path d="M22.7362 18.9746C22.7362 19.0945 22.7786 19.1784 22.8475 19.2182L23.0287 19.3237C22.96 19.2837 22.9174 19.1999 22.9174 19.0799C22.9162 18.8386 23.0862 18.5436 23.2962 18.4224C23.4025 18.3611 23.4974 18.3561 23.5674 18.3962L23.3862 18.2909C23.3175 18.2509 23.2211 18.256 23.115 18.3171C22.9049 18.4385 22.7351 18.7333 22.7362 18.9746Z" fill="#E02426"/>
<path d="M23.2967 18.4226C23.0868 18.5438 22.9167 18.8387 22.9172 19.0798C22.9179 19.321 23.0892 19.4185 23.2991 19.2974C23.509 19.1763 23.6791 18.8815 23.6786 18.6403C23.6779 18.3992 23.5066 18.3015 23.2967 18.4226Z" fill="#EE4541"/>
<path d="M22.9745 17.2523C22.9745 17.3116 22.9955 17.353 23.0295 17.3727L23.1192 17.4248C23.0852 17.405 23.0642 17.3637 23.0642 17.3043C23.0636 17.185 23.1476 17.0391 23.2515 16.9792C23.304 16.9489 23.351 16.9464 23.3856 16.9662L23.2959 16.9141C23.2619 16.8944 23.2143 16.8968 23.1618 16.927C23.0579 16.9872 22.9739 17.1329 22.9745 17.2523Z" fill="#686868"/>
<path d="M23.2517 16.9794C23.148 17.0393 23.0637 17.1852 23.0641 17.3044C23.0644 17.4236 23.1491 17.472 23.253 17.4119C23.3568 17.3519 23.441 17.2062 23.4406 17.087C23.4403 16.9678 23.3556 16.9194 23.2517 16.9794Z" fill="#929393"/>
<path d="M15.9126 12.502C15.9126 12.5613 15.8916 12.6028 15.8575 12.6225L15.7678 12.6746C15.8019 12.6547 15.8229 12.6134 15.8229 12.5541C15.8235 12.4347 15.7394 12.2889 15.6356 12.229C15.5831 12.1986 15.5361 12.1962 15.5015 12.2159L15.5912 12.1638C15.6252 12.1441 15.6727 12.1465 15.7253 12.1768C15.8291 12.2369 15.9131 12.3828 15.9126 12.502Z" fill="#686868"/>
<path d="M15.6354 12.2293C15.7392 12.2892 15.8234 12.4351 15.823 12.5543C15.8227 12.6735 15.738 12.7219 15.6341 12.6619C15.5303 12.6018 15.4461 12.4561 15.4465 12.3369C15.447 12.2177 15.5317 12.1695 15.6354 12.2293Z" fill="#929393"/>
<path d="M15.8231 17.0875C15.8231 17.1468 15.8021 17.1882 15.768 17.2079L15.6783 17.26C15.7124 17.2402 15.7334 17.1989 15.7334 17.1395C15.734 17.0202 15.65 16.8743 15.5461 16.8144C15.4936 16.7841 15.4466 16.7816 15.412 16.8014L15.5017 16.7493C15.5357 16.7296 15.5833 16.732 15.6358 16.7622C15.7397 16.8222 15.8238 16.9681 15.8231 17.0875Z" fill="#686868"/>
<path d="M15.5459 16.8143C15.6497 16.8742 15.734 17.0201 15.7335 17.1393C15.7333 17.2585 15.6485 17.3069 15.5447 17.2468C15.4408 17.1868 15.3566 17.0411 15.3571 16.9219C15.3573 16.8027 15.4421 16.7544 15.5459 16.8143Z" fill="#929393"/>
<path d="M22.9745 20.6458C22.9745 20.7051 22.9955 20.7466 23.0295 20.7663L23.1192 20.8184C23.0852 20.7985 23.0642 20.7572 23.0642 20.6979C23.0636 20.5785 23.1476 20.4327 23.2515 20.3728C23.304 20.3424 23.351 20.34 23.3856 20.3597L23.2959 20.3076C23.2619 20.2879 23.2143 20.2903 23.1618 20.3206C23.0579 20.3806 22.9739 20.5265 22.9745 20.6458Z" fill="#686868"/>
<path d="M23.2517 20.3726C23.148 20.4325 23.0637 20.5784 23.0641 20.6976C23.0644 20.8168 23.1491 20.8652 23.253 20.8052C23.3567 20.7453 23.441 20.5994 23.4406 20.4802C23.4403 20.3611 23.3556 20.3127 23.2517 20.3726Z" fill="#929393"/>
<path d="M24.1157 10.2626L29.8517 6.9292L30.4917 8.79388L24.7557 12.1273L24.1157 10.2626Z" fill="#4F4D4D"/>
<path d="M16.1035 5.63641L21.8395 2.30298L29.8516 6.9292L24.1157 10.2626L16.1035 5.63641Z" fill="#787677"/>
<path d="M24.1158 10.2627L24.7558 12.1274L15.4551 6.75755L16.1036 5.63647L24.1158 10.2627Z" fill="#3D3D3D"/>
<path d="M21.3456 6.74219L21.3441 7.14095L20.5537 7.60073V7.20197L21.3456 6.74219Z" fill="#F8C814"/>
<path d="M20.5536 7.20153V7.6003L19.3658 6.91488L19.3673 6.51611L20.5536 7.20153Z" fill="#EBB41F"/>
<path d="M21.3452 6.74206L20.5533 7.20184L19.3669 6.51642L20.1588 6.05664L21.3452 6.74206Z" fill="#FDDB00"/>
<path d="M23.1091 7.76074L23.1077 8.15951L22.3173 8.61929L22.3187 8.22053L23.1091 7.76074Z" fill="#73AE43"/>
<path d="M22.3189 8.22058L22.3175 8.61934L21.1311 7.93392L21.1325 7.53516L22.3189 8.22058Z" fill="#589441"/>
<path d="M23.109 7.76086L22.3186 8.22064L21.1322 7.53522L21.9226 7.07544L23.109 7.76086Z" fill="#A9C838"/>
<path d="M24.873 8.77979V9.17855L24.0812 9.63833L24.0826 9.23957L24.873 8.77979Z" fill="#E02426"/>
<path d="M24.0828 9.23962L24.0814 9.63838L22.895 8.95296L22.8964 8.5542L24.0828 9.23962Z" fill="#E02426"/>
<path d="M24.8729 8.77966L24.0825 9.23944L22.8961 8.55402L23.6866 8.09424L24.8729 8.77966Z" fill="#EE4541"/>
<path d="M30.2227 11.931C31.1228 11.4125 31.9381 11.3701 32.5205 11.7087L32.7932 11.8669C32.2209 11.5976 31.4613 11.6518 30.6197 12.1362C28.8406 13.1641 27.4005 15.6625 27.4112 17.707C27.4112 18.7235 27.7712 19.4329 28.3536 19.7711L30.9979 21.3177C31.035 21.3436 31.0642 21.3813 31.1032 21.404L27.9564 19.5657C27.374 19.227 27.014 18.5176 27.014 17.5011C27.0035 15.4573 28.4436 12.9585 30.2227 11.931Z" fill="#3D3D3D"/>
<path d="M27.4108 17.7069C27.4002 15.6624 28.8404 13.1641 30.6194 12.1361C31.4609 11.6517 32.2205 11.5973 32.7929 11.8668L35.6669 13.5464C35.0739 13.2077 34.2691 13.2501 33.3691 13.7692C31.5902 14.7961 30.1499 17.2949 30.1606 19.3389C30.1606 20.2871 30.4827 20.9552 30.9977 21.3176L28.3534 19.771C27.7708 19.4328 27.4108 18.7235 27.4108 17.7069Z" fill="#4F4D4D"/>
<path d="M33.3723 13.77C31.5942 14.7966 30.1522 17.2948 30.158 19.3377C30.1638 21.381 31.6154 22.2081 33.3934 21.1815C35.1715 20.1549 36.6135 17.6572 36.6077 15.6138C36.602 13.5709 35.1505 12.7435 33.3723 13.77Z" fill="#787677"/>
<path d="M33.3021 13.1196C34.3338 12.525 35.2684 12.4764 35.9358 12.8648L40.3299 15.4821C40.2616 15.4434 40.1807 15.4289 40.1078 15.3988L36.2917 13.1253C35.6242 12.7375 34.6896 12.7862 33.658 13.3802C31.619 14.558 29.9683 17.422 29.9805 19.7648C29.9805 20.7891 30.3123 21.5218 30.843 21.9525L30.7048 21.8703C30.0372 21.482 29.6246 20.6692 29.6246 19.5037C29.6124 17.1609 31.2631 14.2969 33.3021 13.1196Z" fill="#3D3D3D"/>
<path d="M29.9803 19.7648C29.9681 17.4221 31.6188 14.5581 33.6579 13.3802C34.6894 12.7862 35.624 12.7375 36.2915 13.1253L40.1076 15.3989C39.4535 15.1295 38.6241 15.2023 37.696 15.7376C35.6569 16.9145 34.0062 19.7789 34.0184 22.1216C34.0184 23.2866 34.4311 24.0999 35.0987 24.4887L30.8428 21.9525C30.3122 21.5218 29.9803 20.7891 29.9803 19.7648Z" fill="#4F4D4D"/>
<path d="M34.0109 22.1148C34.0215 24.4658 35.684 25.4079 37.7277 24.2327C39.7609 23.0574 41.4128 20.1981 41.4128 17.8476C41.4022 15.5074 39.7397 14.5648 37.6959 15.7401C35.6628 16.9153 34.0109 19.7746 34.0109 22.1148Z" fill="#686868"/>
<path d="M36.9343 23.4648C38.8194 22.3748 40.3542 19.7162 40.3542 17.5389C40.3505 16.7649 40.1443 16.1816 39.782 15.8306C40.4725 16.0358 40.8782 16.7535 40.8835 17.8477C40.8835 20.0255 39.3489 22.6842 37.4636 23.7736C36.9682 24.0586 36.4853 24.209 36.0675 24.209C35.6821 24.209 35.3631 24.074 35.1147 23.8336C35.2469 23.873 35.3857 23.8998 35.5382 23.8998C35.9561 23.8998 36.439 23.7492 36.9343 23.4648Z" fill="#4F4D4D"/>
<path d="M37.96 16.1993C38.4554 15.9143 38.9383 15.7639 39.3571 15.7639C39.5101 15.7639 39.6494 15.7913 39.782 15.8306C40.1443 16.1817 40.3505 16.7649 40.3542 17.5389C40.3542 19.7162 38.8196 22.3749 36.9343 23.4649C36.4389 23.7493 35.956 23.8997 35.5382 23.8997C35.3858 23.8997 35.247 23.8729 35.1147 23.8336C34.7509 23.4809 34.5439 22.8941 34.5402 22.1149C34.5403 19.98 36.107 17.2706 37.96 16.1993Z" fill="#55B8E8"/>
<path d="M37.4426 18.1792C36.6468 18.6387 36.0064 19.748 36.0089 20.6623C36.0115 21.5713 36.6562 21.9443 37.452 21.4848C38.2428 21.0281 38.8883 19.9104 38.8857 19.0014C38.8831 18.0871 38.2335 17.7225 37.4426 18.1792Z" fill="#4787C7"/>
<path d="M37.4438 18.7456C36.9206 19.0476 36.4995 19.7768 36.5012 20.378C36.5029 20.9755 36.9268 21.2208 37.4499 20.9186C37.9698 20.6185 38.3941 19.8837 38.3924 19.2861C38.3909 18.685 37.9637 18.4453 37.4438 18.7456Z" fill="#2174BB"/>
</svg>
