<svg width="50" height="70" viewBox="0 0 50 70" fill="none" xmlns="http://www.w3.org/2000/svg">
<path d="M29.4801 68.0736L41.9751 60.7018L33.7589 56.0308L21.2654 63.4026L29.4801 68.0736Z" fill="#4C5671"/>
<path d="M29.4875 70.0002L41.9825 62.6284L41.9752 60.7019L29.4802 68.0737L29.4875 70.0002Z" fill="#272E3A"/>
<path d="M33.7621 56.027L21.264 63.4046C20.6931 63.0709 20.2188 62.2716 20.2188 61.6218L20.1749 50.1512L32.6731 42.7822L32.717 54.2438C32.717 54.9025 33.1825 55.7019 33.7621 56.027Z" fill="#373F51"/>
<path d="M20.4268 50.6071L32.9203 43.2352L31.233 42.2756L18.738 49.6475L20.4268 50.6071Z" fill="#E3E7F0"/>
<path d="M18.489 49.1956L18.532 60.6595C18.5384 62.3772 19.7664 64.4724 21.2721 65.3285L29.4878 70L29.4806 68.0739L21.2649 63.4024C20.6889 63.0749 20.222 62.2727 20.2196 61.619L20.1766 50.1551L18.489 49.1956Z" fill="#373F51"/>
<path d="M26.2639 49.5468C27.0265 49.1065 27.651 49.4624 27.6535 50.3388C27.656 51.2215 27.0355 52.2899 26.2729 52.7302C25.5046 53.1737 24.8858 52.8209 24.8833 51.9382C24.8808 51.0618 25.4956 49.9904 26.2639 49.5468Z" fill="#B4BED7"/>
<path d="M2.56262 61.9594L49.9582 34.5956L49.9683 38.1718C49.9717 39.3639 49.1389 40.8063 48.1071 41.402L4.44618 66.6096C3.4144 67.2053 2.57614 66.7278 2.57276 65.5357L2.56262 61.9594ZM26.2731 52.7302C27.0357 52.2899 27.6561 51.2216 27.6536 50.3388C27.6511 49.4624 27.0266 49.1065 26.264 49.5468C25.4958 49.9904 24.881 51.0618 24.8834 51.9382C24.886 52.8209 25.5048 53.1737 26.2731 52.7302Z" fill="#D3DBEA"/>
<path d="M3.11797 66.7418L0.641166 65.3017C0.307457 65.1083 0.096626 64.6867 0.096626 64.0983L0.0878906 60.5238L2.56464 61.9553L2.57344 65.5388C2.57344 66.1272 2.78422 66.5488 3.11797 66.7418Z" fill="#E3E7F0"/>
<path d="M48.0008 3.8429L48.0854 33.6249L4.42455 58.832L4.33997 29.0501L48.0008 3.8429Z" fill="white"/>
<path d="M49.3252 1.56362C48.9827 1.37064 48.5171 1.3968 47.9902 1.69528L4.33006 26.9025C3.30246 27.4999 2.46808 28.9405 2.46808 30.1258L2.56468 61.9555L0.0879328 60.5239L6.88754e-05 28.6857C-0.00872484 27.4999 0.825671 26.0594 1.85325 25.462L45.5222 0.255177C46.0403 -0.0433131 46.5059 -0.0698984 46.8484 0.123097L49.3252 1.56362Z" fill="#373F51"/>
<path d="M47.9944 1.69677C49.0263 1.10104 49.8645 1.57898 49.8679 2.76442L49.9581 34.5957L2.56254 61.9596L2.4723 30.1283C2.46893 28.9428 3.30175 27.5001 4.33353 26.9044L47.9944 1.69677ZM48.085 33.6249L48.0005 3.84254L4.33961 29.0502L4.42405 58.8325L48.085 33.6249Z" fill="#373F51"/>
<path d="M34.6139 33.8787L34.6154 34.4809L29.2167 37.5974L29.2152 36.9951L34.6139 33.8787Z" fill="#373F51"/>
<path d="M41.7462 15.4773L41.7506 16.8627L41.4837 17.0158L41.4822 16.469L41.001 16.746L41.0025 17.2929L40.737 17.4475L40.7327 16.0621L40.9995 15.909L41.001 16.485L41.4808 16.2079L41.4793 15.6304L41.7462 15.4773Z" fill="white"/>
<path d="M42.8037 14.0251L39.6644 15.8453L39.6908 26.4368L42.8433 24.6167L42.8037 14.0251ZM40.7329 16.0565L40.9967 15.9116V16.4913L41.4847 16.2014V15.634L41.7486 15.4762V16.8609L41.4847 17.0194V16.4655L40.9967 16.7424V17.2963L40.7329 17.4412V16.0565Z" fill="#ED5D71"/>
<path d="M41.1906 23.3494L41.1935 24.4577L41.7054 24.1631V24.4344L40.9237 24.885L40.9193 23.5054L41.1906 23.3494Z" fill="white"/>
<path d="M41.7099 21.1592V21.4348L41.1119 21.7804L41.1134 22.0677L41.6501 21.7571L41.6515 22.0181L41.1134 22.3288L41.1149 22.619L41.7303 22.2631L41.7317 22.5344L40.8436 23.0463L40.8407 21.6608L41.7099 21.1592Z" fill="white"/>
<path d="M39.686 23.5142L39.6889 24.4971L38.5266 25.1694L38.5251 24.185L39.686 23.5142Z" fill="#4C5671"/>
<path d="M41.6949 17.5677C41.8176 17.6324 41.8792 17.7679 41.8798 17.9737C41.8804 18.1744 41.8197 18.3805 41.6978 18.5867C41.5759 18.7927 41.4275 18.9487 41.2484 19.0521C41.0693 19.1555 40.9206 19.171 40.7979 19.1062C40.6752 19.0412 40.6136 18.9058 40.613 18.7051C40.6125 18.4992 40.6731 18.2932 40.7951 18.0872C40.917 17.881 41.0653 17.725 41.2444 17.6216C41.4235 17.5182 41.5722 17.5027 41.6949 17.5677ZM41.5051 18.5068C41.5703 18.3786 41.605 18.253 41.6046 18.1326C41.6043 18.0071 41.569 17.9219 41.5033 17.8745C41.4331 17.8293 41.3456 17.8346 41.2452 17.8926C41.1447 17.9506 41.0618 18.0437 40.9922 18.1696C40.9225 18.2952 40.8923 18.4182 40.8926 18.5437C40.893 18.6641 40.9238 18.7518 40.994 18.8019C41.0641 18.8468 41.1472 18.8392 41.2477 18.7811C41.3482 18.7231 41.4354 18.6324 41.5051 18.5068Z" fill="white"/>
<path d="M34.1616 34.7432L34.1733 38.8236L34.1747 39.3456L29.6889 41.9356L29.686 41.4136L29.6758 37.3332L34.1616 34.7432Z" fill="#4C5671"/>
<path d="M39.3139 35.856L39.3153 36.378L24.5425 44.9063L24.541 44.3843L25.3008 43.9453L29.686 41.4136L29.6889 41.9357L34.1747 39.3457L34.1733 38.8237L38.5585 36.292L39.3139 35.856Z" fill="#4C5671"/>
<path d="M39.6695 17.7815L39.6724 18.76L38.5101 19.4309L38.5072 18.4523L39.6695 17.7815Z" fill="#4C5671"/>
<path d="M38.5567 36.2906L34.1774 38.8223L34.1643 34.7477L34.612 34.4838V33.8771L29.2176 36.9892V37.5958L29.6799 37.3319L29.693 41.4079L25.3005 43.941L25.2466 23.3771L38.5042 15.7136V18.4567L38.5174 19.4338L38.5305 24.1807V25.1709L38.5567 36.2906Z" fill="#F9D5B4"/>
<path d="M39.6564 12.9282L39.6623 15.0457L24.0757 24.0451L24.0698 21.9261L39.6564 12.9282Z" fill="#4C5671"/>
<path d="M41.7262 19.2646L41.7277 19.5301L41.3864 19.7269L41.3893 20.8469L41.1195 21.003L41.1152 19.883L40.7754 20.0799L40.7739 19.8144L41.7262 19.2646Z" fill="white"/>
<path d="M28.1839 27.0027L28.1941 30.647L25.9979 31.9143L25.9877 28.2714L28.1839 27.0027Z" fill="#7BB1FF"/>
<path d="M31.3997 29.6362L31.4099 33.2806L29.2078 34.5508L29.1976 30.9064L31.3997 29.6362Z" fill="#7BB1FF"/>
<path d="M37.7985 25.9407L37.8087 29.585L35.611 30.8538L35.6008 27.2094L37.7985 25.9407Z" fill="#7BB1FF"/>
<path d="M37.7855 21.4595L37.7957 25.1024L35.5994 26.3711L35.5892 22.7268L37.7855 21.4595Z" fill="#7BB1FF"/>
<path d="M34.5849 23.3069L34.5951 26.9512L32.3974 28.22L32.3872 24.5756L34.5849 23.3069Z" fill="#7BB1FF"/>
<path d="M37.7741 16.9766L37.7843 20.6209L35.5866 21.8897L35.5764 18.2453L37.7741 16.9766Z" fill="#7BB1FF"/>
<path d="M34.5716 18.8257L34.5818 22.4686L32.3841 23.7373L32.3739 20.093L34.5716 18.8257Z" fill="#7BB1FF"/>
<path d="M28.1723 22.5195L28.1825 26.1639L25.9848 27.4326L25.9746 23.7883L28.1723 22.5195Z" fill="#7BB1FF"/>
<path d="M31.3732 20.6704L31.3834 24.3148L29.1828 25.5864L29.1726 21.9421L31.3732 20.6704Z" fill="#7BB1FF"/>
<path d="M31.3866 25.1536L31.3969 28.7979L29.1948 30.0696L29.1846 26.4252L31.3866 25.1536Z" fill="#7BB1FF"/>
<path d="M28.1971 31.4839L28.2073 35.1282L26.0111 36.397L25.9994 32.7526L28.1971 31.4839Z" fill="#7BB1FF"/>
<path d="M34.5964 27.79L34.6066 31.4344L32.4104 32.7031L32.4001 29.0588L34.5964 27.79Z" fill="#7BB1FF"/>
<path d="M21.4932 27.6326L21.4975 29.3549L8.82175 36.6742L8.81592 34.9519L21.4932 27.6326Z" fill="#FE91AB"/>
<path d="M21.4932 31.7566L21.4975 33.4789L8.82175 40.7982L8.81592 39.0759L21.4932 31.7566Z" fill="#FE91AB"/>
<path d="M21.4932 35.8809L21.4975 37.6031L8.82175 44.9225L8.81592 43.2002L21.4932 35.8809Z" fill="#E3E7F0"/>
<path d="M15.5811 43.4175L15.5869 45.1398L8.82175 49.0466L8.81592 47.3243L15.5811 43.4175Z" fill="#E3E7F0"/>
</svg>
